<svg width="114" height="114" viewBox="0 0 114 114" fill="none" xmlns="http://www.w3.org/2000/svg">
<path d="M13.25 113.25C9.8125 113.25 6.86979 112.026 4.42188 109.578C1.97396 107.13 0.75 104.188 0.75 100.75V13.25C0.75 9.8125 1.97396 6.86979 4.42188 4.42188C6.86979 1.97396 9.8125 0.75 13.25 0.75H63.25V13.25H13.25V100.75H100.75V50.75H113.25V100.75C113.25 104.188 112.026 107.13 109.578 109.578C107.13 112.026 104.188 113.25 100.75 113.25H13.25ZM19.5 88.25H94.5L71.0625 57L52.3125 82L38.25 63.25L19.5 88.25ZM88.25 38.25V25.75H75.75V13.25H88.25V0.75H100.75V13.25H113.25V25.75H100.75V38.25H88.25Z" fill="#1C1B1F"/>
</svg>
