<svg width="80" height="80" viewBox="0 0 80 80" fill="none" xmlns="http://www.w3.org/2000/svg">
<g opacity="0.8">
<path d="M7 63.6667V43.6667C7 42.1667 7.30556 40.8056 7.91667 39.5833C8.52778 38.3611 9.33333 37.2778 10.3333 36.3333V27C10.3333 24.2222 11.3056 21.8611 13.25 19.9167C15.1944 17.9722 17.5556 17 20.3333 17H33.6667C34.9444 17 36.1389 17.2361 37.25 17.7083C38.3611 18.1806 39.3889 18.8333 40.3333 19.6667C41.2778 18.8333 42.3056 18.1806 43.4167 17.7083C44.5278 17.2361 45.7222 17 47 17H60.3333C63.1111 17 65.4722 17.9722 67.4167 19.9167C69.3611 21.8611 70.3333 24.2222 70.3333 27V36.3333C71.3333 37.2778 72.1389 38.3611 72.75 39.5833C73.3611 40.8056 73.6667 42.1667 73.6667 43.6667V63.6667H67V57H13.6667V63.6667H7ZM43.6667 33.6667H63.6667V27C63.6667 26.0556 63.3472 25.2639 62.7083 24.625C62.0694 23.9861 61.2778 23.6667 60.3333 23.6667H47C46.0556 23.6667 45.2639 23.9861 44.625 24.625C43.9861 25.2639 43.6667 26.0556 43.6667 27V33.6667ZM17 33.6667H37V27C37 26.0556 36.6806 25.2639 36.0417 24.625C35.4028 23.9861 34.6111 23.6667 33.6667 23.6667H20.3333C19.3889 23.6667 18.5972 23.9861 17.9583 24.625C17.3194 25.2639 17 26.0556 17 27V33.6667ZM13.6667 50.3333H67V43.6667C67 42.7222 66.6806 41.9306 66.0417 41.2917C65.4028 40.6528 64.6111 40.3333 63.6667 40.3333H17C16.0556 40.3333 15.2639 40.6528 14.625 41.2917C13.9861 41.9306 13.6667 42.7222 13.6667 43.6667V50.3333Z" fill="#1C1B1F"/>
</g>
</svg>
