<svg width="26" height="20" viewBox="0 0 26 20" fill="none" xmlns="http://www.w3.org/2000/svg">
<path d="M13 14.6875C12.1929 14.6875 11.3857 14.4228 10.6973 13.8862L0.5 5.95703V17.0312C0.5 18.3252 1.54932 19.375 2.84375 19.375H23.1562C24.4507 19.375 25.5 18.3257 25.5 17.0312V5.95703L15.3047 13.8916C14.6162 14.4238 13.8057 14.6875 13 14.6875ZM1.29541 4.59473L11.6567 12.6562C12.4473 13.2715 13.5547 13.2715 14.3452 12.6562L24.7065 4.59473C25.1631 4.2041 25.5 3.60352 25.5 2.96875C25.5 1.67432 24.4502 0.625 23.1562 0.625H2.84375C1.54932 0.625 0.5 1.67432 0.5 2.96875C0.5 3.60352 0.793457 4.2041 1.29541 4.59473Z" fill="black"/>
</svg>
