<svg width="39" height="42" viewBox="0 0 39 42" fill="none" xmlns="http://www.w3.org/2000/svg">
<path d="M14.8115 8.3125C13.7803 8.3125 12.8975 7.94531 12.1631 7.21094C11.4287 6.47656 11.0615 5.59375 11.0615 4.5625C11.0615 3.53125 11.4287 2.64844 12.1631 1.91406C12.8975 1.17969 13.7803 0.8125 14.8115 0.8125C15.8428 0.8125 16.7256 1.17969 17.46 1.91406C18.1943 2.64844 18.5615 3.53125 18.5615 4.5625C18.5615 5.59375 18.1943 6.47656 17.46 7.21094C16.7256 7.94531 15.8428 8.3125 14.8115 8.3125ZM2.62402 41.125L7.78027 14.6875L4.49902 16.0938V22.375H0.749023V13.5625L10.5928 9.53125C11.4365 9.1875 12.2959 9.14844 13.1709 9.41406C14.0459 9.67969 14.7178 10.2188 15.1865 11.0312L16.9678 14.0312C17.8115 15.4062 18.9443 16.5156 20.3662 17.3594C21.7881 18.2031 23.374 18.625 25.124 18.625V22.375C23.0615 22.375 21.1475 21.9375 19.3818 21.0625C17.6162 20.1875 16.124 19 14.9053 17.5L13.7803 23.125L17.624 26.9687V41.125H13.874V29.875L9.84277 26.125L6.56152 41.125H2.62402ZM28.4053 41.125V14.875H21.374V1.75H38.249V14.875H31.2178V41.125H28.4053ZM30.7959 12.9531L35.4365 8.3125L30.7959 3.67187L28.7803 5.6875L29.999 6.90625H24.1865V9.71875H29.999L28.7803 10.9375L30.7959 12.9531Z" fill="#1C1B1F"/>
</svg>
