<svg width="55" height="55" viewBox="0 0 55 55" fill="none" xmlns="http://www.w3.org/2000/svg">
<g opacity="0.8">
<mask id="mask0_39_1700" style="mask-type:alpha" maskUnits="userSpaceOnUse" x="0" y="0" width="55" height="55">
<rect width="55" height="55" fill="#D9D9D9"/>
</mask>
<g mask="url(#mask0_39_1700)">
<path d="M21.7708 12.6042C20.5103 12.6042 19.4313 12.1554 18.5338 11.2578C17.6362 10.3602 17.1874 9.28125 17.1874 8.02083C17.1874 6.76042 17.6362 5.68142 18.5338 4.78385C19.4313 3.88628 20.5103 3.4375 21.7708 3.4375C23.0312 3.4375 24.1102 3.88628 25.0077 4.78385C25.9053 5.68142 26.3541 6.76042 26.3541 8.02083C26.3541 9.28125 25.9053 10.3602 25.0077 11.2578C24.1102 12.1554 23.0312 12.6042 21.7708 12.6042ZM6.87492 52.7083L13.177 20.3958L9.16658 22.1146V29.7917H4.58325V19.0208L16.6145 14.0937C17.6458 13.6736 18.6961 13.6259 19.7655 13.9505C20.835 14.2752 21.6562 14.934 22.2291 15.9271L24.4062 19.5937C25.4374 21.2743 26.822 22.6302 28.5598 23.6615C30.2977 24.6927 32.236 25.2083 34.3749 25.2083V29.7917C31.8541 29.7917 29.5147 29.2569 27.3567 28.1875C25.1987 27.1181 23.3749 25.6667 21.8853 23.8333L20.5103 30.7083L25.2083 35.4062V52.7083H20.6249V38.9583L15.6978 34.375L11.6874 52.7083H6.87492ZM38.3853 52.7083V20.625H29.7916V4.58333H50.4166V20.625H41.8228V52.7083H38.3853ZM41.3072 18.276L46.9791 12.6042L41.3072 6.93229L38.8437 9.39583L40.3333 10.8854H33.2291V14.3229H40.3333L38.8437 15.8125L41.3072 18.276Z" fill="#1C1B1F"/>
</g>
</g>
</svg>
