<svg width="285" height="371" viewBox="0 0 285 371" fill="none" xmlns="http://www.w3.org/2000/svg">
<g filter="url(#filter0_d_418_3817)">
<rect x="4.5" width="276" height="363" rx="15" fill="#BAEBDA"/>
<mask id="mask0_418_3817" style="mask-type:alpha" maskUnits="userSpaceOnUse" x="112" y="59" width="61" height="60">
<rect x="112.5" y="59" width="60" height="60" fill="#D9D9D9"/>
</mask>
<g mask="url(#mask0_418_3817)">
<path d="M123.375 110.75C122.542 111.083 121.771 110.99 121.062 110.469C120.354 109.948 120 109.25 120 108.375V73.375C120 72.8333 120.156 72.3542 120.469 71.9375C120.781 71.5208 121.208 71.2083 121.75 71L135 66.5L150 71.75L161.625 67.25C162.458 66.9167 163.229 67.0104 163.938 67.5312C164.646 68.0521 165 68.75 165 69.625V90.6875C164.375 89.7292 163.635 88.8542 162.781 88.0625C161.927 87.2708 161 86.5833 160 86V73.25L152.5 76.125V84C151.625 84 150.771 84.0729 149.938 84.2188C149.104 84.3646 148.292 84.5833 147.5 84.875V76.125L137.5 72.625V105.312L123.375 110.75ZM125 104.75L132.5 101.875V72.625L125 75.125V104.75ZM152.5 104C153.917 104 155.094 103.583 156.031 102.75C156.969 101.917 157.458 100.667 157.5 99C157.542 97.5833 157.073 96.3958 156.094 95.4375C155.115 94.4792 153.917 94 152.5 94C151.083 94 149.896 94.4792 148.938 95.4375C147.979 96.3958 147.5 97.5833 147.5 99C147.5 100.417 147.979 101.604 148.938 102.562C149.896 103.521 151.083 104 152.5 104ZM152.5 109C149.75 109 147.396 108.021 145.438 106.062C143.479 104.104 142.5 101.75 142.5 99C142.5 96.25 143.479 93.8958 145.438 91.9375C147.396 89.9792 149.75 89 152.5 89C155.25 89 157.604 89.9792 159.562 91.9375C161.521 93.8958 162.5 96.25 162.5 99C162.5 99.9583 162.385 100.865 162.156 101.719C161.927 102.573 161.583 103.375 161.125 104.125L167.5 110.5L164 114L157.625 107.625C156.875 108.083 156.073 108.427 155.219 108.656C154.365 108.885 153.458 109 152.5 109Z" fill="#1C1B1F"/>
</g>
<path d="M38.8036 160V147L39.9436 148.18H35.8436V146H41.4036V160H38.8036ZM50.0208 160.2C48.9141 160.2 47.9141 159.92 47.0208 159.36C46.1408 158.8 45.4474 157.987 44.9408 156.92C44.4341 155.84 44.1808 154.533 44.1808 153C44.1808 151.467 44.4341 150.167 44.9408 149.1C45.4474 148.02 46.1408 147.2 47.0208 146.64C47.9141 146.08 48.9141 145.8 50.0208 145.8C51.1408 145.8 52.1408 146.08 53.0208 146.64C53.9008 147.2 54.5941 148.02 55.1008 149.1C55.6208 150.167 55.8808 151.467 55.8808 153C55.8808 154.533 55.6208 155.84 55.1008 156.92C54.5941 157.987 53.9008 158.8 53.0208 159.36C52.1408 159.92 51.1408 160.2 50.0208 160.2ZM50.0208 157.94C50.6741 157.94 51.2408 157.767 51.7208 157.42C52.2008 157.06 52.5741 156.513 52.8408 155.78C53.1208 155.047 53.2608 154.12 53.2608 153C53.2608 151.867 53.1208 150.94 52.8408 150.22C52.5741 149.487 52.2008 148.947 51.7208 148.6C51.2408 148.24 50.6741 148.06 50.0208 148.06C49.3941 148.06 48.8341 148.24 48.3408 148.6C47.8608 148.947 47.4808 149.487 47.2008 150.22C46.9341 150.94 46.8008 151.867 46.8008 153C46.8008 154.12 46.9341 155.047 47.2008 155.78C47.4808 156.513 47.8608 157.06 48.3408 157.42C48.8341 157.767 49.3941 157.94 50.0208 157.94ZM63.4778 160.2C62.3711 160.2 61.3711 159.92 60.4778 159.36C59.5978 158.8 58.9045 157.987 58.3978 156.92C57.8911 155.84 57.6378 154.533 57.6378 153C57.6378 151.467 57.8911 150.167 58.3978 149.1C58.9045 148.02 59.5978 147.2 60.4778 146.64C61.3711 146.08 62.3711 145.8 63.4778 145.8C64.5978 145.8 65.5978 146.08 66.4778 146.64C67.3578 147.2 68.0511 148.02 68.5578 149.1C69.0778 150.167 69.3378 151.467 69.3378 153C69.3378 154.533 69.0778 155.84 68.5578 156.92C68.0511 157.987 67.3578 158.8 66.4778 159.36C65.5978 159.92 64.5978 160.2 63.4778 160.2ZM63.4778 157.94C64.1311 157.94 64.6978 157.767 65.1778 157.42C65.6578 157.06 66.0311 156.513 66.2978 155.78C66.5778 155.047 66.7178 154.12 66.7178 153C66.7178 151.867 66.5778 150.94 66.2978 150.22C66.0311 149.487 65.6578 148.947 65.1778 148.6C64.6978 148.24 64.1311 148.06 63.4778 148.06C62.8511 148.06 62.2911 148.24 61.7978 148.6C61.3178 148.947 60.9378 149.487 60.6578 150.22C60.3911 150.94 60.2578 151.867 60.2578 153C60.2578 154.12 60.3911 155.047 60.6578 155.78C60.9378 156.513 61.3178 157.06 61.7978 157.42C62.2911 157.767 62.8511 157.94 63.4778 157.94ZM73.0548 160L82.6148 146H84.5748L75.0148 160H73.0548ZM74.2148 153.54C73.5615 153.54 72.9815 153.38 72.4748 153.06C71.9682 152.74 71.5748 152.293 71.2948 151.72C71.0148 151.147 70.8748 150.473 70.8748 149.7C70.8748 148.927 71.0148 148.253 71.2948 147.68C71.5748 147.107 71.9682 146.66 72.4748 146.34C72.9815 146.02 73.5615 145.86 74.2148 145.86C74.8948 145.86 75.4815 146.02 75.9748 146.34C76.4815 146.66 76.8748 147.107 77.1548 147.68C77.4348 148.253 77.5748 148.927 77.5748 149.7C77.5748 150.473 77.4348 151.147 77.1548 151.72C76.8748 152.293 76.4815 152.74 75.9748 153.06C75.4815 153.38 74.8948 153.54 74.2148 153.54ZM74.2348 152.14C74.7682 152.14 75.1815 151.933 75.4748 151.52C75.7815 151.093 75.9348 150.487 75.9348 149.7C75.9348 148.913 75.7815 148.313 75.4748 147.9C75.1815 147.473 74.7682 147.26 74.2348 147.26C73.7015 147.26 73.2748 147.473 72.9548 147.9C72.6482 148.327 72.4948 148.927 72.4948 149.7C72.4948 150.473 72.6482 151.073 72.9548 151.5C73.2748 151.927 73.7015 152.14 74.2348 152.14ZM83.3948 160.14C82.7415 160.14 82.1615 159.98 81.6548 159.66C81.1482 159.34 80.7548 158.893 80.4748 158.32C80.1948 157.747 80.0548 157.073 80.0548 156.3C80.0548 155.527 80.1948 154.853 80.4748 154.28C80.7548 153.707 81.1482 153.26 81.6548 152.94C82.1615 152.62 82.7415 152.46 83.3948 152.46C84.0748 152.46 84.6615 152.62 85.1548 152.94C85.6615 153.26 86.0548 153.707 86.3348 154.28C86.6148 154.853 86.7548 155.527 86.7548 156.3C86.7548 157.073 86.6148 157.747 86.3348 158.32C86.0548 158.893 85.6615 159.34 85.1548 159.66C84.6615 159.98 84.0748 160.14 83.3948 160.14ZM83.3948 158.74C83.9282 158.74 84.3482 158.527 84.6548 158.1C84.9615 157.673 85.1148 157.073 85.1148 156.3C85.1148 155.527 84.9615 154.927 84.6548 154.5C84.3482 154.073 83.9282 153.86 83.3948 153.86C82.8748 153.86 82.4548 154.073 82.1348 154.5C81.8282 154.913 81.6748 155.513 81.6748 156.3C81.6748 157.087 81.8282 157.693 82.1348 158.12C82.4548 158.533 82.8748 158.74 83.3948 158.74ZM94.8292 160V146H97.4292V157.8H104.749V160H94.8292ZM111.264 160.14C110.171 160.14 109.198 159.907 108.344 159.44C107.491 158.96 106.818 158.307 106.324 157.48C105.831 156.653 105.584 155.713 105.584 154.66C105.584 153.593 105.831 152.653 106.324 151.84C106.818 151.013 107.491 150.367 108.344 149.9C109.198 149.433 110.171 149.2 111.264 149.2C112.371 149.2 113.351 149.433 114.204 149.9C115.071 150.367 115.744 151.007 116.224 151.82C116.718 152.633 116.964 153.58 116.964 154.66C116.964 155.713 116.718 156.653 116.224 157.48C115.744 158.307 115.071 158.96 114.204 159.44C113.351 159.907 112.371 160.14 111.264 160.14ZM111.264 158C111.878 158 112.424 157.867 112.904 157.6C113.384 157.333 113.758 156.947 114.024 156.44C114.304 155.933 114.444 155.34 114.444 154.66C114.444 153.967 114.304 153.373 114.024 152.88C113.758 152.373 113.384 151.987 112.904 151.72C112.424 151.453 111.884 151.32 111.284 151.32C110.671 151.32 110.124 151.453 109.644 151.72C109.178 151.987 108.804 152.373 108.524 152.88C108.244 153.373 108.104 153.967 108.104 154.66C108.104 155.34 108.244 155.933 108.524 156.44C108.804 156.947 109.178 157.333 109.644 157.6C110.124 157.867 110.664 158 111.264 158ZM124.255 160.14C123.135 160.14 122.135 159.907 121.255 159.44C120.388 158.96 119.708 158.307 119.215 157.48C118.722 156.653 118.475 155.713 118.475 154.66C118.475 153.593 118.722 152.653 119.215 151.84C119.708 151.013 120.388 150.367 121.255 149.9C122.135 149.433 123.135 149.2 124.255 149.2C125.295 149.2 126.208 149.413 126.995 149.84C127.795 150.253 128.402 150.867 128.815 151.68L126.895 152.8C126.575 152.293 126.182 151.92 125.715 151.68C125.262 151.44 124.768 151.32 124.235 151.32C123.622 151.32 123.068 151.453 122.575 151.72C122.082 151.987 121.695 152.373 121.415 152.88C121.135 153.373 120.995 153.967 120.995 154.66C120.995 155.353 121.135 155.953 121.415 156.46C121.695 156.953 122.082 157.333 122.575 157.6C123.068 157.867 123.622 158 124.235 158C124.768 158 125.262 157.88 125.715 157.64C126.182 157.4 126.575 157.027 126.895 156.52L128.815 157.64C128.402 158.44 127.795 159.06 126.995 159.5C126.208 159.927 125.295 160.14 124.255 160.14ZM137.556 160V157.84L137.416 157.38V153.6C137.416 152.867 137.196 152.3 136.756 151.9C136.316 151.487 135.649 151.28 134.756 151.28C134.156 151.28 133.563 151.373 132.976 151.56C132.403 151.747 131.916 152.007 131.516 152.34L130.536 150.52C131.109 150.08 131.789 149.753 132.576 149.54C133.376 149.313 134.203 149.2 135.056 149.2C136.603 149.2 137.796 149.573 138.636 150.32C139.489 151.053 139.916 152.193 139.916 153.74V160H137.556ZM134.196 160.14C133.396 160.14 132.696 160.007 132.096 159.74C131.496 159.46 131.029 159.08 130.696 158.6C130.376 158.107 130.216 157.553 130.216 156.94C130.216 156.34 130.356 155.8 130.636 155.32C130.929 154.84 131.403 154.46 132.056 154.18C132.709 153.9 133.576 153.76 134.656 153.76H137.756V155.42H134.836C133.983 155.42 133.409 155.56 133.116 155.84C132.823 156.107 132.676 156.44 132.676 156.84C132.676 157.293 132.856 157.653 133.216 157.92C133.576 158.187 134.076 158.32 134.716 158.32C135.329 158.32 135.876 158.18 136.356 157.9C136.849 157.62 137.203 157.207 137.416 156.66L137.836 158.16C137.596 158.787 137.163 159.273 136.536 159.62C135.923 159.967 135.143 160.14 134.196 160.14ZM143.124 160V145.16H145.624V160H143.124ZM157.073 151.82H164.033V153.96H157.073V151.82ZM157.273 157.82H165.173V160H154.673V146H164.893V148.18H157.273V157.82ZM166.196 160L170.896 153.88L170.856 155.22L166.376 149.32H169.156L172.296 153.52H171.236L174.396 149.32H177.096L172.576 155.22L172.596 153.88L177.276 160H174.456L171.156 155.54L172.196 155.68L168.956 160H166.196ZM185.04 160.14C184.174 160.14 183.38 159.94 182.66 159.54C181.954 159.14 181.387 158.54 180.96 157.74C180.547 156.927 180.34 155.9 180.34 154.66C180.34 153.407 180.54 152.38 180.94 151.58C181.354 150.78 181.914 150.187 182.62 149.8C183.327 149.4 184.134 149.2 185.04 149.2C186.094 149.2 187.02 149.427 187.82 149.88C188.634 150.333 189.274 150.967 189.74 151.78C190.22 152.593 190.46 153.553 190.46 154.66C190.46 155.767 190.22 156.733 189.74 157.56C189.274 158.373 188.634 159.007 187.82 159.46C187.02 159.913 186.094 160.14 185.04 160.14ZM179.12 163.88V149.32H181.5V151.84L181.42 154.68L181.62 157.52V163.88H179.12ZM184.76 158C185.36 158 185.894 157.867 186.36 157.6C186.84 157.333 187.22 156.947 187.5 156.44C187.78 155.933 187.92 155.34 187.92 154.66C187.92 153.967 187.78 153.373 187.5 152.88C187.22 152.373 186.84 151.987 186.36 151.72C185.894 151.453 185.36 151.32 184.76 151.32C184.16 151.32 183.62 151.453 183.14 151.72C182.66 151.987 182.28 152.373 182 152.88C181.72 153.373 181.58 153.967 181.58 154.66C181.58 155.34 181.72 155.933 182 156.44C182.28 156.947 182.66 157.333 183.14 157.6C183.62 157.867 184.16 158 184.76 158ZM197.851 160.14C196.665 160.14 195.625 159.907 194.731 159.44C193.851 158.96 193.165 158.307 192.671 157.48C192.191 156.653 191.951 155.713 191.951 154.66C191.951 153.593 192.185 152.653 192.651 151.84C193.131 151.013 193.785 150.367 194.611 149.9C195.451 149.433 196.405 149.2 197.471 149.2C198.511 149.2 199.438 149.427 200.251 149.88C201.065 150.333 201.705 150.973 202.171 151.8C202.638 152.627 202.871 153.6 202.871 154.72C202.871 154.827 202.865 154.947 202.851 155.08C202.851 155.213 202.845 155.34 202.831 155.46H193.931V153.8H201.511L200.531 154.32C200.545 153.707 200.418 153.167 200.151 152.7C199.885 152.233 199.518 151.867 199.051 151.6C198.598 151.333 198.071 151.2 197.471 151.2C196.858 151.2 196.318 151.333 195.851 151.6C195.398 151.867 195.038 152.24 194.771 152.72C194.518 153.187 194.391 153.74 194.391 154.38V154.78C194.391 155.42 194.538 155.987 194.831 156.48C195.125 156.973 195.538 157.353 196.071 157.62C196.605 157.887 197.218 158.02 197.911 158.02C198.511 158.02 199.051 157.927 199.531 157.74C200.011 157.553 200.438 157.26 200.811 156.86L202.151 158.4C201.671 158.96 201.065 159.393 200.331 159.7C199.611 159.993 198.785 160.14 197.851 160.14ZM205.273 160V149.32H207.653V152.26L207.373 151.4C207.693 150.68 208.193 150.133 208.873 149.76C209.566 149.387 210.426 149.2 211.453 149.2V151.58C211.346 151.553 211.246 151.54 211.153 151.54C211.059 151.527 210.966 151.52 210.873 151.52C209.926 151.52 209.173 151.8 208.613 152.36C208.053 152.907 207.773 153.727 207.773 154.82V160H205.273ZM217.984 160.14C216.811 160.14 215.904 159.84 215.264 159.24C214.624 158.627 214.304 157.727 214.304 156.54V146.96H216.804V156.48C216.804 156.987 216.931 157.38 217.184 157.66C217.451 157.94 217.818 158.08 218.284 158.08C218.844 158.08 219.311 157.933 219.684 157.64L220.384 159.42C220.091 159.66 219.731 159.84 219.304 159.96C218.878 160.08 218.438 160.14 217.984 160.14ZM212.544 151.4V149.4H219.664V151.4H212.544ZM222.441 160V149.32H224.941V160H222.441ZM223.701 147.56C223.234 147.56 222.847 147.413 222.541 147.12C222.247 146.827 222.101 146.473 222.101 146.06C222.101 145.633 222.247 145.28 222.541 145C222.847 144.707 223.234 144.56 223.701 144.56C224.167 144.56 224.547 144.7 224.841 144.98C225.147 145.247 225.301 145.587 225.301 146C225.301 146.44 225.154 146.813 224.861 147.12C224.567 147.413 224.181 147.56 223.701 147.56ZM231.522 160.14C230.629 160.14 229.769 160.027 228.942 159.8C228.129 159.56 227.482 159.273 227.002 158.94L227.962 157.04C228.442 157.347 229.015 157.6 229.682 157.8C230.349 158 231.015 158.1 231.682 158.1C232.469 158.1 233.035 157.993 233.382 157.78C233.742 157.567 233.922 157.28 233.922 156.92C233.922 156.627 233.802 156.407 233.562 156.26C233.322 156.1 233.009 155.98 232.622 155.9C232.235 155.82 231.802 155.747 231.322 155.68C230.855 155.613 230.382 155.527 229.902 155.42C229.435 155.3 229.009 155.133 228.622 154.92C228.235 154.693 227.922 154.393 227.682 154.02C227.442 153.647 227.322 153.153 227.322 152.54C227.322 151.86 227.515 151.273 227.902 150.78C228.289 150.273 228.829 149.887 229.522 149.62C230.229 149.34 231.062 149.2 232.022 149.2C232.742 149.2 233.469 149.28 234.202 149.44C234.935 149.6 235.542 149.827 236.022 150.12L235.062 152.02C234.555 151.713 234.042 151.507 233.522 151.4C233.015 151.28 232.509 151.22 232.002 151.22C231.242 151.22 230.675 151.333 230.302 151.56C229.942 151.787 229.762 152.073 229.762 152.42C229.762 152.74 229.882 152.98 230.122 153.14C230.362 153.3 230.675 153.427 231.062 153.52C231.449 153.613 231.875 153.693 232.342 153.76C232.822 153.813 233.295 153.9 233.762 154.02C234.229 154.14 234.655 154.307 235.042 154.52C235.442 154.72 235.762 155.007 236.002 155.38C236.242 155.753 236.362 156.24 236.362 156.84C236.362 157.507 236.162 158.087 235.762 158.58C235.375 159.073 234.822 159.46 234.102 159.74C233.382 160.007 232.522 160.14 231.522 160.14ZM243.535 160.14C242.348 160.14 241.308 159.907 240.415 159.44C239.535 158.96 238.848 158.307 238.355 157.48C237.875 156.653 237.635 155.713 237.635 154.66C237.635 153.593 237.868 152.653 238.335 151.84C238.815 151.013 239.468 150.367 240.295 149.9C241.135 149.433 242.088 149.2 243.155 149.2C244.195 149.2 245.122 149.427 245.935 149.88C246.748 150.333 247.388 150.973 247.855 151.8C248.322 152.627 248.555 153.6 248.555 154.72C248.555 154.827 248.548 154.947 248.535 155.08C248.535 155.213 248.528 155.34 248.515 155.46H239.615V153.8H247.195L246.215 154.32C246.228 153.707 246.102 153.167 245.835 152.7C245.568 152.233 245.202 151.867 244.735 151.6C244.282 151.333 243.755 151.2 243.155 151.2C242.542 151.2 242.002 151.333 241.535 151.6C241.082 151.867 240.722 152.24 240.455 152.72C240.202 153.187 240.075 153.74 240.075 154.38V154.78C240.075 155.42 240.222 155.987 240.515 156.48C240.808 156.973 241.222 157.353 241.755 157.62C242.288 157.887 242.902 158.02 243.595 158.02C244.195 158.02 244.735 157.927 245.215 157.74C245.695 157.553 246.122 157.26 246.495 156.86L247.835 158.4C247.355 158.96 246.748 159.393 246.015 159.7C245.295 159.993 244.468 160.14 243.535 160.14Z" fill="black"/>
<path d="M54.0581 201.112C53.3021 201.112 52.6067 200.991 51.9721 200.748C51.3374 200.496 50.7867 200.146 50.3201 199.698C49.8534 199.241 49.4894 198.709 49.2281 198.102C48.9667 197.495 48.8361 196.828 48.8361 196.1C48.8361 195.372 48.9667 194.705 49.2281 194.098C49.4894 193.491 49.8534 192.964 50.3201 192.516C50.7961 192.059 51.3514 191.709 51.9861 191.466C52.6207 191.214 53.3207 191.088 54.0861 191.088C54.8607 191.088 55.5701 191.214 56.2141 191.466C56.8581 191.718 57.4041 192.096 57.8521 192.6L56.9841 193.468C56.5827 193.076 56.1441 192.791 55.6681 192.614C55.2014 192.427 54.6927 192.334 54.1421 192.334C53.5821 192.334 53.0594 192.427 52.5741 192.614C52.0981 192.801 51.6827 193.062 51.3281 193.398C50.9827 193.734 50.7121 194.135 50.5161 194.602C50.3294 195.059 50.2361 195.559 50.2361 196.1C50.2361 196.632 50.3294 197.131 50.5161 197.598C50.7121 198.055 50.9827 198.457 51.3281 198.802C51.6827 199.138 52.0981 199.399 52.5741 199.586C53.0501 199.773 53.5681 199.866 54.1281 199.866C54.6507 199.866 55.1501 199.787 55.6261 199.628C56.1114 199.46 56.5594 199.185 56.9701 198.802L57.7681 199.866C57.2827 200.277 56.7134 200.589 56.0601 200.804C55.4161 201.009 54.7487 201.112 54.0581 201.112ZM56.4241 199.684V196.044H57.7681V199.866L56.4241 199.684ZM63.5565 201.084C62.7632 201.084 62.0632 200.921 61.4565 200.594C60.8592 200.267 60.3925 199.819 60.0565 199.25C59.7298 198.681 59.5665 198.027 59.5665 197.29C59.5665 196.553 59.7252 195.899 60.0425 195.33C60.3692 194.761 60.8125 194.317 61.3725 194C61.9418 193.673 62.5812 193.51 63.2905 193.51C64.0092 193.51 64.6438 193.669 65.1945 193.986C65.7452 194.303 66.1745 194.751 66.4825 195.33C66.7998 195.899 66.9585 196.567 66.9585 197.332C66.9585 197.388 66.9538 197.453 66.9445 197.528C66.9445 197.603 66.9398 197.673 66.9305 197.738H60.6165V196.772H66.2305L65.6845 197.108C65.6938 196.632 65.5958 196.207 65.3905 195.834C65.1852 195.461 64.9005 195.171 64.5365 194.966C64.1818 194.751 63.7665 194.644 63.2905 194.644C62.8238 194.644 62.4085 194.751 62.0445 194.966C61.6805 195.171 61.3958 195.465 61.1905 195.848C60.9852 196.221 60.8825 196.651 60.8825 197.136V197.36C60.8825 197.855 60.9945 198.298 61.2185 198.69C61.4518 199.073 61.7738 199.371 62.1845 199.586C62.5952 199.801 63.0665 199.908 63.5985 199.908C64.0372 199.908 64.4338 199.833 64.7885 199.684C65.1525 199.535 65.4698 199.311 65.7405 199.012L66.4825 199.88C66.1465 200.272 65.7265 200.571 65.2225 200.776C64.7278 200.981 64.1725 201.084 63.5565 201.084ZM71.3728 201.084C70.6261 201.084 70.0474 200.883 69.6368 200.482C69.2261 200.081 69.0208 199.507 69.0208 198.76V191.956H70.3648V198.704C70.3648 199.105 70.4628 199.413 70.6588 199.628C70.8641 199.843 71.1534 199.95 71.5268 199.95C71.9468 199.95 72.2968 199.833 72.5768 199.6L72.9968 200.566C72.7914 200.743 72.5441 200.874 72.2548 200.958C71.9748 201.042 71.6808 201.084 71.3728 201.084ZM67.7608 194.686V193.58H72.4928V194.686H67.7608ZM78.3814 201V193.58H79.7254V201H78.3814ZM79.0534 192.152C78.7921 192.152 78.5728 192.068 78.3954 191.9C78.2274 191.732 78.1434 191.527 78.1434 191.284C78.1434 191.032 78.2274 190.822 78.3954 190.654C78.5728 190.486 78.7921 190.402 79.0534 190.402C79.3148 190.402 79.5294 190.486 79.6974 190.654C79.8748 190.813 79.9634 191.013 79.9634 191.256C79.9634 191.508 79.8794 191.723 79.7114 191.9C79.5434 192.068 79.3241 192.152 79.0534 192.152ZM86.2536 193.51C86.8602 193.51 87.3922 193.627 87.8496 193.86C88.3162 194.093 88.6802 194.448 88.9416 194.924C89.2029 195.4 89.3336 196.002 89.3336 196.73V201H87.9896V196.884C87.9896 196.165 87.8122 195.624 87.4576 195.26C87.1122 194.896 86.6222 194.714 85.9876 194.714C85.5116 194.714 85.0962 194.807 84.7416 194.994C84.3869 195.181 84.1116 195.456 83.9156 195.82C83.7289 196.184 83.6356 196.637 83.6356 197.178V201H82.2916V193.58H83.5796V195.582L83.3696 195.05C83.6122 194.565 83.9856 194.187 84.4896 193.916C84.9936 193.645 85.5816 193.51 86.2536 193.51ZM93.9489 201.084C93.3329 201.084 92.7449 201 92.1849 200.832C91.6342 200.664 91.2002 200.459 90.8829 200.216L91.4429 199.152C91.7602 199.367 92.1522 199.549 92.6189 199.698C93.0855 199.847 93.5615 199.922 94.0469 199.922C94.6722 199.922 95.1202 199.833 95.3909 199.656C95.6709 199.479 95.8109 199.231 95.8109 198.914C95.8109 198.681 95.7269 198.499 95.5589 198.368C95.3909 198.237 95.1669 198.139 94.8869 198.074C94.6162 198.009 94.3129 197.953 93.9769 197.906C93.6409 197.85 93.3049 197.785 92.9689 197.71C92.6329 197.626 92.3249 197.514 92.0449 197.374C91.7649 197.225 91.5409 197.024 91.3729 196.772C91.2049 196.511 91.1209 196.165 91.1209 195.736C91.1209 195.288 91.2469 194.896 91.4989 194.56C91.7509 194.224 92.1055 193.967 92.5629 193.79C93.0295 193.603 93.5802 193.51 94.2149 193.51C94.7002 193.51 95.1902 193.571 95.6849 193.692C96.1889 193.804 96.5995 193.967 96.9169 194.182L96.3429 195.246C96.0069 195.022 95.6569 194.868 95.2929 194.784C94.9289 194.7 94.5649 194.658 94.2009 194.658C93.6129 194.658 93.1742 194.756 92.8849 194.952C92.5955 195.139 92.4509 195.381 92.4509 195.68C92.4509 195.932 92.5349 196.128 92.7029 196.268C92.8802 196.399 93.1042 196.501 93.3749 196.576C93.6549 196.651 93.9629 196.716 94.2989 196.772C94.6349 196.819 94.9709 196.884 95.3069 196.968C95.6429 197.043 95.9462 197.15 96.2169 197.29C96.4969 197.43 96.7209 197.626 96.8889 197.878C97.0662 198.13 97.1549 198.466 97.1549 198.886C97.1549 199.334 97.0242 199.721 96.7629 200.048C96.5015 200.375 96.1329 200.631 95.6569 200.818C95.1809 200.995 94.6115 201.084 93.9489 201.084ZM98.8345 201V193.58H100.179V201H98.8345ZM99.5065 192.152C99.2452 192.152 99.0259 192.068 98.8485 191.9C98.6805 191.732 98.5965 191.527 98.5965 191.284C98.5965 191.032 98.6805 190.822 98.8485 190.654C99.0259 190.486 99.2452 190.402 99.5065 190.402C99.7679 190.402 99.9825 190.486 100.151 190.654C100.328 190.813 100.417 191.013 100.417 191.256C100.417 191.508 100.333 191.723 100.165 191.9C99.9965 192.068 99.7772 192.152 99.5065 192.152ZM105.811 201.084C105.092 201.084 104.448 200.925 103.879 200.608C103.319 200.291 102.875 199.847 102.549 199.278C102.222 198.709 102.059 198.046 102.059 197.29C102.059 196.534 102.222 195.876 102.549 195.316C102.875 194.747 103.319 194.303 103.879 193.986C104.448 193.669 105.092 193.51 105.811 193.51C106.436 193.51 107.001 193.65 107.505 193.93C108.009 194.21 108.41 194.63 108.709 195.19C109.017 195.75 109.171 196.45 109.171 197.29C109.171 198.13 109.021 198.83 108.723 199.39C108.433 199.95 108.037 200.375 107.533 200.664C107.029 200.944 106.455 201.084 105.811 201.084ZM105.923 199.908C106.389 199.908 106.809 199.801 107.183 199.586C107.565 199.371 107.864 199.068 108.079 198.676C108.303 198.275 108.415 197.813 108.415 197.29C108.415 196.758 108.303 196.301 108.079 195.918C107.864 195.526 107.565 195.223 107.183 195.008C106.809 194.793 106.389 194.686 105.923 194.686C105.447 194.686 105.022 194.793 104.649 195.008C104.275 195.223 103.977 195.526 103.753 195.918C103.529 196.301 103.417 196.758 103.417 197.29C103.417 197.813 103.529 198.275 103.753 198.676C103.977 199.068 104.275 199.371 104.649 199.586C105.022 199.801 105.447 199.908 105.923 199.908ZM108.457 201V198.998L108.541 197.276L108.401 195.554V190.612H109.745V201H108.457ZM115.592 201.084C114.798 201.084 114.098 200.921 113.492 200.594C112.894 200.267 112.428 199.819 112.092 199.25C111.765 198.681 111.602 198.027 111.602 197.29C111.602 196.553 111.76 195.899 112.078 195.33C112.404 194.761 112.848 194.317 113.408 194C113.977 193.673 114.616 193.51 115.326 193.51C116.044 193.51 116.679 193.669 117.23 193.986C117.78 194.303 118.21 194.751 118.518 195.33C118.835 195.899 118.994 196.567 118.994 197.332C118.994 197.388 118.989 197.453 118.98 197.528C118.98 197.603 118.975 197.673 118.966 197.738H112.652V196.772H118.266L117.72 197.108C117.729 196.632 117.631 196.207 117.426 195.834C117.22 195.461 116.936 195.171 116.572 194.966C116.217 194.751 115.802 194.644 115.326 194.644C114.859 194.644 114.444 194.751 114.08 194.966C113.716 195.171 113.431 195.465 113.226 195.848C113.02 196.221 112.918 196.651 112.918 197.136V197.36C112.918 197.855 113.03 198.298 113.254 198.69C113.487 199.073 113.809 199.371 114.22 199.586C114.63 199.801 115.102 199.908 115.634 199.908C116.072 199.908 116.469 199.833 116.824 199.684C117.188 199.535 117.505 199.311 117.776 199.012L118.518 199.88C118.182 200.272 117.762 200.571 117.258 200.776C116.763 200.981 116.208 201.084 115.592 201.084ZM120.86 201V193.58H122.148V195.596L122.022 195.092C122.227 194.579 122.573 194.187 123.058 193.916C123.543 193.645 124.141 193.51 124.85 193.51V194.812C124.794 194.803 124.738 194.798 124.682 194.798C124.635 194.798 124.589 194.798 124.542 194.798C123.823 194.798 123.254 195.013 122.834 195.442C122.414 195.871 122.204 196.492 122.204 197.304V201H120.86ZM132.49 201.084C131.874 201.084 131.286 201 130.726 200.832C130.175 200.664 129.741 200.459 129.424 200.216L129.984 199.152C130.301 199.367 130.693 199.549 131.16 199.698C131.627 199.847 132.103 199.922 132.588 199.922C133.213 199.922 133.661 199.833 133.932 199.656C134.212 199.479 134.352 199.231 134.352 198.914C134.352 198.681 134.268 198.499 134.1 198.368C133.932 198.237 133.708 198.139 133.428 198.074C133.157 198.009 132.854 197.953 132.518 197.906C132.182 197.85 131.846 197.785 131.51 197.71C131.174 197.626 130.866 197.514 130.586 197.374C130.306 197.225 130.082 197.024 129.914 196.772C129.746 196.511 129.662 196.165 129.662 195.736C129.662 195.288 129.788 194.896 130.04 194.56C130.292 194.224 130.647 193.967 131.104 193.79C131.571 193.603 132.121 193.51 132.756 193.51C133.241 193.51 133.731 193.571 134.226 193.692C134.73 193.804 135.141 193.967 135.458 194.182L134.884 195.246C134.548 195.022 134.198 194.868 133.834 194.784C133.47 194.7 133.106 194.658 132.742 194.658C132.154 194.658 131.715 194.756 131.426 194.952C131.137 195.139 130.992 195.381 130.992 195.68C130.992 195.932 131.076 196.128 131.244 196.268C131.421 196.399 131.645 196.501 131.916 196.576C132.196 196.651 132.504 196.716 132.84 196.772C133.176 196.819 133.512 196.884 133.848 196.968C134.184 197.043 134.487 197.15 134.758 197.29C135.038 197.43 135.262 197.626 135.43 197.878C135.607 198.13 135.696 198.466 135.696 198.886C135.696 199.334 135.565 199.721 135.304 200.048C135.043 200.375 134.674 200.631 134.198 200.818C133.722 200.995 133.153 201.084 132.49 201.084ZM139.924 201.084C139.177 201.084 138.598 200.883 138.188 200.482C137.777 200.081 137.572 199.507 137.572 198.76V191.956H138.916V198.704C138.916 199.105 139.014 199.413 139.21 199.628C139.415 199.843 139.704 199.95 140.078 199.95C140.498 199.95 140.848 199.833 141.128 199.6L141.548 200.566C141.342 200.743 141.095 200.874 140.806 200.958C140.526 201.042 140.232 201.084 139.924 201.084ZM136.312 194.686V193.58H141.044V194.686H136.312ZM146.104 201.084C145.358 201.084 144.695 200.921 144.116 200.594C143.538 200.267 143.08 199.819 142.744 199.25C142.408 198.671 142.24 198.018 142.24 197.29C142.24 196.553 142.408 195.899 142.744 195.33C143.08 194.761 143.538 194.317 144.116 194C144.695 193.673 145.358 193.51 146.104 193.51C146.842 193.51 147.5 193.673 148.078 194C148.666 194.317 149.124 194.761 149.45 195.33C149.786 195.89 149.954 196.543 149.954 197.29C149.954 198.027 149.786 198.681 149.45 199.25C149.124 199.819 148.666 200.267 148.078 200.594C147.5 200.921 146.842 201.084 146.104 201.084ZM146.104 199.908C146.58 199.908 147.005 199.801 147.378 199.586C147.761 199.371 148.06 199.068 148.274 198.676C148.489 198.275 148.596 197.813 148.596 197.29C148.596 196.758 148.489 196.301 148.274 195.918C148.06 195.526 147.761 195.223 147.378 195.008C147.005 194.793 146.58 194.686 146.104 194.686C145.628 194.686 145.204 194.793 144.83 195.008C144.457 195.223 144.158 195.526 143.934 195.918C143.71 196.301 143.598 196.758 143.598 197.29C143.598 197.813 143.71 198.275 143.934 198.676C144.158 199.068 144.457 199.371 144.83 199.586C145.204 199.801 145.628 199.908 146.104 199.908ZM151.813 201V193.58H153.101V195.596L152.975 195.092C153.18 194.579 153.526 194.187 154.011 193.916C154.496 193.645 155.094 193.51 155.803 193.51V194.812C155.747 194.803 155.691 194.798 155.635 194.798C155.588 194.798 155.542 194.798 155.495 194.798C154.776 194.798 154.207 195.013 153.787 195.442C153.367 195.871 153.157 196.492 153.157 197.304V201H151.813ZM157.46 201V193.58H158.804V201H157.46ZM158.132 192.152C157.87 192.152 157.651 192.068 157.474 191.9C157.306 191.732 157.222 191.527 157.222 191.284C157.222 191.032 157.306 190.822 157.474 190.654C157.651 190.486 157.87 190.402 158.132 190.402C158.393 190.402 158.608 190.486 158.776 190.654C158.953 190.813 159.042 191.013 159.042 191.256C159.042 191.508 158.958 191.723 158.79 191.9C158.622 192.068 158.402 192.152 158.132 192.152ZM164.674 201.084C163.88 201.084 163.18 200.921 162.574 200.594C161.976 200.267 161.51 199.819 161.174 199.25C160.847 198.681 160.684 198.027 160.684 197.29C160.684 196.553 160.842 195.899 161.16 195.33C161.486 194.761 161.93 194.317 162.49 194C163.059 193.673 163.698 193.51 164.408 193.51C165.126 193.51 165.761 193.669 166.312 193.986C166.862 194.303 167.292 194.751 167.6 195.33C167.917 195.899 168.076 196.567 168.076 197.332C168.076 197.388 168.071 197.453 168.062 197.528C168.062 197.603 168.057 197.673 168.048 197.738H161.734V196.772H167.348L166.802 197.108C166.811 196.632 166.713 196.207 166.508 195.834C166.302 195.461 166.018 195.171 165.654 194.966C165.299 194.751 164.884 194.644 164.408 194.644C163.941 194.644 163.526 194.751 163.162 194.966C162.798 195.171 162.513 195.465 162.308 195.848C162.102 196.221 162 196.651 162 197.136V197.36C162 197.855 162.112 198.298 162.336 198.69C162.569 199.073 162.891 199.371 163.302 199.586C163.712 199.801 164.184 199.908 164.716 199.908C165.154 199.908 165.551 199.833 165.906 199.684C166.27 199.535 166.587 199.311 166.858 199.012L167.6 199.88C167.264 200.272 166.844 200.571 166.34 200.776C165.845 200.981 165.29 201.084 164.674 201.084ZM172.07 201.084C171.454 201.084 170.866 201 170.306 200.832C169.755 200.664 169.321 200.459 169.004 200.216L169.564 199.152C169.881 199.367 170.273 199.549 170.74 199.698C171.207 199.847 171.683 199.922 172.168 199.922C172.793 199.922 173.241 199.833 173.512 199.656C173.792 199.479 173.932 199.231 173.932 198.914C173.932 198.681 173.848 198.499 173.68 198.368C173.512 198.237 173.288 198.139 173.008 198.074C172.737 198.009 172.434 197.953 172.098 197.906C171.762 197.85 171.426 197.785 171.09 197.71C170.754 197.626 170.446 197.514 170.166 197.374C169.886 197.225 169.662 197.024 169.494 196.772C169.326 196.511 169.242 196.165 169.242 195.736C169.242 195.288 169.368 194.896 169.62 194.56C169.872 194.224 170.227 193.967 170.684 193.79C171.151 193.603 171.701 193.51 172.336 193.51C172.821 193.51 173.311 193.571 173.806 193.692C174.31 193.804 174.721 193.967 175.038 194.182L174.464 195.246C174.128 195.022 173.778 194.868 173.414 194.784C173.05 194.7 172.686 194.658 172.322 194.658C171.734 194.658 171.295 194.756 171.006 194.952C170.717 195.139 170.572 195.381 170.572 195.68C170.572 195.932 170.656 196.128 170.824 196.268C171.001 196.399 171.225 196.501 171.496 196.576C171.776 196.651 172.084 196.716 172.42 196.772C172.756 196.819 173.092 196.884 173.428 196.968C173.764 197.043 174.067 197.15 174.338 197.29C174.618 197.43 174.842 197.626 175.01 197.878C175.187 198.13 175.276 198.466 175.276 198.886C175.276 199.334 175.145 199.721 174.884 200.048C174.623 200.375 174.254 200.631 173.778 200.818C173.302 200.995 172.733 201.084 172.07 201.084ZM176.424 203.072L177.124 200.244L177.306 201.056C177.035 201.056 176.806 200.972 176.62 200.804C176.442 200.636 176.354 200.407 176.354 200.118C176.354 199.838 176.442 199.609 176.62 199.432C176.806 199.255 177.03 199.166 177.292 199.166C177.562 199.166 177.782 199.259 177.95 199.446C178.118 199.623 178.202 199.847 178.202 200.118C178.202 200.211 178.192 200.305 178.174 200.398C178.164 200.482 178.141 200.585 178.104 200.706C178.076 200.818 178.029 200.958 177.964 201.126L177.306 203.072H176.424ZM187.121 201.084C186.365 201.084 185.689 200.921 185.091 200.594C184.503 200.267 184.041 199.819 183.705 199.25C183.369 198.681 183.201 198.027 183.201 197.29C183.201 196.553 183.369 195.899 183.705 195.33C184.041 194.761 184.503 194.317 185.091 194C185.689 193.673 186.365 193.51 187.121 193.51C187.793 193.51 188.391 193.645 188.913 193.916C189.445 194.177 189.856 194.569 190.145 195.092L189.123 195.75C188.881 195.386 188.582 195.12 188.227 194.952C187.882 194.775 187.509 194.686 187.107 194.686C186.622 194.686 186.188 194.793 185.805 195.008C185.423 195.223 185.119 195.526 184.895 195.918C184.671 196.301 184.559 196.758 184.559 197.29C184.559 197.822 184.671 198.284 184.895 198.676C185.119 199.068 185.423 199.371 185.805 199.586C186.188 199.801 186.622 199.908 187.107 199.908C187.509 199.908 187.882 199.824 188.227 199.656C188.582 199.479 188.881 199.208 189.123 198.844L190.145 199.488C189.856 200.001 189.445 200.398 188.913 200.678C188.391 200.949 187.793 201.084 187.121 201.084ZM195.007 201.084C194.373 201.084 193.813 200.967 193.327 200.734C192.851 200.501 192.478 200.146 192.207 199.67C191.946 199.185 191.815 198.578 191.815 197.85V193.58H193.159V197.696C193.159 198.424 193.332 198.97 193.677 199.334C194.032 199.698 194.527 199.88 195.161 199.88C195.628 199.88 196.034 199.787 196.379 199.6C196.725 199.404 196.991 199.124 197.177 198.76C197.364 198.387 197.457 197.939 197.457 197.416V193.58H198.801V201H197.527V198.998L197.737 199.53C197.495 200.025 197.131 200.407 196.645 200.678C196.16 200.949 195.614 201.084 195.007 201.084ZM201.36 201V190.612H202.704V201H201.36ZM208.01 201.084C207.263 201.084 206.684 200.883 206.274 200.482C205.863 200.081 205.658 199.507 205.658 198.76V191.956H207.002V198.704C207.002 199.105 207.1 199.413 207.296 199.628C207.501 199.843 207.79 199.95 208.164 199.95C208.584 199.95 208.934 199.833 209.214 199.6L209.634 200.566C209.428 200.743 209.181 200.874 208.892 200.958C208.612 201.042 208.318 201.084 208.01 201.084ZM204.398 194.686V193.58H209.13V194.686H204.398ZM214.38 201.084C213.746 201.084 213.186 200.967 212.7 200.734C212.224 200.501 211.851 200.146 211.58 199.67C211.319 199.185 211.188 198.578 211.188 197.85V193.58H212.532V197.696C212.532 198.424 212.705 198.97 213.05 199.334C213.405 199.698 213.9 199.88 214.534 199.88C215.001 199.88 215.407 199.787 215.752 199.6C216.098 199.404 216.364 199.124 216.55 198.76C216.737 198.387 216.83 197.939 216.83 197.416V193.58H218.174V201H216.9V198.998L217.11 199.53C216.868 200.025 216.504 200.407 216.018 200.678C215.533 200.949 214.987 201.084 214.38 201.084ZM220.733 201V193.58H222.021V195.596L221.895 195.092C222.1 194.579 222.446 194.187 222.931 193.916C223.416 193.645 224.014 193.51 224.723 193.51V194.812C224.667 194.803 224.611 194.798 224.555 194.798C224.508 194.798 224.462 194.798 224.415 194.798C223.696 194.798 223.127 195.013 222.707 195.442C222.287 195.871 222.077 196.492 222.077 197.304V201H220.733ZM230.439 201V199.432L230.369 199.138V196.464C230.369 195.895 230.201 195.456 229.865 195.148C229.538 194.831 229.043 194.672 228.381 194.672C227.942 194.672 227.513 194.747 227.093 194.896C226.673 195.036 226.318 195.227 226.029 195.47L225.469 194.462C225.851 194.154 226.309 193.921 226.841 193.762C227.382 193.594 227.947 193.51 228.535 193.51C229.552 193.51 230.336 193.757 230.887 194.252C231.437 194.747 231.713 195.503 231.713 196.52V201H230.439ZM228.003 201.084C227.452 201.084 226.967 200.991 226.547 200.804C226.136 200.617 225.819 200.361 225.595 200.034C225.371 199.698 225.259 199.32 225.259 198.9C225.259 198.499 225.352 198.135 225.539 197.808C225.735 197.481 226.047 197.22 226.477 197.024C226.915 196.828 227.503 196.73 228.241 196.73H230.593V197.696H228.297C227.625 197.696 227.172 197.808 226.939 198.032C226.705 198.256 226.589 198.527 226.589 198.844C226.589 199.208 226.733 199.502 227.023 199.726C227.312 199.941 227.713 200.048 228.227 200.048C228.731 200.048 229.169 199.936 229.543 199.712C229.925 199.488 230.201 199.161 230.369 198.732L230.635 199.656C230.457 200.095 230.145 200.445 229.697 200.706C229.249 200.958 228.684 201.084 228.003 201.084ZM234.2 201V190.612H235.544V201H234.2ZM38.9182 218.084C38.1622 218.084 37.4855 217.921 36.8882 217.594C36.3002 217.267 35.8382 216.819 35.5022 216.25C35.1662 215.681 34.9982 215.027 34.9982 214.29C34.9982 213.553 35.1662 212.899 35.5022 212.33C35.8382 211.761 36.3002 211.317 36.8882 211C37.4855 210.673 38.1622 210.51 38.9182 210.51C39.5902 210.51 40.1875 210.645 40.7102 210.916C41.2422 211.177 41.6528 211.569 41.9422 212.092L40.9202 212.75C40.6775 212.386 40.3788 212.12 40.0242 211.952C39.6788 211.775 39.3055 211.686 38.9042 211.686C38.4188 211.686 37.9848 211.793 37.6022 212.008C37.2195 212.223 36.9162 212.526 36.6922 212.918C36.4682 213.301 36.3562 213.758 36.3562 214.29C36.3562 214.822 36.4682 215.284 36.6922 215.676C36.9162 216.068 37.2195 216.371 37.6022 216.586C37.9848 216.801 38.4188 216.908 38.9042 216.908C39.3055 216.908 39.6788 216.824 40.0242 216.656C40.3788 216.479 40.6775 216.208 40.9202 215.844L41.9422 216.488C41.6528 217.001 41.2422 217.398 40.7102 217.678C40.1875 217.949 39.5902 218.084 38.9182 218.084ZM46.7508 218.084C46.0042 218.084 45.3415 217.921 44.7628 217.594C44.1842 217.267 43.7268 216.819 43.3908 216.25C43.0548 215.671 42.8868 215.018 42.8868 214.29C42.8868 213.553 43.0548 212.899 43.3908 212.33C43.7268 211.761 44.1842 211.317 44.7628 211C45.3415 210.673 46.0042 210.51 46.7508 210.51C47.4882 210.51 48.1462 210.673 48.7248 211C49.3128 211.317 49.7702 211.761 50.0968 212.33C50.4328 212.89 50.6008 213.543 50.6008 214.29C50.6008 215.027 50.4328 215.681 50.0968 216.25C49.7702 216.819 49.3128 217.267 48.7248 217.594C48.1462 217.921 47.4882 218.084 46.7508 218.084ZM46.7508 216.908C47.2268 216.908 47.6515 216.801 48.0248 216.586C48.4075 216.371 48.7062 216.068 48.9208 215.676C49.1355 215.275 49.2428 214.813 49.2428 214.29C49.2428 213.758 49.1355 213.301 48.9208 212.918C48.7062 212.526 48.4075 212.223 48.0248 212.008C47.6515 211.793 47.2268 211.686 46.7508 211.686C46.2748 211.686 45.8502 211.793 45.4768 212.008C45.1035 212.223 44.8048 212.526 44.5808 212.918C44.3568 213.301 44.2448 213.758 44.2448 214.29C44.2448 214.813 44.3568 215.275 44.5808 215.676C44.8048 216.068 45.1035 216.371 45.4768 216.586C45.8502 216.801 46.2748 216.908 46.7508 216.908ZM56.4215 210.51C57.0282 210.51 57.5602 210.627 58.0175 210.86C58.4842 211.093 58.8482 211.448 59.1095 211.924C59.3709 212.4 59.5015 213.002 59.5015 213.73V218H58.1575V213.884C58.1575 213.165 57.9802 212.624 57.6255 212.26C57.2802 211.896 56.7902 211.714 56.1555 211.714C55.6795 211.714 55.2642 211.807 54.9095 211.994C54.5549 212.181 54.2795 212.456 54.0835 212.82C53.8969 213.184 53.8035 213.637 53.8035 214.178V218H52.4595V210.58H53.7475V212.582L53.5375 212.05C53.7802 211.565 54.1535 211.187 54.6575 210.916C55.1615 210.645 55.7495 210.51 56.4215 210.51ZM64.5368 218.084C63.7902 218.084 63.2115 217.883 62.8008 217.482C62.3902 217.081 62.1848 216.507 62.1848 215.76V208.956H63.5288V215.704C63.5288 216.105 63.6268 216.413 63.8228 216.628C64.0282 216.843 64.3175 216.95 64.6908 216.95C65.1108 216.95 65.4608 216.833 65.7408 216.6L66.1608 217.566C65.9555 217.743 65.7082 217.874 65.4188 217.958C65.1388 218.042 64.8448 218.084 64.5368 218.084ZM60.9248 211.686V210.58H65.6568V211.686H60.9248ZM70.8436 218.084C70.0503 218.084 69.3503 217.921 68.7436 217.594C68.1463 217.267 67.6796 216.819 67.3436 216.25C67.017 215.681 66.8536 215.027 66.8536 214.29C66.8536 213.553 67.0123 212.899 67.3296 212.33C67.6563 211.761 68.0996 211.317 68.6596 211C69.229 210.673 69.8683 210.51 70.5776 210.51C71.2963 210.51 71.931 210.669 72.4816 210.986C73.0323 211.303 73.4616 211.751 73.7696 212.33C74.087 212.899 74.2456 213.567 74.2456 214.332C74.2456 214.388 74.241 214.453 74.2316 214.528C74.2316 214.603 74.227 214.673 74.2176 214.738H67.9036V213.772H73.5176L72.9716 214.108C72.981 213.632 72.883 213.207 72.6776 212.834C72.4723 212.461 72.1876 212.171 71.8236 211.966C71.469 211.751 71.0536 211.644 70.5776 211.644C70.111 211.644 69.6956 211.751 69.3316 211.966C68.9676 212.171 68.683 212.465 68.4776 212.848C68.2723 213.221 68.1696 213.651 68.1696 214.136V214.36C68.1696 214.855 68.2816 215.298 68.5056 215.69C68.739 216.073 69.061 216.371 69.4716 216.586C69.8823 216.801 70.3536 216.908 70.8856 216.908C71.3243 216.908 71.721 216.833 72.0756 216.684C72.4396 216.535 72.757 216.311 73.0276 216.012L73.7696 216.88C73.4336 217.272 73.0136 217.571 72.5096 217.776C72.015 217.981 71.4596 218.084 70.8436 218.084ZM74.8288 218L78.0208 213.856L78.0068 214.542L74.9688 210.58H76.4668L78.7908 213.632H78.2168L80.5408 210.58H82.0108L78.9308 214.57L78.9448 213.856L82.1648 218H80.6388L78.1888 214.752L78.7348 214.836L76.3268 218H74.8288ZM86.1794 218.084C85.4328 218.084 84.8541 217.883 84.4434 217.482C84.0328 217.081 83.8274 216.507 83.8274 215.76V208.956H85.1714V215.704C85.1714 216.105 85.2694 216.413 85.4654 216.628C85.6708 216.843 85.9601 216.95 86.3334 216.95C86.7534 216.95 87.1034 216.833 87.3834 216.6L87.8034 217.566C87.5981 217.743 87.3508 217.874 87.0614 217.958C86.7814 218.042 86.4874 218.084 86.1794 218.084ZM82.5674 211.686V210.58H87.2994V211.686H82.5674ZM89.033 220.072L89.733 217.244L89.915 218.056C89.6443 218.056 89.4157 217.972 89.229 217.804C89.0517 217.636 88.963 217.407 88.963 217.118C88.963 216.838 89.0517 216.609 89.229 216.432C89.4157 216.255 89.6397 216.166 89.901 216.166C90.1717 216.166 90.391 216.259 90.559 216.446C90.727 216.623 90.811 216.847 90.811 217.118C90.811 217.211 90.8017 217.305 90.783 217.398C90.7737 217.482 90.7503 217.585 90.713 217.706C90.685 217.818 90.6383 217.958 90.573 218.126L89.915 220.072H89.033ZM101.103 218V216.432L101.033 216.138V213.464C101.033 212.895 100.865 212.456 100.529 212.148C100.202 211.831 99.7073 211.672 99.0447 211.672C98.606 211.672 98.1767 211.747 97.7567 211.896C97.3367 212.036 96.982 212.227 96.6927 212.47L96.1327 211.462C96.5153 211.154 96.9727 210.921 97.5047 210.762C98.046 210.594 98.6107 210.51 99.1987 210.51C100.216 210.51 101 210.757 101.551 211.252C102.101 211.747 102.377 212.503 102.377 213.52V218H101.103ZM98.6667 218.084C98.116 218.084 97.6307 217.991 97.2107 217.804C96.8 217.617 96.4827 217.361 96.2587 217.034C96.0347 216.698 95.9227 216.32 95.9227 215.9C95.9227 215.499 96.016 215.135 96.2027 214.808C96.3987 214.481 96.7113 214.22 97.1407 214.024C97.5793 213.828 98.1673 213.73 98.9047 213.73H101.257V214.696H98.9607C98.2887 214.696 97.836 214.808 97.6027 215.032C97.3693 215.256 97.2527 215.527 97.2527 215.844C97.2527 216.208 97.3973 216.502 97.6867 216.726C97.976 216.941 98.3773 217.048 98.8907 217.048C99.3947 217.048 99.8333 216.936 100.207 216.712C100.589 216.488 100.865 216.161 101.033 215.732L101.299 216.656C101.121 217.095 100.809 217.445 100.361 217.706C99.9127 217.958 99.348 218.084 98.6667 218.084ZM108.826 210.51C109.433 210.51 109.965 210.627 110.422 210.86C110.889 211.093 111.253 211.448 111.514 211.924C111.775 212.4 111.906 213.002 111.906 213.73V218H110.562V213.884C110.562 213.165 110.385 212.624 110.03 212.26C109.685 211.896 109.195 211.714 108.56 211.714C108.084 211.714 107.669 211.807 107.314 211.994C106.959 212.181 106.684 212.456 106.488 212.82C106.301 213.184 106.208 213.637 106.208 214.178V218H104.864V210.58H106.152V212.582L105.942 212.05C106.185 211.565 106.558 211.187 107.062 210.916C107.566 210.645 108.154 210.51 108.826 210.51ZM117.459 218.084C116.74 218.084 116.096 217.925 115.527 217.608C114.967 217.291 114.524 216.847 114.197 216.278C113.87 215.709 113.707 215.046 113.707 214.29C113.707 213.534 113.87 212.876 114.197 212.316C114.524 211.747 114.967 211.303 115.527 210.986C116.096 210.669 116.74 210.51 117.459 210.51C118.084 210.51 118.649 210.65 119.153 210.93C119.657 211.21 120.058 211.63 120.357 212.19C120.665 212.75 120.819 213.45 120.819 214.29C120.819 215.13 120.67 215.83 120.371 216.39C120.082 216.95 119.685 217.375 119.181 217.664C118.677 217.944 118.103 218.084 117.459 218.084ZM117.571 216.908C118.038 216.908 118.458 216.801 118.831 216.586C119.214 216.371 119.512 216.068 119.727 215.676C119.951 215.275 120.063 214.813 120.063 214.29C120.063 213.758 119.951 213.301 119.727 212.918C119.512 212.526 119.214 212.223 118.831 212.008C118.458 211.793 118.038 211.686 117.571 211.686C117.095 211.686 116.67 211.793 116.297 212.008C115.924 212.223 115.625 212.526 115.401 212.918C115.177 213.301 115.065 213.758 115.065 214.29C115.065 214.813 115.177 215.275 115.401 215.676C115.625 216.068 115.924 216.371 116.297 216.586C116.67 216.801 117.095 216.908 117.571 216.908ZM120.105 218V215.998L120.189 214.276L120.049 212.554V207.612H121.393V218H120.105ZM131.658 210.51C132.265 210.51 132.797 210.627 133.254 210.86C133.721 211.093 134.085 211.448 134.346 211.924C134.607 212.4 134.738 213.002 134.738 213.73V218H133.394V213.884C133.394 213.165 133.217 212.624 132.862 212.26C132.517 211.896 132.027 211.714 131.392 211.714C130.916 211.714 130.501 211.807 130.146 211.994C129.791 212.181 129.516 212.456 129.32 212.82C129.133 213.184 129.04 213.637 129.04 214.178V218H127.696V207.612H129.04V212.582L128.774 212.05C129.017 211.565 129.39 211.187 129.894 210.916C130.398 210.645 130.986 210.51 131.658 210.51ZM137.225 218V210.58H138.569V218H137.225ZM137.897 209.152C137.636 209.152 137.417 209.068 137.239 208.9C137.071 208.732 136.987 208.527 136.987 208.284C136.987 208.032 137.071 207.822 137.239 207.654C137.417 207.486 137.636 207.402 137.897 207.402C138.159 207.402 138.373 207.486 138.541 207.654C138.719 207.813 138.807 208.013 138.807 208.256C138.807 208.508 138.723 208.723 138.555 208.9C138.387 209.068 138.168 209.152 137.897 209.152ZM144.201 218.084C143.483 218.084 142.839 217.925 142.269 217.608C141.709 217.291 141.266 216.847 140.939 216.278C140.613 215.709 140.449 215.046 140.449 214.29C140.449 213.534 140.613 212.876 140.939 212.316C141.266 211.747 141.709 211.303 142.269 210.986C142.839 210.669 143.483 210.51 144.201 210.51C144.827 210.51 145.391 210.65 145.895 210.93C146.399 211.21 146.801 211.63 147.099 212.19C147.407 212.75 147.561 213.45 147.561 214.29C147.561 215.13 147.412 215.83 147.113 216.39C146.824 216.95 146.427 217.375 145.923 217.664C145.419 217.944 144.845 218.084 144.201 218.084ZM144.313 216.908C144.78 216.908 145.2 216.801 145.573 216.586C145.956 216.371 146.255 216.068 146.469 215.676C146.693 215.275 146.805 214.813 146.805 214.29C146.805 213.758 146.693 213.301 146.469 212.918C146.255 212.526 145.956 212.223 145.573 212.008C145.2 211.793 144.78 211.686 144.313 211.686C143.837 211.686 143.413 211.793 143.039 212.008C142.666 212.223 142.367 212.526 142.143 212.918C141.919 213.301 141.807 213.758 141.807 214.29C141.807 214.813 141.919 215.275 142.143 215.676C142.367 216.068 142.666 216.371 143.039 216.586C143.413 216.801 143.837 216.908 144.313 216.908ZM146.847 218V215.998L146.931 214.276L146.791 212.554V207.612H148.135V218H146.847ZM153.744 218.084C153.026 218.084 152.382 217.925 151.812 217.608C151.252 217.291 150.809 216.847 150.482 216.278C150.156 215.709 149.992 215.046 149.992 214.29C149.992 213.534 150.156 212.876 150.482 212.316C150.809 211.747 151.252 211.303 151.812 210.986C152.382 210.669 153.026 210.51 153.744 210.51C154.37 210.51 154.934 210.65 155.438 210.93C155.942 211.21 156.344 211.63 156.642 212.19C156.95 212.75 157.104 213.45 157.104 214.29C157.104 215.13 156.955 215.83 156.656 216.39C156.367 216.95 155.97 217.375 155.466 217.664C154.962 217.944 154.388 218.084 153.744 218.084ZM153.856 216.908C154.323 216.908 154.743 216.801 155.116 216.586C155.499 216.371 155.798 216.068 156.012 215.676C156.236 215.275 156.348 214.813 156.348 214.29C156.348 213.758 156.236 213.301 156.012 212.918C155.798 212.526 155.499 212.223 155.116 212.008C154.743 211.793 154.323 211.686 153.856 211.686C153.38 211.686 152.956 211.793 152.582 212.008C152.209 212.223 151.91 212.526 151.686 212.918C151.462 213.301 151.35 213.758 151.35 214.29C151.35 214.813 151.462 215.275 151.686 215.676C151.91 216.068 152.209 216.371 152.582 216.586C152.956 216.801 153.38 216.908 153.856 216.908ZM156.39 218V215.998L156.474 214.276L156.334 212.554V207.612H157.678V218H156.39ZM163.525 218.084C162.732 218.084 162.032 217.921 161.425 217.594C160.828 217.267 160.361 216.819 160.025 216.25C159.699 215.681 159.535 215.027 159.535 214.29C159.535 213.553 159.694 212.899 160.011 212.33C160.338 211.761 160.781 211.317 161.341 211C161.911 210.673 162.55 210.51 163.259 210.51C163.978 210.51 164.613 210.669 165.163 210.986C165.714 211.303 166.143 211.751 166.451 212.33C166.769 212.899 166.927 213.567 166.927 214.332C166.927 214.388 166.923 214.453 166.913 214.528C166.913 214.603 166.909 214.673 166.899 214.738H160.585V213.772H166.199L165.653 214.108C165.663 213.632 165.565 213.207 165.359 212.834C165.154 212.461 164.869 212.171 164.505 211.966C164.151 211.751 163.735 211.644 163.259 211.644C162.793 211.644 162.377 211.751 162.013 211.966C161.649 212.171 161.365 212.465 161.159 212.848C160.954 213.221 160.851 213.651 160.851 214.136V214.36C160.851 214.855 160.963 215.298 161.187 215.69C161.421 216.073 161.743 216.371 162.153 216.586C162.564 216.801 163.035 216.908 163.567 216.908C164.006 216.908 164.403 216.833 164.757 216.684C165.121 216.535 165.439 216.311 165.709 216.012L166.451 216.88C166.115 217.272 165.695 217.571 165.191 217.776C164.697 217.981 164.141 218.084 163.525 218.084ZM172.756 210.51C173.362 210.51 173.894 210.627 174.352 210.86C174.818 211.093 175.182 211.448 175.444 211.924C175.705 212.4 175.836 213.002 175.836 213.73V218H174.492V213.884C174.492 213.165 174.314 212.624 173.96 212.26C173.614 211.896 173.124 211.714 172.49 211.714C172.014 211.714 171.598 211.807 171.244 211.994C170.889 212.181 170.614 212.456 170.418 212.82C170.231 213.184 170.138 213.637 170.138 214.178V218H168.794V210.58H170.082V212.582L169.872 212.05C170.114 211.565 170.488 211.187 170.992 210.916C171.496 210.645 172.084 210.51 172.756 210.51ZM185.331 220.8C184.649 220.8 183.987 220.702 183.343 220.506C182.708 220.319 182.19 220.049 181.789 219.694L182.433 218.658C182.778 218.957 183.203 219.19 183.707 219.358C184.211 219.535 184.738 219.624 185.289 219.624C186.166 219.624 186.81 219.419 187.221 219.008C187.631 218.597 187.837 217.972 187.837 217.132V215.564L187.977 214.094L187.907 212.61V210.58H189.181V216.992C189.181 218.299 188.854 219.26 188.201 219.876C187.547 220.492 186.591 220.8 185.331 220.8ZM185.163 217.692C184.444 217.692 183.8 217.543 183.231 217.244C182.671 216.936 182.223 216.511 181.887 215.97C181.56 215.429 181.397 214.803 181.397 214.094C181.397 213.375 181.56 212.75 181.887 212.218C182.223 211.677 182.671 211.257 183.231 210.958C183.8 210.659 184.444 210.51 185.163 210.51C185.797 210.51 186.376 210.641 186.899 210.902C187.421 211.154 187.837 211.546 188.145 212.078C188.462 212.61 188.621 213.282 188.621 214.094C188.621 214.897 188.462 215.564 188.145 216.096C187.837 216.628 187.421 217.029 186.899 217.3C186.376 217.561 185.797 217.692 185.163 217.692ZM185.317 216.516C185.811 216.516 186.25 216.413 186.633 216.208C187.015 216.003 187.314 215.718 187.529 215.354C187.753 214.99 187.865 214.57 187.865 214.094C187.865 213.618 187.753 213.198 187.529 212.834C187.314 212.47 187.015 212.19 186.633 211.994C186.25 211.789 185.811 211.686 185.317 211.686C184.822 211.686 184.379 211.789 183.987 211.994C183.604 212.19 183.301 212.47 183.077 212.834C182.862 213.198 182.755 213.618 182.755 214.094C182.755 214.57 182.862 214.99 183.077 215.354C183.301 215.718 183.604 216.003 183.987 216.208C184.379 216.413 184.822 216.516 185.317 216.516ZM195.053 218.084C194.259 218.084 193.559 217.921 192.953 217.594C192.355 217.267 191.889 216.819 191.553 216.25C191.226 215.681 191.063 215.027 191.063 214.29C191.063 213.553 191.221 212.899 191.539 212.33C191.865 211.761 192.309 211.317 192.869 211C193.438 210.673 194.077 210.51 194.787 210.51C195.505 210.51 196.14 210.669 196.691 210.986C197.241 211.303 197.671 211.751 197.979 212.33C198.296 212.899 198.455 213.567 198.455 214.332C198.455 214.388 198.45 214.453 198.441 214.528C198.441 214.603 198.436 214.673 198.427 214.738H192.113V213.772H197.727L197.181 214.108C197.19 213.632 197.092 213.207 196.887 212.834C196.681 212.461 196.397 212.171 196.033 211.966C195.678 211.751 195.263 211.644 194.787 211.644C194.32 211.644 193.905 211.751 193.541 211.966C193.177 212.171 192.892 212.465 192.687 212.848C192.481 213.221 192.379 213.651 192.379 214.136V214.36C192.379 214.855 192.491 215.298 192.715 215.69C192.948 216.073 193.27 216.371 193.681 216.586C194.091 216.801 194.563 216.908 195.095 216.908C195.533 216.908 195.93 216.833 196.285 216.684C196.649 216.535 196.966 216.311 197.237 216.012L197.979 216.88C197.643 217.272 197.223 217.571 196.719 217.776C196.224 217.981 195.669 218.084 195.053 218.084ZM209.603 210.51C210.2 210.51 210.728 210.627 211.185 210.86C211.642 211.093 211.997 211.448 212.249 211.924C212.51 212.4 212.641 213.002 212.641 213.73V218H211.297V213.884C211.297 213.165 211.129 212.624 210.793 212.26C210.457 211.896 209.986 211.714 209.379 211.714C208.931 211.714 208.539 211.807 208.203 211.994C207.867 212.181 207.606 212.456 207.419 212.82C207.242 213.184 207.153 213.637 207.153 214.178V218H205.809V213.884C205.809 213.165 205.641 212.624 205.305 212.26C204.978 211.896 204.507 211.714 203.891 211.714C203.452 211.714 203.065 211.807 202.729 211.994C202.393 212.181 202.132 212.456 201.945 212.82C201.758 213.184 201.665 213.637 201.665 214.178V218H200.321V210.58H201.609V212.554L201.399 212.05C201.632 211.565 201.992 211.187 202.477 210.916C202.962 210.645 203.527 210.51 204.171 210.51C204.88 210.51 205.492 210.687 206.005 211.042C206.518 211.387 206.854 211.915 207.013 212.624L206.467 212.4C206.691 211.831 207.083 211.373 207.643 211.028C208.203 210.683 208.856 210.51 209.603 210.51ZM217.242 218.084C216.626 218.084 216.038 218 215.478 217.832C214.927 217.664 214.493 217.459 214.176 217.216L214.736 216.152C215.053 216.367 215.445 216.549 215.912 216.698C216.379 216.847 216.855 216.922 217.34 216.922C217.965 216.922 218.413 216.833 218.684 216.656C218.964 216.479 219.104 216.231 219.104 215.914C219.104 215.681 219.02 215.499 218.852 215.368C218.684 215.237 218.46 215.139 218.18 215.074C217.909 215.009 217.606 214.953 217.27 214.906C216.934 214.85 216.598 214.785 216.262 214.71C215.926 214.626 215.618 214.514 215.338 214.374C215.058 214.225 214.834 214.024 214.666 213.772C214.498 213.511 214.414 213.165 214.414 212.736C214.414 212.288 214.54 211.896 214.792 211.56C215.044 211.224 215.399 210.967 215.856 210.79C216.323 210.603 216.873 210.51 217.508 210.51C217.993 210.51 218.483 210.571 218.978 210.692C219.482 210.804 219.893 210.967 220.21 211.182L219.636 212.246C219.3 212.022 218.95 211.868 218.586 211.784C218.222 211.7 217.858 211.658 217.494 211.658C216.906 211.658 216.467 211.756 216.178 211.952C215.889 212.139 215.744 212.381 215.744 212.68C215.744 212.932 215.828 213.128 215.996 213.268C216.173 213.399 216.397 213.501 216.668 213.576C216.948 213.651 217.256 213.716 217.592 213.772C217.928 213.819 218.264 213.884 218.6 213.968C218.936 214.043 219.239 214.15 219.51 214.29C219.79 214.43 220.014 214.626 220.182 214.878C220.359 215.13 220.448 215.466 220.448 215.886C220.448 216.334 220.317 216.721 220.056 217.048C219.795 217.375 219.426 217.631 218.95 217.818C218.474 217.995 217.905 218.084 217.242 218.084ZM226.209 220.8C225.855 220.8 225.509 220.739 225.173 220.618C224.837 220.506 224.548 220.338 224.305 220.114L224.879 219.106C225.066 219.283 225.271 219.419 225.495 219.512C225.719 219.605 225.957 219.652 226.209 219.652C226.536 219.652 226.807 219.568 227.021 219.4C227.236 219.232 227.437 218.933 227.623 218.504L228.085 217.482L228.225 217.314L231.137 210.58H232.453L228.855 218.742C228.641 219.265 228.398 219.675 228.127 219.974C227.866 220.273 227.577 220.483 227.259 220.604C226.942 220.735 226.592 220.8 226.209 220.8ZM227.973 218.238L224.585 210.58H225.985L228.869 217.188L227.973 218.238ZM236.681 218.084C235.934 218.084 235.271 217.921 234.693 217.594C234.114 217.267 233.657 216.819 233.321 216.25C232.985 215.671 232.817 215.018 232.817 214.29C232.817 213.553 232.985 212.899 233.321 212.33C233.657 211.761 234.114 211.317 234.693 211C235.271 210.673 235.934 210.51 236.681 210.51C237.418 210.51 238.076 210.673 238.655 211C239.243 211.317 239.7 211.761 240.027 212.33C240.363 212.89 240.531 213.543 240.531 214.29C240.531 215.027 240.363 215.681 240.027 216.25C239.7 216.819 239.243 217.267 238.655 217.594C238.076 217.921 237.418 218.084 236.681 218.084ZM236.681 216.908C237.157 216.908 237.581 216.801 237.955 216.586C238.337 216.371 238.636 216.068 238.851 215.676C239.065 215.275 239.173 214.813 239.173 214.29C239.173 213.758 239.065 213.301 238.851 212.918C238.636 212.526 238.337 212.223 237.955 212.008C237.581 211.793 237.157 211.686 236.681 211.686C236.205 211.686 235.78 211.793 235.407 212.008C235.033 212.223 234.735 212.526 234.511 212.918C234.287 213.301 234.175 213.758 234.175 214.29C234.175 214.813 234.287 215.275 234.511 215.676C234.735 216.068 235.033 216.371 235.407 216.586C235.78 216.801 236.205 216.908 236.681 216.908ZM245.511 218.084C244.877 218.084 244.317 217.967 243.831 217.734C243.355 217.501 242.982 217.146 242.711 216.67C242.45 216.185 242.319 215.578 242.319 214.85V210.58H243.663V214.696C243.663 215.424 243.836 215.97 244.181 216.334C244.536 216.698 245.031 216.88 245.665 216.88C246.132 216.88 246.538 216.787 246.883 216.6C247.229 216.404 247.495 216.124 247.681 215.76C247.868 215.387 247.961 214.939 247.961 214.416V210.58H249.305V218H248.031V215.998L248.241 216.53C247.999 217.025 247.635 217.407 247.149 217.678C246.664 217.949 246.118 218.084 245.511 218.084ZM45.9611 235L43.2031 227.58H44.4771L46.9271 234.3H46.3251L48.8731 227.58H50.0071L52.4991 234.3H51.9111L54.4171 227.58H55.6211L52.8491 235H51.5611L49.2231 228.868H49.6151L47.2491 235H45.9611ZM59.9579 235.084C59.2112 235.084 58.5485 234.921 57.9699 234.594C57.3912 234.267 56.9339 233.819 56.5979 233.25C56.2619 232.671 56.0939 232.018 56.0939 231.29C56.0939 230.553 56.2619 229.899 56.5979 229.33C56.9339 228.761 57.3912 228.317 57.9699 228C58.5485 227.673 59.2112 227.51 59.9579 227.51C60.6952 227.51 61.3532 227.673 61.9319 228C62.5199 228.317 62.9772 228.761 63.3039 229.33C63.6399 229.89 63.8079 230.543 63.8079 231.29C63.8079 232.027 63.6399 232.681 63.3039 233.25C62.9772 233.819 62.5199 234.267 61.9319 234.594C61.3532 234.921 60.6952 235.084 59.9579 235.084ZM59.9579 233.908C60.4339 233.908 60.8585 233.801 61.2319 233.586C61.6145 233.371 61.9132 233.068 62.1279 232.676C62.3425 232.275 62.4499 231.813 62.4499 231.29C62.4499 230.758 62.3425 230.301 62.1279 229.918C61.9132 229.526 61.6145 229.223 61.2319 229.008C60.8585 228.793 60.4339 228.686 59.9579 228.686C59.4819 228.686 59.0572 228.793 58.6839 229.008C58.3105 229.223 58.0119 229.526 57.7879 229.918C57.5639 230.301 57.4519 230.758 57.4519 231.29C57.4519 231.813 57.5639 232.275 57.7879 232.676C58.0119 233.068 58.3105 233.371 58.6839 233.586C59.0572 233.801 59.4819 233.908 59.9579 233.908ZM69.6286 227.51C70.2352 227.51 70.7672 227.627 71.2246 227.86C71.6912 228.093 72.0552 228.448 72.3166 228.924C72.5779 229.4 72.7086 230.002 72.7086 230.73V235H71.3646V230.884C71.3646 230.165 71.1872 229.624 70.8326 229.26C70.4872 228.896 69.9972 228.714 69.3626 228.714C68.8866 228.714 68.4712 228.807 68.1166 228.994C67.7619 229.181 67.4866 229.456 67.2906 229.82C67.1039 230.184 67.0106 230.637 67.0106 231.178V235H65.6666V227.58H66.9546V229.582L66.7446 229.05C66.9872 228.565 67.3606 228.187 67.8646 227.916C68.3686 227.645 68.9566 227.51 69.6286 227.51ZM74.5682 228.434L75.2682 225.592L75.4502 226.404C75.1795 226.404 74.9508 226.32 74.7642 226.152C74.5868 225.984 74.4982 225.76 74.4982 225.48C74.4982 225.191 74.5868 224.962 74.7642 224.794C74.9508 224.617 75.1748 224.528 75.4362 224.528C75.7068 224.528 75.9262 224.621 76.0942 224.808C76.2622 224.985 76.3462 225.209 76.3462 225.48C76.3462 225.564 76.3415 225.653 76.3322 225.746C76.3228 225.83 76.2995 225.928 76.2622 226.04C76.2342 226.152 76.1875 226.297 76.1222 226.474L75.4502 228.434H74.5682ZM80.82 235.084C80.0734 235.084 79.4947 234.883 79.084 234.482C78.6734 234.081 78.468 233.507 78.468 232.76V225.956H79.812V232.704C79.812 233.105 79.91 233.413 80.106 233.628C80.3114 233.843 80.6007 233.95 80.974 233.95C81.394 233.95 81.744 233.833 82.024 233.6L82.444 234.566C82.2387 234.743 81.9914 234.874 81.702 234.958C81.422 235.042 81.128 235.084 80.82 235.084ZM77.208 228.686V227.58H81.94V228.686H77.208ZM88.0247 235V226.922C88.0247 226.194 88.2347 225.615 88.6547 225.186C89.084 224.747 89.6907 224.528 90.4747 224.528C90.764 224.528 91.0394 224.565 91.3007 224.64C91.5714 224.705 91.8 224.813 91.9867 224.962L91.5807 225.984C91.4407 225.872 91.282 225.788 91.1047 225.732C90.9274 225.667 90.7407 225.634 90.5447 225.634C90.1527 225.634 89.854 225.746 89.6487 225.97C89.4434 226.185 89.3407 226.507 89.3407 226.936V227.93L89.3687 228.546V235H88.0247ZM86.7647 228.686V227.58H91.4967V228.686H86.7647ZM92.7707 235V227.58H94.1147V235H92.7707ZM93.4427 226.152C93.1814 226.152 92.962 226.068 92.7847 225.9C92.6167 225.732 92.5327 225.527 92.5327 225.284C92.5327 225.032 92.6167 224.822 92.7847 224.654C92.962 224.486 93.1814 224.402 93.4427 224.402C93.704 224.402 93.9187 224.486 94.0867 224.654C94.264 224.813 94.3527 225.013 94.3527 225.256C94.3527 225.508 94.2687 225.723 94.1007 225.9C93.9327 226.068 93.7134 226.152 93.4427 226.152ZM100.636 227.51C101.243 227.51 101.775 227.627 102.232 227.86C102.699 228.093 103.063 228.448 103.324 228.924C103.586 229.4 103.716 230.002 103.716 230.73V235H102.372V230.884C102.372 230.165 102.195 229.624 101.84 229.26C101.495 228.896 101.005 228.714 100.37 228.714C99.8944 228.714 99.4791 228.807 99.1244 228.994C98.7697 229.181 98.4944 229.456 98.2984 229.82C98.1117 230.184 98.0184 230.637 98.0184 231.178V235H96.6744V227.58H97.9624V229.582L97.7524 229.05C97.9951 228.565 98.3684 228.187 98.8724 227.916C99.3764 227.645 99.9644 227.51 100.636 227.51ZM109.27 235.084C108.551 235.084 107.907 234.925 107.338 234.608C106.778 234.291 106.334 233.847 106.008 233.278C105.681 232.709 105.518 232.046 105.518 231.29C105.518 230.534 105.681 229.876 106.008 229.316C106.334 228.747 106.778 228.303 107.338 227.986C107.907 227.669 108.551 227.51 109.27 227.51C109.895 227.51 110.46 227.65 110.964 227.93C111.468 228.21 111.869 228.63 112.168 229.19C112.476 229.75 112.63 230.45 112.63 231.29C112.63 232.13 112.48 232.83 112.182 233.39C111.892 233.95 111.496 234.375 110.992 234.664C110.488 234.944 109.914 235.084 109.27 235.084ZM109.382 233.908C109.848 233.908 110.268 233.801 110.642 233.586C111.024 233.371 111.323 233.068 111.538 232.676C111.762 232.275 111.874 231.813 111.874 231.29C111.874 230.758 111.762 230.301 111.538 229.918C111.323 229.526 111.024 229.223 110.642 229.008C110.268 228.793 109.848 228.686 109.382 228.686C108.906 228.686 108.481 228.793 108.108 229.008C107.734 229.223 107.436 229.526 107.212 229.918C106.988 230.301 106.876 230.758 106.876 231.29C106.876 231.813 106.988 232.275 107.212 232.676C107.436 233.068 107.734 233.371 108.108 233.586C108.481 233.801 108.906 233.908 109.382 233.908ZM111.916 235V232.998L112 231.276L111.86 229.554V224.612H113.204V235H111.916ZM119.506 235V227.58H120.85V235H119.506ZM120.178 226.152C119.917 226.152 119.698 226.068 119.52 225.9C119.352 225.732 119.268 225.527 119.268 225.284C119.268 225.032 119.352 224.822 119.52 224.654C119.698 224.486 119.917 224.402 120.178 224.402C120.44 224.402 120.654 224.486 120.822 224.654C121 224.813 121.088 225.013 121.088 225.256C121.088 225.508 121.004 225.723 120.836 225.9C120.668 226.068 120.449 226.152 120.178 226.152ZM127.379 227.51C127.985 227.51 128.517 227.627 128.975 227.86C129.441 228.093 129.805 228.448 130.067 228.924C130.328 229.4 130.459 230.002 130.459 230.73V235H129.115V230.884C129.115 230.165 128.937 229.624 128.583 229.26C128.237 228.896 127.747 228.714 127.113 228.714C126.637 228.714 126.221 228.807 125.867 228.994C125.512 229.181 125.237 229.456 125.041 229.82C124.854 230.184 124.761 230.637 124.761 231.178V235H123.417V227.58H124.705V229.582L124.495 229.05C124.737 228.565 125.111 228.187 125.615 227.916C126.119 227.645 126.707 227.51 127.379 227.51ZM141.312 235V233.432L141.242 233.138V230.464C141.242 229.895 141.074 229.456 140.738 229.148C140.411 228.831 139.916 228.672 139.254 228.672C138.815 228.672 138.386 228.747 137.966 228.896C137.546 229.036 137.191 229.227 136.902 229.47L136.342 228.462C136.724 228.154 137.182 227.921 137.714 227.762C138.255 227.594 138.82 227.51 139.408 227.51C140.425 227.51 141.209 227.757 141.76 228.252C142.31 228.747 142.586 229.503 142.586 230.52V235H141.312ZM138.876 235.084C138.325 235.084 137.84 234.991 137.42 234.804C137.009 234.617 136.692 234.361 136.468 234.034C136.244 233.698 136.132 233.32 136.132 232.9C136.132 232.499 136.225 232.135 136.412 231.808C136.608 231.481 136.92 231.22 137.35 231.024C137.788 230.828 138.376 230.73 139.114 230.73H141.466V231.696H139.17C138.498 231.696 138.045 231.808 137.812 232.032C137.578 232.256 137.462 232.527 137.462 232.844C137.462 233.208 137.606 233.502 137.896 233.726C138.185 233.941 138.586 234.048 139.1 234.048C139.604 234.048 140.042 233.936 140.416 233.712C140.798 233.488 141.074 233.161 141.242 232.732L141.508 233.656C141.33 234.095 141.018 234.445 140.57 234.706C140.122 234.958 139.557 235.084 138.876 235.084ZM149.035 227.51C149.641 227.51 150.173 227.627 150.631 227.86C151.097 228.093 151.461 228.448 151.723 228.924C151.984 229.4 152.115 230.002 152.115 230.73V235H150.771V230.884C150.771 230.165 150.593 229.624 150.239 229.26C149.893 228.896 149.403 228.714 148.769 228.714C148.293 228.714 147.877 228.807 147.523 228.994C147.168 229.181 146.893 229.456 146.697 229.82C146.51 230.184 146.417 230.637 146.417 231.178V235H145.073V227.58H146.361V229.582L146.151 229.05C146.393 228.565 146.767 228.187 147.271 227.916C147.775 227.645 148.363 227.51 149.035 227.51ZM154.787 237.8C154.433 237.8 154.087 237.739 153.751 237.618C153.415 237.506 153.126 237.338 152.883 237.114L153.457 236.106C153.644 236.283 153.849 236.419 154.073 236.512C154.297 236.605 154.535 236.652 154.787 236.652C155.114 236.652 155.385 236.568 155.599 236.4C155.814 236.232 156.015 235.933 156.201 235.504L156.663 234.482L156.803 234.314L159.715 227.58H161.031L157.433 235.742C157.219 236.265 156.976 236.675 156.705 236.974C156.444 237.273 156.155 237.483 155.837 237.604C155.52 237.735 155.17 237.8 154.787 237.8ZM156.551 235.238L153.163 227.58H154.563L157.447 234.188L156.551 235.238ZM169.293 237.8C168.612 237.8 167.949 237.702 167.305 237.506C166.671 237.319 166.153 237.049 165.751 236.694L166.395 235.658C166.741 235.957 167.165 236.19 167.669 236.358C168.173 236.535 168.701 236.624 169.251 236.624C170.129 236.624 170.773 236.419 171.183 236.008C171.594 235.597 171.799 234.972 171.799 234.132V232.564L171.939 231.094L171.869 229.61V227.58H173.143V233.992C173.143 235.299 172.817 236.26 172.163 236.876C171.51 237.492 170.553 237.8 169.293 237.8ZM169.125 234.692C168.407 234.692 167.763 234.543 167.193 234.244C166.633 233.936 166.185 233.511 165.849 232.97C165.523 232.429 165.359 231.803 165.359 231.094C165.359 230.375 165.523 229.75 165.849 229.218C166.185 228.677 166.633 228.257 167.193 227.958C167.763 227.659 168.407 227.51 169.125 227.51C169.76 227.51 170.339 227.641 170.861 227.902C171.384 228.154 171.799 228.546 172.107 229.078C172.425 229.61 172.583 230.282 172.583 231.094C172.583 231.897 172.425 232.564 172.107 233.096C171.799 233.628 171.384 234.029 170.861 234.3C170.339 234.561 169.76 234.692 169.125 234.692ZM169.279 233.516C169.774 233.516 170.213 233.413 170.595 233.208C170.978 233.003 171.277 232.718 171.491 232.354C171.715 231.99 171.827 231.57 171.827 231.094C171.827 230.618 171.715 230.198 171.491 229.834C171.277 229.47 170.978 229.19 170.595 228.994C170.213 228.789 169.774 228.686 169.279 228.686C168.785 228.686 168.341 228.789 167.949 228.994C167.567 229.19 167.263 229.47 167.039 229.834C166.825 230.198 166.717 230.618 166.717 231.094C166.717 231.57 166.825 231.99 167.039 232.354C167.263 232.718 167.567 233.003 167.949 233.208C168.341 233.413 168.785 233.516 169.279 233.516ZM178.834 235.084C178.199 235.084 177.639 234.967 177.154 234.734C176.678 234.501 176.304 234.146 176.034 233.67C175.772 233.185 175.642 232.578 175.642 231.85V227.58H176.986V231.696C176.986 232.424 177.158 232.97 177.504 233.334C177.858 233.698 178.353 233.88 178.988 233.88C179.454 233.88 179.86 233.787 180.206 233.6C180.551 233.404 180.817 233.124 181.004 232.76C181.19 232.387 181.284 231.939 181.284 231.416V227.58H182.628V235H181.354V232.998L181.564 233.53C181.321 234.025 180.957 234.407 180.472 234.678C179.986 234.949 179.44 235.084 178.834 235.084ZM185.186 235V227.58H186.53V235H185.186ZM185.858 226.152C185.597 226.152 185.377 226.068 185.2 225.9C185.032 225.732 184.948 225.527 184.948 225.284C184.948 225.032 185.032 224.822 185.2 224.654C185.377 224.486 185.597 224.402 185.858 224.402C186.119 224.402 186.334 224.486 186.502 224.654C186.679 224.813 186.768 225.013 186.768 225.256C186.768 225.508 186.684 225.723 186.516 225.9C186.348 226.068 186.129 226.152 185.858 226.152ZM192.162 235.084C191.444 235.084 190.8 234.925 190.23 234.608C189.67 234.291 189.227 233.847 188.9 233.278C188.574 232.709 188.41 232.046 188.41 231.29C188.41 230.534 188.574 229.876 188.9 229.316C189.227 228.747 189.67 228.303 190.23 227.986C190.8 227.669 191.444 227.51 192.162 227.51C192.788 227.51 193.352 227.65 193.856 227.93C194.36 228.21 194.762 228.63 195.06 229.19C195.368 229.75 195.522 230.45 195.522 231.29C195.522 232.13 195.373 232.83 195.074 233.39C194.785 233.95 194.388 234.375 193.884 234.664C193.38 234.944 192.806 235.084 192.162 235.084ZM192.274 233.908C192.741 233.908 193.161 233.801 193.534 233.586C193.917 233.371 194.216 233.068 194.43 232.676C194.654 232.275 194.766 231.813 194.766 231.29C194.766 230.758 194.654 230.301 194.43 229.918C194.216 229.526 193.917 229.223 193.534 229.008C193.161 228.793 192.741 228.686 192.274 228.686C191.798 228.686 191.374 228.793 191 229.008C190.627 229.223 190.328 229.526 190.104 229.918C189.88 230.301 189.768 230.758 189.768 231.29C189.768 231.813 189.88 232.275 190.104 232.676C190.328 233.068 190.627 233.371 191 233.586C191.374 233.801 191.798 233.908 192.274 233.908ZM194.808 235V232.998L194.892 231.276L194.752 229.554V224.612H196.096V235H194.808ZM201.943 235.084C201.15 235.084 200.45 234.921 199.843 234.594C199.246 234.267 198.779 233.819 198.443 233.25C198.117 232.681 197.953 232.027 197.953 231.29C197.953 230.553 198.112 229.899 198.429 229.33C198.756 228.761 199.199 228.317 199.759 228C200.329 227.673 200.968 227.51 201.677 227.51C202.396 227.51 203.031 227.669 203.581 227.986C204.132 228.303 204.561 228.751 204.869 229.33C205.187 229.899 205.345 230.567 205.345 231.332C205.345 231.388 205.341 231.453 205.331 231.528C205.331 231.603 205.327 231.673 205.317 231.738H199.003V230.772H204.617L204.071 231.108C204.081 230.632 203.983 230.207 203.777 229.834C203.572 229.461 203.287 229.171 202.923 228.966C202.569 228.751 202.153 228.644 201.677 228.644C201.211 228.644 200.795 228.751 200.431 228.966C200.067 229.171 199.783 229.465 199.577 229.848C199.372 230.221 199.269 230.651 199.269 231.136V231.36C199.269 231.855 199.381 232.298 199.605 232.69C199.839 233.073 200.161 233.371 200.571 233.586C200.982 233.801 201.453 233.908 201.985 233.908C202.424 233.908 202.821 233.833 203.175 233.684C203.539 233.535 203.857 233.311 204.127 233.012L204.869 233.88C204.533 234.272 204.113 234.571 203.609 234.776C203.115 234.981 202.559 235.084 201.943 235.084ZM211.146 235.084C210.511 235.084 209.937 234.944 209.424 234.664C208.92 234.375 208.518 233.95 208.22 233.39C207.93 232.83 207.785 232.13 207.785 231.29C207.785 230.45 207.935 229.75 208.234 229.19C208.542 228.63 208.948 228.21 209.452 227.93C209.965 227.65 210.53 227.51 211.146 227.51C211.874 227.51 212.518 227.669 213.078 227.986C213.638 228.303 214.081 228.747 214.408 229.316C214.734 229.876 214.898 230.534 214.898 231.29C214.898 232.046 214.734 232.709 214.408 233.278C214.081 233.847 213.638 234.291 213.078 234.608C212.518 234.925 211.874 235.084 211.146 235.084ZM207.212 235V224.612H208.556V229.554L208.416 231.276L208.5 232.998V235H207.212ZM211.034 233.908C211.51 233.908 211.934 233.801 212.308 233.586C212.69 233.371 212.989 233.068 213.204 232.676C213.428 232.275 213.54 231.813 213.54 231.29C213.54 230.758 213.428 230.301 213.204 229.918C212.989 229.526 212.69 229.223 212.308 229.008C211.934 228.793 211.51 228.686 211.034 228.686C210.567 228.686 210.142 228.793 209.76 229.008C209.386 229.223 209.088 229.526 208.864 229.918C208.649 230.301 208.542 230.758 208.542 231.29C208.542 231.813 208.649 232.275 208.864 232.676C209.088 233.068 209.386 233.371 209.76 233.586C210.142 233.801 210.567 233.908 211.034 233.908ZM219.932 235.084C219.186 235.084 218.523 234.921 217.944 234.594C217.366 234.267 216.908 233.819 216.572 233.25C216.236 232.671 216.068 232.018 216.068 231.29C216.068 230.553 216.236 229.899 216.572 229.33C216.908 228.761 217.366 228.317 217.944 228C218.523 227.673 219.186 227.51 219.932 227.51C220.67 227.51 221.328 227.673 221.906 228C222.494 228.317 222.952 228.761 223.278 229.33C223.614 229.89 223.782 230.543 223.782 231.29C223.782 232.027 223.614 232.681 223.278 233.25C222.952 233.819 222.494 234.267 221.906 234.594C221.328 234.921 220.67 235.084 219.932 235.084ZM219.932 233.908C220.408 233.908 220.833 233.801 221.206 233.586C221.589 233.371 221.888 233.068 222.102 232.676C222.317 232.275 222.424 231.813 222.424 231.29C222.424 230.758 222.317 230.301 222.102 229.918C221.888 229.526 221.589 229.223 221.206 229.008C220.833 228.793 220.408 228.686 219.932 228.686C219.456 228.686 219.032 228.793 218.658 229.008C218.285 229.223 217.986 229.526 217.762 229.918C217.538 230.301 217.426 230.758 217.426 231.29C217.426 231.813 217.538 232.275 217.762 232.676C217.986 233.068 218.285 233.371 218.658 233.586C219.032 233.801 219.456 233.908 219.932 233.908ZM228.819 235.084C228.073 235.084 227.41 234.921 226.831 234.594C226.253 234.267 225.795 233.819 225.459 233.25C225.123 232.671 224.955 232.018 224.955 231.29C224.955 230.553 225.123 229.899 225.459 229.33C225.795 228.761 226.253 228.317 226.831 228C227.41 227.673 228.073 227.51 228.819 227.51C229.557 227.51 230.215 227.673 230.793 228C231.381 228.317 231.839 228.761 232.165 229.33C232.501 229.89 232.669 230.543 232.669 231.29C232.669 232.027 232.501 232.681 232.165 233.25C231.839 233.819 231.381 234.267 230.793 234.594C230.215 234.921 229.557 235.084 228.819 235.084ZM228.819 233.908C229.295 233.908 229.72 233.801 230.093 233.586C230.476 233.371 230.775 233.068 230.989 232.676C231.204 232.275 231.311 231.813 231.311 231.29C231.311 230.758 231.204 230.301 230.989 229.918C230.775 229.526 230.476 229.223 230.093 229.008C229.72 228.793 229.295 228.686 228.819 228.686C228.343 228.686 227.919 228.793 227.545 229.008C227.172 229.223 226.873 229.526 226.649 229.918C226.425 230.301 226.313 230.758 226.313 231.29C226.313 231.813 226.425 232.275 226.649 232.676C226.873 233.068 227.172 233.371 227.545 233.586C227.919 233.801 228.343 233.908 228.819 233.908ZM235.62 233.208L235.648 231.486L239.918 227.58H241.542L238.266 230.8L237.538 231.416L235.62 233.208ZM234.528 235V224.612H235.872V235H234.528ZM240.198 235L237.286 231.388L238.154 230.31L241.85 235H240.198ZM45.6818 252.084C44.9631 252.084 44.3191 251.925 43.7498 251.608C43.1898 251.291 42.7465 250.847 42.4198 250.278C42.0931 249.709 41.9298 249.046 41.9298 248.29C41.9298 247.534 42.0931 246.876 42.4198 246.316C42.7465 245.747 43.1898 245.303 43.7498 244.986C44.3191 244.669 44.9631 244.51 45.6818 244.51C46.3071 244.51 46.8718 244.65 47.3758 244.93C47.8798 245.21 48.2811 245.63 48.5798 246.19C48.8878 246.75 49.0418 247.45 49.0418 248.29C49.0418 249.13 48.8925 249.83 48.5938 250.39C48.3045 250.95 47.9078 251.375 47.4038 251.664C46.8998 251.944 46.3258 252.084 45.6818 252.084ZM45.7938 250.908C46.2605 250.908 46.6805 250.801 47.0538 250.586C47.4365 250.371 47.7351 250.068 47.9498 249.676C48.1738 249.275 48.2858 248.813 48.2858 248.29C48.2858 247.758 48.1738 247.301 47.9498 246.918C47.7351 246.526 47.4365 246.223 47.0538 246.008C46.6805 245.793 46.2605 245.686 45.7938 245.686C45.3178 245.686 44.8931 245.793 44.5198 246.008C44.1465 246.223 43.8478 246.526 43.6238 246.918C43.3998 247.301 43.2878 247.758 43.2878 248.29C43.2878 248.813 43.3998 249.275 43.6238 249.676C43.8478 250.068 44.1465 250.371 44.5198 250.586C44.8931 250.801 45.3178 250.908 45.7938 250.908ZM48.3278 252V249.998L48.4118 248.276L48.2718 246.554V241.612H49.6158V252H48.3278ZM52.1588 252V244.58H53.5028V252H52.1588ZM52.8308 243.152C52.5694 243.152 52.3501 243.068 52.1728 242.9C52.0048 242.732 51.9208 242.527 51.9208 242.284C51.9208 242.032 52.0048 241.822 52.1728 241.654C52.3501 241.486 52.5694 241.402 52.8308 241.402C53.0921 241.402 53.3068 241.486 53.4748 241.654C53.6521 241.813 53.7408 242.013 53.7408 242.256C53.7408 242.508 53.6568 242.723 53.4888 242.9C53.3208 243.068 53.1014 243.152 52.8308 243.152ZM56.0689 252V244.58H57.3569V246.596L57.2309 246.092C57.4363 245.579 57.7816 245.187 58.2669 244.916C58.7523 244.645 59.3496 244.51 60.0589 244.51V245.812C60.0029 245.803 59.9469 245.798 59.8909 245.798C59.8443 245.798 59.7976 245.798 59.7509 245.798C59.0323 245.798 58.4629 246.013 58.0429 246.442C57.6229 246.871 57.4129 247.492 57.4129 248.304V252H56.0689ZM64.951 252.084C64.1577 252.084 63.4577 251.921 62.851 251.594C62.2537 251.267 61.787 250.819 61.451 250.25C61.1244 249.681 60.961 249.027 60.961 248.29C60.961 247.553 61.1197 246.899 61.437 246.33C61.7637 245.761 62.207 245.317 62.767 245C63.3364 244.673 63.9757 244.51 64.685 244.51C65.4037 244.51 66.0384 244.669 66.589 244.986C67.1397 245.303 67.569 245.751 67.877 246.33C68.1944 246.899 68.353 247.567 68.353 248.332C68.353 248.388 68.3484 248.453 68.339 248.528C68.339 248.603 68.3344 248.673 68.325 248.738H62.011V247.772H67.625L67.079 248.108C67.0884 247.632 66.9904 247.207 66.785 246.834C66.5797 246.461 66.295 246.171 65.931 245.966C65.5764 245.751 65.161 245.644 64.685 245.644C64.2184 245.644 63.803 245.751 63.439 245.966C63.075 246.171 62.7904 246.465 62.585 246.848C62.3797 247.221 62.277 247.651 62.277 248.136V248.36C62.277 248.855 62.389 249.298 62.613 249.69C62.8464 250.073 63.1684 250.371 63.579 250.586C63.9897 250.801 64.461 250.908 64.993 250.908C65.4317 250.908 65.8284 250.833 66.183 250.684C66.547 250.535 66.8644 250.311 67.135 250.012L67.877 250.88C67.541 251.272 67.121 251.571 66.617 251.776C66.1224 251.981 65.567 252.084 64.951 252.084ZM73.4533 252.084C72.6973 252.084 72.0206 251.921 71.4233 251.594C70.8353 251.267 70.3733 250.819 70.0373 250.25C69.7013 249.681 69.5333 249.027 69.5333 248.29C69.5333 247.553 69.7013 246.899 70.0373 246.33C70.3733 245.761 70.8353 245.317 71.4233 245C72.0206 244.673 72.6973 244.51 73.4533 244.51C74.1253 244.51 74.7226 244.645 75.2453 244.916C75.7773 245.177 76.188 245.569 76.4773 246.092L75.4553 246.75C75.2126 246.386 74.914 246.12 74.5593 245.952C74.214 245.775 73.8406 245.686 73.4393 245.686C72.954 245.686 72.52 245.793 72.1373 246.008C71.7546 246.223 71.4513 246.526 71.2273 246.918C71.0033 247.301 70.8913 247.758 70.8913 248.29C70.8913 248.822 71.0033 249.284 71.2273 249.676C71.4513 250.068 71.7546 250.371 72.1373 250.586C72.52 250.801 72.954 250.908 73.4393 250.908C73.8406 250.908 74.214 250.824 74.5593 250.656C74.914 250.479 75.2126 250.208 75.4553 249.844L76.4773 250.488C76.188 251.001 75.7773 251.398 75.2453 251.678C74.7226 251.949 74.1253 252.084 73.4533 252.084ZM80.8611 252.084C80.1144 252.084 79.5357 251.883 79.1251 251.482C78.7144 251.081 78.5091 250.507 78.5091 249.76V242.956H79.8531V249.704C79.8531 250.105 79.9511 250.413 80.1471 250.628C80.3524 250.843 80.6417 250.95 81.0151 250.95C81.4351 250.95 81.7851 250.833 82.0651 250.6L82.4851 251.566C82.2797 251.743 82.0324 251.874 81.7431 251.958C81.4631 252.042 81.1691 252.084 80.8611 252.084ZM77.2491 245.686V244.58H81.9811V245.686H77.2491ZM88.0657 252V243.922C88.0657 243.194 88.2757 242.615 88.6957 242.186C89.125 241.747 89.7317 241.528 90.5157 241.528C90.805 241.528 91.0804 241.565 91.3417 241.64C91.6124 241.705 91.841 241.813 92.0277 241.962L91.6217 242.984C91.4817 242.872 91.323 242.788 91.1457 242.732C90.9684 242.667 90.7817 242.634 90.5857 242.634C90.1937 242.634 89.895 242.746 89.6897 242.97C89.4844 243.185 89.3817 243.507 89.3817 243.936V244.93L89.4097 245.546V252H88.0657ZM86.8057 245.686V244.58H91.5377V245.686H86.8057ZM92.8053 252V244.58H94.0933V246.596L93.9673 246.092C94.1726 245.579 94.5179 245.187 95.0033 244.916C95.4886 244.645 96.0859 244.51 96.7953 244.51V245.812C96.7393 245.803 96.6833 245.798 96.6273 245.798C96.5806 245.798 96.5339 245.798 96.4873 245.798C95.7686 245.798 95.1993 246.013 94.7793 246.442C94.3593 246.871 94.1493 247.492 94.1493 248.304V252H92.8053ZM101.561 252.084C100.815 252.084 100.152 251.921 99.5734 251.594C98.9947 251.267 98.5374 250.819 98.2014 250.25C97.8654 249.671 97.6974 249.018 97.6974 248.29C97.6974 247.553 97.8654 246.899 98.2014 246.33C98.5374 245.761 98.9947 245.317 99.5734 245C100.152 244.673 100.815 244.51 101.561 244.51C102.299 244.51 102.957 244.673 103.535 245C104.123 245.317 104.581 245.761 104.907 246.33C105.243 246.89 105.411 247.543 105.411 248.29C105.411 249.027 105.243 249.681 104.907 250.25C104.581 250.819 104.123 251.267 103.535 251.594C102.957 251.921 102.299 252.084 101.561 252.084ZM101.561 250.908C102.037 250.908 102.462 250.801 102.835 250.586C103.218 250.371 103.517 250.068 103.731 249.676C103.946 249.275 104.053 248.813 104.053 248.29C104.053 247.758 103.946 247.301 103.731 246.918C103.517 246.526 103.218 246.223 102.835 246.008C102.462 245.793 102.037 245.686 101.561 245.686C101.085 245.686 100.661 245.793 100.287 246.008C99.914 246.223 99.6154 246.526 99.3914 246.918C99.1674 247.301 99.0554 247.758 99.0554 248.29C99.0554 248.813 99.1674 249.275 99.3914 249.676C99.6154 250.068 99.914 250.371 100.287 250.586C100.661 250.801 101.085 250.908 101.561 250.908ZM116.552 244.51C117.149 244.51 117.677 244.627 118.134 244.86C118.591 245.093 118.946 245.448 119.198 245.924C119.459 246.4 119.59 247.002 119.59 247.73V252H118.246V247.884C118.246 247.165 118.078 246.624 117.742 246.26C117.406 245.896 116.935 245.714 116.328 245.714C115.88 245.714 115.488 245.807 115.152 245.994C114.816 246.181 114.555 246.456 114.368 246.82C114.191 247.184 114.102 247.637 114.102 248.178V252H112.758V247.884C112.758 247.165 112.59 246.624 112.254 246.26C111.927 245.896 111.456 245.714 110.84 245.714C110.401 245.714 110.014 245.807 109.678 245.994C109.342 246.181 109.081 246.456 108.894 246.82C108.707 247.184 108.614 247.637 108.614 248.178V252H107.27V244.58H108.558V246.554L108.348 246.05C108.581 245.565 108.941 245.187 109.426 244.916C109.911 244.645 110.476 244.51 111.12 244.51C111.829 244.51 112.441 244.687 112.954 245.042C113.467 245.387 113.803 245.915 113.962 246.624L113.416 246.4C113.64 245.831 114.032 245.373 114.592 245.028C115.152 244.683 115.805 244.51 116.552 244.51ZM128.371 252.084C127.624 252.084 127.045 251.883 126.635 251.482C126.224 251.081 126.019 250.507 126.019 249.76V242.956H127.363V249.704C127.363 250.105 127.461 250.413 127.657 250.628C127.862 250.843 128.151 250.95 128.525 250.95C128.945 250.95 129.295 250.833 129.575 250.6L129.995 251.566C129.789 251.743 129.542 251.874 129.253 251.958C128.973 252.042 128.679 252.084 128.371 252.084ZM124.759 245.686V244.58H129.491V245.686H124.759ZM135.582 244.51C136.188 244.51 136.72 244.627 137.178 244.86C137.644 245.093 138.008 245.448 138.27 245.924C138.531 246.4 138.662 247.002 138.662 247.73V252H137.318V247.884C137.318 247.165 137.14 246.624 136.786 246.26C136.44 245.896 135.95 245.714 135.316 245.714C134.84 245.714 134.424 245.807 134.07 245.994C133.715 246.181 133.44 246.456 133.244 246.82C133.057 247.184 132.964 247.637 132.964 248.178V252H131.62V241.612H132.964V246.582L132.698 246.05C132.94 245.565 133.314 245.187 133.818 244.916C134.322 244.645 134.91 244.51 135.582 244.51ZM144.327 252.084C143.58 252.084 142.918 251.921 142.339 251.594C141.76 251.267 141.303 250.819 140.967 250.25C140.631 249.671 140.463 249.018 140.463 248.29C140.463 247.553 140.631 246.899 140.967 246.33C141.303 245.761 141.76 245.317 142.339 245C142.918 244.673 143.58 244.51 144.327 244.51C145.064 244.51 145.722 244.673 146.301 245C146.889 245.317 147.346 245.761 147.673 246.33C148.009 246.89 148.177 247.543 148.177 248.29C148.177 249.027 148.009 249.681 147.673 250.25C147.346 250.819 146.889 251.267 146.301 251.594C145.722 251.921 145.064 252.084 144.327 252.084ZM144.327 250.908C144.803 250.908 145.228 250.801 145.601 250.586C145.984 250.371 146.282 250.068 146.497 249.676C146.712 249.275 146.819 248.813 146.819 248.29C146.819 247.758 146.712 247.301 146.497 246.918C146.282 246.526 145.984 246.223 145.601 246.008C145.228 245.793 144.803 245.686 144.327 245.686C143.851 245.686 143.426 245.793 143.053 246.008C142.68 246.223 142.381 246.526 142.157 246.918C141.933 247.301 141.821 247.758 141.821 248.29C141.821 248.813 141.933 249.275 142.157 249.676C142.381 250.068 142.68 250.371 143.053 250.586C143.426 250.801 143.851 250.908 144.327 250.908ZM152.164 252.084C151.548 252.084 150.96 252 150.4 251.832C149.849 251.664 149.415 251.459 149.098 251.216L149.658 250.152C149.975 250.367 150.367 250.549 150.834 250.698C151.3 250.847 151.776 250.922 152.262 250.922C152.887 250.922 153.335 250.833 153.606 250.656C153.886 250.479 154.026 250.231 154.026 249.914C154.026 249.681 153.942 249.499 153.774 249.368C153.606 249.237 153.382 249.139 153.102 249.074C152.831 249.009 152.528 248.953 152.192 248.906C151.856 248.85 151.52 248.785 151.184 248.71C150.848 248.626 150.54 248.514 150.26 248.374C149.98 248.225 149.756 248.024 149.588 247.772C149.42 247.511 149.336 247.165 149.336 246.736C149.336 246.288 149.462 245.896 149.714 245.56C149.966 245.224 150.32 244.967 150.778 244.79C151.244 244.603 151.795 244.51 152.43 244.51C152.915 244.51 153.405 244.571 153.9 244.692C154.404 244.804 154.814 244.967 155.132 245.182L154.558 246.246C154.222 246.022 153.872 245.868 153.508 245.784C153.144 245.7 152.78 245.658 152.416 245.658C151.828 245.658 151.389 245.756 151.1 245.952C150.81 246.139 150.666 246.381 150.666 246.68C150.666 246.932 150.75 247.128 150.918 247.268C151.095 247.399 151.319 247.501 151.59 247.576C151.87 247.651 152.178 247.716 152.514 247.772C152.85 247.819 153.186 247.884 153.522 247.968C153.858 248.043 154.161 248.15 154.432 248.29C154.712 248.43 154.936 248.626 155.104 248.878C155.281 249.13 155.37 249.466 155.37 249.886C155.37 250.334 155.239 250.721 154.978 251.048C154.716 251.375 154.348 251.631 153.872 251.818C153.396 251.995 152.826 252.084 152.164 252.084ZM160.353 252.084C159.56 252.084 158.86 251.921 158.253 251.594C157.656 251.267 157.189 250.819 156.853 250.25C156.527 249.681 156.363 249.027 156.363 248.29C156.363 247.553 156.522 246.899 156.839 246.33C157.166 245.761 157.609 245.317 158.169 245C158.739 244.673 159.378 244.51 160.087 244.51C160.806 244.51 161.441 244.669 161.991 244.986C162.542 245.303 162.971 245.751 163.279 246.33C163.597 246.899 163.755 247.567 163.755 248.332C163.755 248.388 163.751 248.453 163.741 248.528C163.741 248.603 163.737 248.673 163.727 248.738H157.413V247.772H163.027L162.481 248.108C162.491 247.632 162.393 247.207 162.187 246.834C161.982 246.461 161.697 246.171 161.333 245.966C160.979 245.751 160.563 245.644 160.087 245.644C159.621 245.644 159.205 245.751 158.841 245.966C158.477 246.171 158.193 246.465 157.987 246.848C157.782 247.221 157.679 247.651 157.679 248.136V248.36C157.679 248.855 157.791 249.298 158.015 249.69C158.249 250.073 158.571 250.371 158.981 250.586C159.392 250.801 159.863 250.908 160.395 250.908C160.834 250.908 161.231 250.833 161.585 250.684C161.949 250.535 162.267 250.311 162.537 250.012L163.279 250.88C162.943 251.272 162.523 251.571 162.019 251.776C161.525 251.981 160.969 252.084 160.353 252.084ZM170.949 252L168.191 244.58H169.465L171.915 251.3H171.313L173.861 244.58H174.995L177.487 251.3H176.899L179.405 244.58H180.609L177.837 252H176.549L174.211 245.868H174.603L172.237 252H170.949ZM185.935 244.51C186.542 244.51 187.074 244.627 187.531 244.86C187.998 245.093 188.362 245.448 188.623 245.924C188.885 246.4 189.015 247.002 189.015 247.73V252H187.671V247.884C187.671 247.165 187.494 246.624 187.139 246.26C186.794 245.896 186.304 245.714 185.669 245.714C185.193 245.714 184.778 245.807 184.423 245.994C184.069 246.181 183.793 246.456 183.597 246.82C183.411 247.184 183.317 247.637 183.317 248.178V252H181.973V241.612H183.317V246.582L183.051 246.05C183.294 245.565 183.667 245.187 184.171 244.916C184.675 244.645 185.263 244.51 185.935 244.51ZM194.681 252.084C193.934 252.084 193.271 251.921 192.693 251.594C192.114 251.267 191.657 250.819 191.321 250.25C190.985 249.671 190.817 249.018 190.817 248.29C190.817 247.553 190.985 246.899 191.321 246.33C191.657 245.761 192.114 245.317 192.693 245C193.271 244.673 193.934 244.51 194.681 244.51C195.418 244.51 196.076 244.673 196.655 245C197.243 245.317 197.7 245.761 198.027 246.33C198.363 246.89 198.531 247.543 198.531 248.29C198.531 249.027 198.363 249.681 198.027 250.25C197.7 250.819 197.243 251.267 196.655 251.594C196.076 251.921 195.418 252.084 194.681 252.084ZM194.681 250.908C195.157 250.908 195.581 250.801 195.955 250.586C196.337 250.371 196.636 250.068 196.851 249.676C197.065 249.275 197.173 248.813 197.173 248.29C197.173 247.758 197.065 247.301 196.851 246.918C196.636 246.526 196.337 246.223 195.955 246.008C195.581 245.793 195.157 245.686 194.681 245.686C194.205 245.686 193.78 245.793 193.407 246.008C193.033 246.223 192.735 246.526 192.511 246.918C192.287 247.301 192.175 247.758 192.175 248.29C192.175 248.813 192.287 249.275 192.511 249.676C192.735 250.068 193.033 250.371 193.407 250.586C193.78 250.801 194.205 250.908 194.681 250.908ZM204.149 252V241.612H205.493V252H204.149ZM208.059 252V244.58H209.403V252H208.059ZM208.731 243.152C208.47 243.152 208.25 243.068 208.073 242.9C207.905 242.732 207.821 242.527 207.821 242.284C207.821 242.032 207.905 241.822 208.073 241.654C208.25 241.486 208.47 241.402 208.731 241.402C208.992 241.402 209.207 241.486 209.375 241.654C209.552 241.813 209.641 242.013 209.641 242.256C209.641 242.508 209.557 242.723 209.389 242.9C209.221 243.068 209.002 243.152 208.731 243.152ZM213.915 252L210.667 244.58H212.067L214.951 251.3H214.279L217.219 244.58H218.535L215.287 252H213.915ZM222.889 252.084C222.095 252.084 221.395 251.921 220.789 251.594C220.191 251.267 219.725 250.819 219.389 250.25C219.062 249.681 218.899 249.027 218.899 248.29C218.899 247.553 219.057 246.899 219.375 246.33C219.701 245.761 220.145 245.317 220.705 245C221.274 244.673 221.913 244.51 222.623 244.51C223.341 244.51 223.976 244.669 224.527 244.986C225.077 245.303 225.507 245.751 225.815 246.33C226.132 246.899 226.291 247.567 226.291 248.332C226.291 248.388 226.286 248.453 226.277 248.528C226.277 248.603 226.272 248.673 226.263 248.738H219.949V247.772H225.563L225.017 248.108C225.026 247.632 224.928 247.207 224.723 246.834C224.517 246.461 224.233 246.171 223.869 245.966C223.514 245.751 223.099 245.644 222.623 245.644C222.156 245.644 221.741 245.751 221.377 245.966C221.013 246.171 220.728 246.465 220.523 246.848C220.317 247.221 220.215 247.651 220.215 248.136V248.36C220.215 248.855 220.327 249.298 220.551 249.69C220.784 250.073 221.106 250.371 221.517 250.586C221.927 250.801 222.399 250.908 222.931 250.908C223.369 250.908 223.766 250.833 224.121 250.684C224.485 250.535 224.802 250.311 225.073 250.012L225.815 250.88C225.479 251.272 225.059 251.571 224.555 251.776C224.06 251.981 223.505 252.084 222.889 252.084ZM231.917 252V244.58H233.261V252H231.917ZM232.589 243.152C232.327 243.152 232.108 243.068 231.931 242.9C231.763 242.732 231.679 242.527 231.679 242.284C231.679 242.032 231.763 241.822 231.931 241.654C232.108 241.486 232.327 241.402 232.589 241.402C232.85 241.402 233.065 241.486 233.233 241.654C233.41 241.813 233.499 242.013 233.499 242.256C233.499 242.508 233.415 242.723 233.247 242.9C233.079 243.068 232.859 243.152 232.589 243.152ZM238.375 252.084C237.628 252.084 237.049 251.883 236.639 251.482C236.228 251.081 236.023 250.507 236.023 249.76V242.956H237.367V249.704C237.367 250.105 237.465 250.413 237.661 250.628C237.866 250.843 238.155 250.95 238.529 250.95C238.949 250.95 239.299 250.833 239.579 250.6L239.999 251.566C239.793 251.743 239.546 251.874 239.257 251.958C238.977 252.042 238.683 252.084 238.375 252.084ZM234.763 245.686V244.58H239.495V245.686H234.763ZM242.082 252.084C241.821 252.084 241.597 251.995 241.41 251.818C241.224 251.631 241.13 251.398 241.13 251.118C241.13 250.838 241.224 250.609 241.41 250.432C241.597 250.255 241.821 250.166 242.082 250.166C242.334 250.166 242.549 250.255 242.726 250.432C242.913 250.609 243.006 250.838 243.006 251.118C243.006 251.398 242.913 251.631 242.726 251.818C242.549 251.995 242.334 252.084 242.082 252.084Z" fill="black"/>
</g>
<defs>
<filter id="filter0_d_418_3817" x="0.5" y="0" width="284" height="371" filterUnits="userSpaceOnUse" color-interpolation-filters="sRGB">
<feFlood flood-opacity="0" result="BackgroundImageFix"/>
<feColorMatrix in="SourceAlpha" type="matrix" values="0 0 0 0 0 0 0 0 0 0 0 0 0 0 0 0 0 0 127 0" result="hardAlpha"/>
<feOffset dy="4"/>
<feGaussianBlur stdDeviation="2"/>
<feComposite in2="hardAlpha" operator="out"/>
<feColorMatrix type="matrix" values="0 0 0 0 0 0 0 0 0 0 0 0 0 0 0 0 0 0 0.25 0"/>
<feBlend mode="normal" in2="BackgroundImageFix" result="effect1_dropShadow_418_3817"/>
<feBlend mode="normal" in="SourceGraphic" in2="effect1_dropShadow_418_3817" result="shape"/>
</filter>
</defs>
</svg>
