<svg width="285" height="371" viewBox="0 0 285 371" fill="none" xmlns="http://www.w3.org/2000/svg">
<g filter="url(#filter0_d_418_3819)">
<rect x="4.5" width="276" height="363" rx="15" fill="#BAEBDA"/>
<mask id="mask0_418_3819" style="mask-type:alpha" maskUnits="userSpaceOnUse" x="112" y="59" width="61" height="60">
<rect x="112.5" y="59" width="60" height="60" fill="#D9D9D9"/>
</mask>
<g mask="url(#mask0_418_3819)">
<path d="M142.5 111.5C139.375 111.5 136.448 110.906 133.719 109.719C130.99 108.531 128.615 106.927 126.594 104.906C124.573 102.885 122.969 100.51 121.781 97.7812C120.594 95.0521 120 92.125 120 89C120 85.875 120.594 82.9479 121.781 80.2188C122.969 77.4896 124.573 75.1146 126.594 73.0938C128.615 71.0729 130.99 69.4688 133.719 68.2813C136.448 67.0938 139.375 66.5 142.5 66.5C145.917 66.5 149.156 67.2292 152.219 68.6875C155.281 70.1458 157.875 72.2083 160 74.875V69H165V84H150V79H156.875C155.167 76.6667 153.062 74.8333 150.562 73.5C148.062 72.1667 145.375 71.5 142.5 71.5C137.625 71.5 133.49 73.1979 130.094 76.5938C126.698 79.9896 125 84.125 125 89C125 93.875 126.698 98.0104 130.094 101.406C133.49 104.802 137.625 106.5 142.5 106.5C146.875 106.5 150.698 105.083 153.969 102.25C157.24 99.4167 159.167 95.8333 159.75 91.5H164.875C164.25 97.2083 161.802 101.969 157.531 105.781C153.26 109.594 148.25 111.5 142.5 111.5ZM149.5 99.5L140 90V76.5H145V88L153 96L149.5 99.5Z" fill="#1C1B1F"/>
</g>
<path d="M37.551 152.44H44.531V154.64H37.551V152.44ZM37.771 160H35.171V146H45.391V148.18H37.771V160ZM47.6654 160V145.16H50.1654V160H47.6654ZM58.4666 160.14C57.28 160.14 56.24 159.907 55.3466 159.44C54.4666 158.96 53.78 158.307 53.2866 157.48C52.8066 156.653 52.5666 155.713 52.5666 154.66C52.5666 153.593 52.8 152.653 53.2666 151.84C53.7466 151.013 54.4 150.367 55.2266 149.9C56.0666 149.433 57.02 149.2 58.0866 149.2C59.1266 149.2 60.0533 149.427 60.8666 149.88C61.68 150.333 62.32 150.973 62.7866 151.8C63.2533 152.627 63.4866 153.6 63.4866 154.72C63.4866 154.827 63.48 154.947 63.4666 155.08C63.4666 155.213 63.46 155.34 63.4466 155.46H54.5466V153.8H62.1266L61.1466 154.32C61.16 153.707 61.0333 153.167 60.7666 152.7C60.5 152.233 60.1333 151.867 59.6666 151.6C59.2133 151.333 58.6866 151.2 58.0866 151.2C57.4733 151.2 56.9333 151.333 56.4666 151.6C56.0133 151.867 55.6533 152.24 55.3866 152.72C55.1333 153.187 55.0066 153.74 55.0066 154.38V154.78C55.0066 155.42 55.1533 155.987 55.4466 156.48C55.74 156.973 56.1533 157.353 56.6866 157.62C57.22 157.887 57.8333 158.02 58.5266 158.02C59.1266 158.02 59.6666 157.927 60.1466 157.74C60.6266 157.553 61.0533 157.26 61.4266 156.86L62.7666 158.4C62.2866 158.96 61.68 159.393 60.9466 159.7C60.2266 159.993 59.4 160.14 58.4666 160.14ZM64.1351 160L68.8351 153.88L68.7951 155.22L64.3151 149.32H67.0951L70.2351 153.52H69.1751L72.3351 149.32H75.0351L70.5151 155.22L70.5351 153.88L75.2151 160H72.3951L69.0951 155.54L70.1351 155.68L66.8951 160H64.1351ZM77.0599 160V149.32H79.5599V160H77.0599ZM78.3199 147.56C77.8533 147.56 77.4666 147.413 77.1599 147.12C76.8666 146.827 76.7199 146.473 76.7199 146.06C76.7199 145.633 76.8666 145.28 77.1599 145C77.4666 144.707 77.8533 144.56 78.3199 144.56C78.7866 144.56 79.1666 144.7 79.4599 144.98C79.7666 145.247 79.9199 145.587 79.9199 146C79.9199 146.44 79.7733 146.813 79.4799 147.12C79.1866 147.413 78.7999 147.56 78.3199 147.56ZM88.7612 160.14C87.8545 160.14 87.0478 159.94 86.3412 159.54C85.6345 159.14 85.0745 158.54 84.6612 157.74C84.2612 156.927 84.0612 155.9 84.0612 154.66C84.0612 153.407 84.2678 152.38 84.6812 151.58C85.1078 150.78 85.6745 150.187 86.3812 149.8C87.1012 149.4 87.8945 149.2 88.7612 149.2C89.8145 149.2 90.7412 149.427 91.5412 149.88C92.3545 150.333 92.9945 150.967 93.4612 151.78C93.9412 152.593 94.1812 153.553 94.1812 154.66C94.1812 155.767 93.9412 156.727 93.4612 157.54C92.9945 158.353 92.3545 158.993 91.5412 159.46C90.7412 159.913 89.8145 160.14 88.7612 160.14ZM82.8412 160V145.16H85.3412V151.8L85.1412 154.64L85.2212 157.48V160H82.8412ZM88.4812 158C89.0812 158 89.6145 157.867 90.0812 157.6C90.5612 157.333 90.9412 156.947 91.2212 156.44C91.5012 155.933 91.6412 155.34 91.6412 154.66C91.6412 153.967 91.5012 153.373 91.2212 152.88C90.9412 152.373 90.5612 151.987 90.0812 151.72C89.6145 151.453 89.0812 151.32 88.4812 151.32C87.8812 151.32 87.3412 151.453 86.8612 151.72C86.3812 151.987 86.0012 152.373 85.7212 152.88C85.4412 153.373 85.3012 153.967 85.3012 154.66C85.3012 155.34 85.4412 155.933 85.7212 156.44C86.0012 156.947 86.3812 157.333 86.8612 157.6C87.3412 157.867 87.8812 158 88.4812 158ZM96.5521 160V145.16H99.0521V160H96.5521ZM107.353 160.14C106.167 160.14 105.127 159.907 104.233 159.44C103.353 158.96 102.667 158.307 102.173 157.48C101.693 156.653 101.453 155.713 101.453 154.66C101.453 153.593 101.687 152.653 102.153 151.84C102.633 151.013 103.287 150.367 104.113 149.9C104.953 149.433 105.907 149.2 106.973 149.2C108.013 149.2 108.94 149.427 109.753 149.88C110.567 150.333 111.207 150.973 111.673 151.8C112.14 152.627 112.373 153.6 112.373 154.72C112.373 154.827 112.367 154.947 112.353 155.08C112.353 155.213 112.347 155.34 112.333 155.46H103.433V153.8H111.013L110.033 154.32C110.047 153.707 109.92 153.167 109.653 152.7C109.387 152.233 109.02 151.867 108.553 151.6C108.1 151.333 107.573 151.2 106.973 151.2C106.36 151.2 105.82 151.333 105.353 151.6C104.9 151.867 104.54 152.24 104.273 152.72C104.02 153.187 103.893 153.74 103.893 154.38V154.78C103.893 155.42 104.04 155.987 104.333 156.48C104.627 156.973 105.04 157.353 105.573 157.62C106.107 157.887 106.72 158.02 107.413 158.02C108.013 158.02 108.553 157.927 109.033 157.74C109.513 157.553 109.94 157.26 110.313 156.86L111.653 158.4C111.173 158.96 110.567 159.393 109.833 159.7C109.113 159.993 108.287 160.14 107.353 160.14ZM123.382 160V148.2H118.742V146H130.622V148.2H125.982V160H123.382ZM136.04 160.14C134.946 160.14 133.973 159.907 133.12 159.44C132.266 158.96 131.593 158.307 131.1 157.48C130.606 156.653 130.36 155.713 130.36 154.66C130.36 153.593 130.606 152.653 131.1 151.84C131.593 151.013 132.266 150.367 133.12 149.9C133.973 149.433 134.946 149.2 136.04 149.2C137.146 149.2 138.126 149.433 138.98 149.9C139.846 150.367 140.52 151.007 141 151.82C141.493 152.633 141.74 153.58 141.74 154.66C141.74 155.713 141.493 156.653 141 157.48C140.52 158.307 139.846 158.96 138.98 159.44C138.126 159.907 137.146 160.14 136.04 160.14ZM136.04 158C136.653 158 137.2 157.867 137.68 157.6C138.16 157.333 138.533 156.947 138.8 156.44C139.08 155.933 139.22 155.34 139.22 154.66C139.22 153.967 139.08 153.373 138.8 152.88C138.533 152.373 138.16 151.987 137.68 151.72C137.2 151.453 136.66 151.32 136.06 151.32C135.446 151.32 134.9 151.453 134.42 151.72C133.953 151.987 133.58 152.373 133.3 152.88C133.02 153.373 132.88 153.967 132.88 154.66C132.88 155.34 133.02 155.933 133.3 156.44C133.58 156.947 133.953 157.333 134.42 157.6C134.9 157.867 135.44 158 136.04 158ZM148.65 160.14C147.744 160.14 146.944 159.973 146.25 159.64C145.557 159.293 145.017 158.773 144.63 158.08C144.244 157.373 144.05 156.487 144.05 155.42V149.32H146.55V155.08C146.55 156.04 146.764 156.76 147.19 157.24C147.63 157.707 148.25 157.94 149.05 157.94C149.637 157.94 150.144 157.82 150.57 157.58C151.01 157.34 151.35 156.98 151.59 156.5C151.844 156.02 151.97 155.427 151.97 154.72V149.32H154.47V160H152.09V157.12L152.51 158C152.15 158.693 151.624 159.227 150.93 159.6C150.237 159.96 149.477 160.14 148.65 160.14ZM157.744 160V149.32H160.124V152.26L159.844 151.4C160.164 150.68 160.664 150.133 161.344 149.76C162.037 149.387 162.897 149.2 163.924 149.2V151.58C163.817 151.553 163.717 151.54 163.624 151.54C163.53 151.527 163.437 151.52 163.344 151.52C162.397 151.52 161.644 151.8 161.084 152.36C160.524 152.907 160.244 153.727 160.244 154.82V160H157.744ZM178.469 160.2C177.376 160.2 176.369 160.02 175.449 159.66C174.529 159.3 173.729 158.8 173.049 158.16C172.369 157.507 171.843 156.747 171.469 155.88C171.096 155 170.909 154.04 170.909 153C170.909 151.96 171.096 151.007 171.469 150.14C171.843 149.26 172.369 148.5 173.049 147.86C173.729 147.207 174.529 146.7 175.449 146.34C176.369 145.98 177.369 145.8 178.449 145.8C179.543 145.8 180.543 145.98 181.449 146.34C182.369 146.7 183.169 147.207 183.849 147.86C184.529 148.5 185.056 149.26 185.429 150.14C185.803 151.007 185.989 151.96 185.989 153C185.989 154.04 185.803 155 185.429 155.88C185.056 156.76 184.529 157.52 183.849 158.16C183.169 158.8 182.369 159.3 181.449 159.66C180.543 160.02 179.549 160.2 178.469 160.2ZM178.449 157.92C179.156 157.92 179.809 157.8 180.409 157.56C181.009 157.32 181.529 156.98 181.969 156.54C182.409 156.087 182.749 155.567 182.989 154.98C183.243 154.38 183.369 153.72 183.369 153C183.369 152.28 183.243 151.627 182.989 151.04C182.749 150.44 182.409 149.92 181.969 149.48C181.529 149.027 181.009 148.68 180.409 148.44C179.809 148.2 179.156 148.08 178.449 148.08C177.743 148.08 177.089 148.2 176.489 148.44C175.903 148.68 175.383 149.027 174.929 149.48C174.489 149.92 174.143 150.44 173.889 151.04C173.649 151.627 173.529 152.28 173.529 153C173.529 153.707 173.649 154.36 173.889 154.96C174.143 155.56 174.489 156.087 174.929 156.54C175.369 156.98 175.889 157.32 176.489 157.56C177.089 157.8 177.743 157.92 178.449 157.92ZM194.425 160.14C193.559 160.14 192.765 159.94 192.045 159.54C191.339 159.14 190.772 158.54 190.345 157.74C189.932 156.927 189.725 155.9 189.725 154.66C189.725 153.407 189.925 152.38 190.325 151.58C190.739 150.78 191.299 150.187 192.005 149.8C192.712 149.4 193.519 149.2 194.425 149.2C195.479 149.2 196.405 149.427 197.205 149.88C198.019 150.333 198.659 150.967 199.125 151.78C199.605 152.593 199.845 153.553 199.845 154.66C199.845 155.767 199.605 156.733 199.125 157.56C198.659 158.373 198.019 159.007 197.205 159.46C196.405 159.913 195.479 160.14 194.425 160.14ZM188.505 163.88V149.32H190.885V151.84L190.805 154.68L191.005 157.52V163.88H188.505ZM194.145 158C194.745 158 195.279 157.867 195.745 157.6C196.225 157.333 196.605 156.947 196.885 156.44C197.165 155.933 197.305 155.34 197.305 154.66C197.305 153.967 197.165 153.373 196.885 152.88C196.605 152.373 196.225 151.987 195.745 151.72C195.279 151.453 194.745 151.32 194.145 151.32C193.545 151.32 193.005 151.453 192.525 151.72C192.045 151.987 191.665 152.373 191.385 152.88C191.105 153.373 190.965 153.967 190.965 154.66C190.965 155.34 191.105 155.933 191.385 156.44C191.665 156.947 192.045 157.333 192.525 157.6C193.005 157.867 193.545 158 194.145 158ZM206.236 160.14C205.063 160.14 204.156 159.84 203.516 159.24C202.876 158.627 202.556 157.727 202.556 156.54V146.96H205.056V156.48C205.056 156.987 205.183 157.38 205.436 157.66C205.703 157.94 206.07 158.08 206.536 158.08C207.096 158.08 207.563 157.933 207.936 157.64L208.636 159.42C208.343 159.66 207.983 159.84 207.556 159.96C207.13 160.08 206.69 160.14 206.236 160.14ZM200.796 151.4V149.4H207.916V151.4H200.796ZM210.693 160V149.32H213.193V160H210.693ZM211.953 147.56C211.486 147.56 211.099 147.413 210.793 147.12C210.499 146.827 210.353 146.473 210.353 146.06C210.353 145.633 210.499 145.28 210.793 145C211.099 144.707 211.486 144.56 211.953 144.56C212.419 144.56 212.799 144.7 213.093 144.98C213.399 145.247 213.553 145.587 213.553 146C213.553 146.44 213.406 146.813 213.113 147.12C212.819 147.413 212.433 147.56 211.953 147.56ZM221.274 160.14C220.181 160.14 219.207 159.907 218.354 159.44C217.501 158.96 216.827 158.307 216.334 157.48C215.841 156.653 215.594 155.713 215.594 154.66C215.594 153.593 215.841 152.653 216.334 151.84C216.827 151.013 217.501 150.367 218.354 149.9C219.207 149.433 220.181 149.2 221.274 149.2C222.381 149.2 223.361 149.433 224.214 149.9C225.081 150.367 225.754 151.007 226.234 151.82C226.727 152.633 226.974 153.58 226.974 154.66C226.974 155.713 226.727 156.653 226.234 157.48C225.754 158.307 225.081 158.96 224.214 159.44C223.361 159.907 222.381 160.14 221.274 160.14ZM221.274 158C221.887 158 222.434 157.867 222.914 157.6C223.394 157.333 223.767 156.947 224.034 156.44C224.314 155.933 224.454 155.34 224.454 154.66C224.454 153.967 224.314 153.373 224.034 152.88C223.767 152.373 223.394 151.987 222.914 151.72C222.434 151.453 221.894 151.32 221.294 151.32C220.681 151.32 220.134 151.453 219.654 151.72C219.187 151.987 218.814 152.373 218.534 152.88C218.254 153.373 218.114 153.967 218.114 154.66C218.114 155.34 218.254 155.933 218.534 156.44C218.814 156.947 219.187 157.333 219.654 157.6C220.134 157.867 220.674 158 221.274 158ZM235.425 149.2C236.278 149.2 237.038 149.367 237.705 149.7C238.385 150.033 238.918 150.547 239.305 151.24C239.691 151.92 239.885 152.8 239.885 153.88V160H237.385V154.2C237.385 153.253 237.158 152.547 236.705 152.08C236.265 151.613 235.645 151.38 234.845 151.38C234.258 151.38 233.738 151.5 233.285 151.74C232.831 151.98 232.478 152.34 232.225 152.82C231.985 153.287 231.865 153.88 231.865 154.6V160H229.365V149.32H231.745V152.2L231.325 151.32C231.698 150.64 232.238 150.12 232.945 149.76C233.665 149.387 234.491 149.2 235.425 149.2ZM246.356 160.14C245.463 160.14 244.603 160.027 243.776 159.8C242.963 159.56 242.316 159.273 241.836 158.94L242.796 157.04C243.276 157.347 243.849 157.6 244.516 157.8C245.183 158 245.849 158.1 246.516 158.1C247.303 158.1 247.869 157.993 248.216 157.78C248.576 157.567 248.756 157.28 248.756 156.92C248.756 156.627 248.636 156.407 248.396 156.26C248.156 156.1 247.843 155.98 247.456 155.9C247.069 155.82 246.636 155.747 246.156 155.68C245.689 155.613 245.216 155.527 244.736 155.42C244.269 155.3 243.843 155.133 243.456 154.92C243.069 154.693 242.756 154.393 242.516 154.02C242.276 153.647 242.156 153.153 242.156 152.54C242.156 151.86 242.349 151.273 242.736 150.78C243.123 150.273 243.663 149.887 244.356 149.62C245.063 149.34 245.896 149.2 246.856 149.2C247.576 149.2 248.303 149.28 249.036 149.44C249.769 149.6 250.376 149.827 250.856 150.12L249.896 152.02C249.389 151.713 248.876 151.507 248.356 151.4C247.849 151.28 247.343 151.22 246.836 151.22C246.076 151.22 245.509 151.333 245.136 151.56C244.776 151.787 244.596 152.073 244.596 152.42C244.596 152.74 244.716 152.98 244.956 153.14C245.196 153.3 245.509 153.427 245.896 153.52C246.283 153.613 246.709 153.693 247.176 153.76C247.656 153.813 248.129 153.9 248.596 154.02C249.063 154.14 249.489 154.307 249.876 154.52C250.276 154.72 250.596 155.007 250.836 155.38C251.076 155.753 251.196 156.24 251.196 156.84C251.196 157.507 250.996 158.087 250.596 158.58C250.209 159.073 249.656 159.46 248.936 159.74C248.216 160.007 247.356 160.14 246.356 160.14Z" fill="black"/>
<path opacity="0.7" d="M43.4594 201L40.1834 191.2H41.6254L44.6354 200.244H43.9074L47.0294 191.2H48.3174L51.3694 200.244H50.6694L53.7214 191.2H55.0514L51.7754 201H50.3054L47.4494 192.614H47.8274L44.9574 201H43.4594ZM60.735 193.51C61.3417 193.51 61.8737 193.627 62.331 193.86C62.7977 194.093 63.1617 194.448 63.423 194.924C63.6844 195.4 63.815 196.002 63.815 196.73V201H62.471V196.884C62.471 196.165 62.2937 195.624 61.939 195.26C61.5937 194.896 61.1037 194.714 60.469 194.714C59.993 194.714 59.5777 194.807 59.223 194.994C58.8684 195.181 58.593 195.456 58.397 195.82C58.2104 196.184 58.117 196.637 58.117 197.178V201H56.773V190.612H58.117V195.582L57.851 195.05C58.0937 194.565 58.467 194.187 58.971 193.916C59.475 193.645 60.063 193.51 60.735 193.51ZM69.6063 201.084C68.813 201.084 68.113 200.921 67.5063 200.594C66.909 200.267 66.4423 199.819 66.1063 199.25C65.7797 198.681 65.6163 198.027 65.6163 197.29C65.6163 196.553 65.775 195.899 66.0923 195.33C66.419 194.761 66.8623 194.317 67.4223 194C67.9917 193.673 68.631 193.51 69.3403 193.51C70.059 193.51 70.6937 193.669 71.2443 193.986C71.795 194.303 72.2243 194.751 72.5323 195.33C72.8497 195.899 73.0083 196.567 73.0083 197.332C73.0083 197.388 73.0037 197.453 72.9943 197.528C72.9943 197.603 72.9897 197.673 72.9803 197.738H66.6663V196.772H72.2803L71.7343 197.108C71.7437 196.632 71.6457 196.207 71.4403 195.834C71.235 195.461 70.9503 195.171 70.5863 194.966C70.2317 194.751 69.8163 194.644 69.3403 194.644C68.8737 194.644 68.4583 194.751 68.0943 194.966C67.7303 195.171 67.4457 195.465 67.2403 195.848C67.035 196.221 66.9323 196.651 66.9323 197.136V197.36C66.9323 197.855 67.0443 198.298 67.2683 198.69C67.5017 199.073 67.8237 199.371 68.2343 199.586C68.645 199.801 69.1163 199.908 69.6483 199.908C70.087 199.908 70.4837 199.833 70.8383 199.684C71.2023 199.535 71.5197 199.311 71.7903 199.012L72.5323 199.88C72.1963 200.272 71.7763 200.571 71.2723 200.776C70.7777 200.981 70.2223 201.084 69.6063 201.084ZM77.4226 201.084C76.6759 201.084 76.0973 200.883 75.6866 200.482C75.2759 200.081 75.0706 199.507 75.0706 198.76V191.956H76.4146V198.704C76.4146 199.105 76.5126 199.413 76.7086 199.628C76.9139 199.843 77.2033 199.95 77.5766 199.95C77.9966 199.95 78.3466 199.833 78.6266 199.6L79.0466 200.566C78.8413 200.743 78.5939 200.874 78.3046 200.958C78.0246 201.042 77.7306 201.084 77.4226 201.084ZM73.8106 194.686V193.58H78.5426V194.686H73.8106ZM84.6335 193.51C85.2401 193.51 85.7721 193.627 86.2295 193.86C86.6961 194.093 87.0601 194.448 87.3215 194.924C87.5828 195.4 87.7135 196.002 87.7135 196.73V201H86.3695V196.884C86.3695 196.165 86.1921 195.624 85.8375 195.26C85.4921 194.896 85.0021 194.714 84.3675 194.714C83.8915 194.714 83.4761 194.807 83.1215 194.994C82.7668 195.181 82.4915 195.456 82.2955 195.82C82.1088 196.184 82.0155 196.637 82.0155 197.178V201H80.6715V190.612H82.0155V195.582L81.7495 195.05C81.9921 194.565 82.3655 194.187 82.8695 193.916C83.3735 193.645 83.9615 193.51 84.6335 193.51ZM93.5048 201.084C92.7114 201.084 92.0114 200.921 91.4048 200.594C90.8074 200.267 90.3408 199.819 90.0048 199.25C89.6781 198.681 89.5148 198.027 89.5148 197.29C89.5148 196.553 89.6734 195.899 89.9908 195.33C90.3174 194.761 90.7608 194.317 91.3208 194C91.8901 193.673 92.5294 193.51 93.2388 193.51C93.9574 193.51 94.5921 193.669 95.1428 193.986C95.6934 194.303 96.1228 194.751 96.4308 195.33C96.7481 195.899 96.9068 196.567 96.9068 197.332C96.9068 197.388 96.9021 197.453 96.8928 197.528C96.8928 197.603 96.8881 197.673 96.8788 197.738H90.5648V196.772H96.1788L95.6328 197.108C95.6421 196.632 95.5441 196.207 95.3388 195.834C95.1334 195.461 94.8488 195.171 94.4848 194.966C94.1301 194.751 93.7148 194.644 93.2388 194.644C92.7721 194.644 92.3568 194.751 91.9928 194.966C91.6288 195.171 91.3441 195.465 91.1388 195.848C90.9334 196.221 90.8308 196.651 90.8308 197.136V197.36C90.8308 197.855 90.9428 198.298 91.1668 198.69C91.4001 199.073 91.7221 199.371 92.1328 199.586C92.5434 199.801 93.0148 199.908 93.5468 199.908C93.9854 199.908 94.3821 199.833 94.7368 199.684C95.1008 199.535 95.4181 199.311 95.6888 199.012L96.4308 199.88C96.0948 200.272 95.6748 200.571 95.1708 200.776C94.6761 200.981 94.1208 201.084 93.5048 201.084ZM98.773 201V193.58H100.061V195.596L99.935 195.092C100.14 194.579 100.486 194.187 100.971 193.916C101.456 193.645 102.054 193.51 102.763 193.51V194.812C102.707 194.803 102.651 194.798 102.595 194.798C102.548 194.798 102.502 194.798 102.455 194.798C101.736 194.798 101.167 195.013 100.747 195.442C100.327 195.871 100.117 196.492 100.117 197.304V201H98.773ZM108.597 203.8C108.242 203.8 107.897 203.739 107.561 203.618C107.225 203.506 106.936 203.338 106.693 203.114L107.267 202.106C107.454 202.283 107.659 202.419 107.883 202.512C108.107 202.605 108.345 202.652 108.597 202.652C108.924 202.652 109.194 202.568 109.409 202.4C109.624 202.232 109.824 201.933 110.011 201.504L110.473 200.482L110.613 200.314L113.525 193.58H114.841L111.243 201.742C111.028 202.265 110.786 202.675 110.515 202.974C110.254 203.273 109.964 203.483 109.647 203.604C109.33 203.735 108.98 203.8 108.597 203.8ZM110.361 201.238L106.973 193.58H108.373L111.257 200.188L110.361 201.238ZM119.068 201.084C118.322 201.084 117.659 200.921 117.08 200.594C116.502 200.267 116.044 199.819 115.708 199.25C115.372 198.671 115.204 198.018 115.204 197.29C115.204 196.553 115.372 195.899 115.708 195.33C116.044 194.761 116.502 194.317 117.08 194C117.659 193.673 118.322 193.51 119.068 193.51C119.806 193.51 120.464 193.673 121.042 194C121.63 194.317 122.088 194.761 122.414 195.33C122.75 195.89 122.918 196.543 122.918 197.29C122.918 198.027 122.75 198.681 122.414 199.25C122.088 199.819 121.63 200.267 121.042 200.594C120.464 200.921 119.806 201.084 119.068 201.084ZM119.068 199.908C119.544 199.908 119.969 199.801 120.342 199.586C120.725 199.371 121.024 199.068 121.238 198.676C121.453 198.275 121.56 197.813 121.56 197.29C121.56 196.758 121.453 196.301 121.238 195.918C121.024 195.526 120.725 195.223 120.342 195.008C119.969 194.793 119.544 194.686 119.068 194.686C118.592 194.686 118.168 194.793 117.794 195.008C117.421 195.223 117.122 195.526 116.898 195.918C116.674 196.301 116.562 196.758 116.562 197.29C116.562 197.813 116.674 198.275 116.898 198.676C117.122 199.068 117.421 199.371 117.794 199.586C118.168 199.801 118.592 199.908 119.068 199.908ZM127.899 201.084C127.264 201.084 126.704 200.967 126.219 200.734C125.743 200.501 125.37 200.146 125.099 199.67C124.838 199.185 124.707 198.578 124.707 197.85V193.58H126.051V197.696C126.051 198.424 126.224 198.97 126.569 199.334C126.924 199.698 127.418 199.88 128.053 199.88C128.52 199.88 128.926 199.787 129.271 199.6C129.616 199.404 129.882 199.124 130.069 198.76C130.256 198.387 130.349 197.939 130.349 197.416V193.58H131.693V201H130.419V198.998L130.629 199.53C130.386 200.025 130.022 200.407 129.537 200.678C129.052 200.949 128.506 201.084 127.899 201.084ZM139.579 201L136.821 193.58H138.095L140.545 200.3H139.943L142.491 193.58H143.625L146.117 200.3H145.529L148.035 193.58H149.239L146.467 201H145.179L142.841 194.868H143.233L140.867 201H139.579ZM154.977 201V199.432L154.907 199.138V196.464C154.907 195.895 154.739 195.456 154.403 195.148C154.076 194.831 153.581 194.672 152.919 194.672C152.48 194.672 152.051 194.747 151.631 194.896C151.211 195.036 150.856 195.227 150.567 195.47L150.007 194.462C150.389 194.154 150.847 193.921 151.379 193.762C151.92 193.594 152.485 193.51 153.073 193.51C154.09 193.51 154.874 193.757 155.425 194.252C155.975 194.747 156.251 195.503 156.251 196.52V201H154.977ZM152.541 201.084C151.99 201.084 151.505 200.991 151.085 200.804C150.674 200.617 150.357 200.361 150.133 200.034C149.909 199.698 149.797 199.32 149.797 198.9C149.797 198.499 149.89 198.135 150.077 197.808C150.273 197.481 150.585 197.22 151.015 197.024C151.453 196.828 152.041 196.73 152.779 196.73H155.131V197.696H152.835C152.163 197.696 151.71 197.808 151.477 198.032C151.243 198.256 151.127 198.527 151.127 198.844C151.127 199.208 151.271 199.502 151.561 199.726C151.85 199.941 152.251 200.048 152.765 200.048C153.269 200.048 153.707 199.936 154.081 199.712C154.463 199.488 154.739 199.161 154.907 198.732L155.173 199.656C154.995 200.095 154.683 200.445 154.235 200.706C153.787 200.958 153.222 201.084 152.541 201.084ZM162.7 193.51C163.307 193.51 163.839 193.627 164.296 193.86C164.763 194.093 165.127 194.448 165.388 194.924C165.649 195.4 165.78 196.002 165.78 196.73V201H164.436V196.884C164.436 196.165 164.259 195.624 163.904 195.26C163.559 194.896 163.069 194.714 162.434 194.714C161.958 194.714 161.543 194.807 161.188 194.994C160.833 195.181 160.558 195.456 160.362 195.82C160.175 196.184 160.082 196.637 160.082 197.178V201H158.738V193.58H160.026V195.582L159.816 195.05C160.059 194.565 160.432 194.187 160.936 193.916C161.44 193.645 162.028 193.51 162.7 193.51ZM170.815 201.084C170.068 201.084 169.49 200.883 169.079 200.482C168.668 200.081 168.463 199.507 168.463 198.76V191.956H169.807V198.704C169.807 199.105 169.905 199.413 170.101 199.628C170.306 199.843 170.596 199.95 170.969 199.95C171.389 199.95 171.739 199.833 172.019 199.6L172.439 200.566C172.234 200.743 171.986 200.874 171.697 200.958C171.417 201.042 171.123 201.084 170.815 201.084ZM167.203 194.686V193.58H171.935V194.686H167.203ZM182.43 201V199.432L182.36 199.138V196.464C182.36 195.895 182.192 195.456 181.856 195.148C181.529 194.831 181.034 194.672 180.372 194.672C179.933 194.672 179.504 194.747 179.084 194.896C178.664 195.036 178.309 195.227 178.02 195.47L177.46 194.462C177.842 194.154 178.3 193.921 178.832 193.762C179.373 193.594 179.938 193.51 180.526 193.51C181.543 193.51 182.327 193.757 182.878 194.252C183.428 194.747 183.704 195.503 183.704 196.52V201H182.43ZM179.994 201.084C179.443 201.084 178.958 200.991 178.538 200.804C178.127 200.617 177.81 200.361 177.586 200.034C177.362 199.698 177.25 199.32 177.25 198.9C177.25 198.499 177.343 198.135 177.53 197.808C177.726 197.481 178.038 197.22 178.468 197.024C178.906 196.828 179.494 196.73 180.232 196.73H182.584V197.696H180.288C179.616 197.696 179.163 197.808 178.93 198.032C178.696 198.256 178.58 198.527 178.58 198.844C178.58 199.208 178.724 199.502 179.014 199.726C179.303 199.941 179.704 200.048 180.218 200.048C180.722 200.048 181.16 199.936 181.534 199.712C181.916 199.488 182.192 199.161 182.36 198.732L182.626 199.656C182.448 200.095 182.136 200.445 181.688 200.706C181.24 200.958 180.675 201.084 179.994 201.084ZM193.017 201.084C192.298 201.084 191.654 200.925 191.085 200.608C190.525 200.291 190.081 199.847 189.755 199.278C189.428 198.709 189.265 198.046 189.265 197.29C189.265 196.534 189.428 195.876 189.755 195.316C190.081 194.747 190.525 194.303 191.085 193.986C191.654 193.669 192.298 193.51 193.017 193.51C193.661 193.51 194.235 193.65 194.739 193.93C195.243 194.21 195.639 194.63 195.929 195.19C196.227 195.75 196.377 196.45 196.377 197.29C196.377 198.13 196.223 198.83 195.915 199.39C195.616 199.95 195.215 200.375 194.711 200.664C194.207 200.944 193.642 201.084 193.017 201.084ZM193.129 199.908C193.595 199.908 194.015 199.801 194.389 199.586C194.771 199.371 195.07 199.068 195.285 198.676C195.509 198.275 195.621 197.813 195.621 197.29C195.621 196.758 195.509 196.301 195.285 195.918C195.07 195.526 194.771 195.223 194.389 195.008C194.015 194.793 193.595 194.686 193.129 194.686C192.653 194.686 192.228 194.793 191.855 195.008C191.481 195.223 191.183 195.526 190.959 195.918C190.735 196.301 190.623 196.758 190.623 197.29C190.623 197.813 190.735 198.275 190.959 198.676C191.183 199.068 191.481 199.371 191.855 199.586C192.228 199.801 192.653 199.908 193.129 199.908ZM195.607 203.716V199.026L195.747 197.304L195.663 195.582V193.58H196.951V203.716H195.607ZM202.616 201.084C201.981 201.084 201.421 200.967 200.936 200.734C200.46 200.501 200.086 200.146 199.816 199.67C199.554 199.185 199.424 198.578 199.424 197.85V193.58H200.768V197.696C200.768 198.424 200.94 198.97 201.286 199.334C201.64 199.698 202.135 199.88 202.77 199.88C203.236 199.88 203.642 199.787 203.988 199.6C204.333 199.404 204.599 199.124 204.786 198.76C204.972 198.387 205.066 197.939 205.066 197.416V193.58H206.41V201H205.136V198.998L205.346 199.53C205.103 200.025 204.739 200.407 204.254 200.678C203.768 200.949 203.222 201.084 202.616 201.084ZM208.968 201V193.58H210.312V201H208.968ZM209.64 192.152C209.379 192.152 209.16 192.068 208.982 191.9C208.814 191.732 208.73 191.527 208.73 191.284C208.73 191.032 208.814 190.822 208.982 190.654C209.16 190.486 209.379 190.402 209.64 190.402C209.902 190.402 210.116 190.486 210.284 190.654C210.462 190.813 210.55 191.013 210.55 191.256C210.55 191.508 210.466 191.723 210.298 191.9C210.13 192.068 209.911 192.152 209.64 192.152ZM216.112 201.084C215.356 201.084 214.68 200.921 214.082 200.594C213.494 200.267 213.032 199.819 212.696 199.25C212.36 198.681 212.192 198.027 212.192 197.29C212.192 196.553 212.36 195.899 212.696 195.33C213.032 194.761 213.494 194.317 214.082 194C214.68 193.673 215.356 193.51 216.112 193.51C216.784 193.51 217.382 193.645 217.904 193.916C218.436 194.177 218.847 194.569 219.136 195.092L218.114 195.75C217.872 195.386 217.573 195.12 217.218 194.952C216.873 194.775 216.5 194.686 216.098 194.686C215.613 194.686 215.179 194.793 214.796 195.008C214.414 195.223 214.11 195.526 213.886 195.918C213.662 196.301 213.55 196.758 213.55 197.29C213.55 197.822 213.662 198.284 213.886 198.676C214.11 199.068 214.414 199.371 214.796 199.586C215.179 199.801 215.613 199.908 216.098 199.908C216.5 199.908 216.873 199.824 217.218 199.656C217.573 199.479 217.872 199.208 218.114 198.844L219.136 199.488C218.847 200.001 218.436 200.398 217.904 200.678C217.382 200.949 216.784 201.084 216.112 201.084ZM221.873 199.208L221.901 197.486L226.171 193.58H227.795L224.519 196.8L223.791 197.416L221.873 199.208ZM220.781 201V190.612H222.125V201H220.781ZM226.451 201L223.539 197.388L224.407 196.31L228.103 201H226.451ZM235.562 201.112C234.871 201.112 234.199 201.005 233.546 200.79C232.902 200.575 232.374 200.286 231.964 199.922L232.608 198.816C232.934 199.124 233.359 199.376 233.882 199.572C234.404 199.768 234.964 199.866 235.562 199.866C236.29 199.866 236.854 199.712 237.256 199.404C237.666 199.087 237.872 198.662 237.872 198.13C237.872 197.617 237.676 197.206 237.284 196.898C236.901 196.581 236.29 196.422 235.45 196.422H234.666V195.442L237.578 191.858L237.774 192.418H232.412V191.2H238.88V192.152L235.982 195.722L235.254 195.288H235.716C236.901 195.288 237.788 195.554 238.376 196.086C238.973 196.618 239.272 197.295 239.272 198.116C239.272 198.667 239.136 199.171 238.866 199.628C238.595 200.085 238.184 200.449 237.634 200.72C237.092 200.981 236.402 201.112 235.562 201.112ZM240.703 197.738V196.576H244.469V197.738H240.703ZM37.609 210.51C38.2157 210.51 38.7477 210.627 39.205 210.86C39.6717 211.093 40.0357 211.448 40.297 211.924C40.5584 212.4 40.689 213.002 40.689 213.73V218H39.345V213.884C39.345 213.165 39.1677 212.624 38.813 212.26C38.4677 211.896 37.9777 211.714 37.343 211.714C36.867 211.714 36.4517 211.807 36.097 211.994C35.7424 212.181 35.467 212.456 35.271 212.82C35.0844 213.184 34.991 213.637 34.991 214.178V218H33.647V207.612H34.991V212.582L34.725 212.05C34.9677 211.565 35.341 211.187 35.845 210.916C36.349 210.645 36.937 210.51 37.609 210.51ZM46.3543 218.084C45.6077 218.084 44.945 217.921 44.3663 217.594C43.7877 217.267 43.3303 216.819 42.9943 216.25C42.6583 215.671 42.4903 215.018 42.4903 214.29C42.4903 213.553 42.6583 212.899 42.9943 212.33C43.3303 211.761 43.7877 211.317 44.3663 211C44.945 210.673 45.6077 210.51 46.3543 210.51C47.0917 210.51 47.7497 210.673 48.3283 211C48.9163 211.317 49.3737 211.761 49.7003 212.33C50.0363 212.89 50.2043 213.543 50.2043 214.29C50.2043 215.027 50.0363 215.681 49.7003 216.25C49.3737 216.819 48.9163 217.267 48.3283 217.594C47.7497 217.921 47.0917 218.084 46.3543 218.084ZM46.3543 216.908C46.8303 216.908 47.255 216.801 47.6283 216.586C48.011 216.371 48.3097 216.068 48.5243 215.676C48.739 215.275 48.8463 214.813 48.8463 214.29C48.8463 213.758 48.739 213.301 48.5243 212.918C48.3097 212.526 48.011 212.223 47.6283 212.008C47.255 211.793 46.8303 211.686 46.3543 211.686C45.8783 211.686 45.4537 211.793 45.0803 212.008C44.707 212.223 44.4083 212.526 44.1843 212.918C43.9603 213.301 43.8483 213.758 43.8483 214.29C43.8483 214.813 43.9603 215.275 44.1843 215.676C44.4083 216.068 44.707 216.371 45.0803 216.586C45.4537 216.801 45.8783 216.908 46.3543 216.908ZM55.1851 218.084C54.5504 218.084 53.9904 217.967 53.5051 217.734C53.0291 217.501 52.6557 217.146 52.3851 216.67C52.1237 216.185 51.9931 215.578 51.9931 214.85V210.58H53.3371V214.696C53.3371 215.424 53.5097 215.97 53.8551 216.334C54.2097 216.698 54.7044 216.88 55.3391 216.88C55.8057 216.88 56.2117 216.787 56.5571 216.6C56.9024 216.404 57.1684 216.124 57.3551 215.76C57.5417 215.387 57.6351 214.939 57.6351 214.416V210.58H58.9791V218H57.7051V215.998L57.9151 216.53C57.6724 217.025 57.3084 217.407 56.8231 217.678C56.3377 217.949 55.7917 218.084 55.1851 218.084ZM61.5377 218V210.58H62.8257V212.596L62.6997 212.092C62.905 211.579 63.2503 211.187 63.7357 210.916C64.221 210.645 64.8183 210.51 65.5277 210.51V211.812C65.4717 211.803 65.4157 211.798 65.3597 211.798C65.313 211.798 65.2663 211.798 65.2197 211.798C64.501 211.798 63.9317 212.013 63.5117 212.442C63.0917 212.871 62.8817 213.492 62.8817 214.304V218H61.5377ZM74.2736 218.084C73.5176 218.084 72.841 217.921 72.2436 217.594C71.6556 217.267 71.1936 216.819 70.8576 216.25C70.5216 215.681 70.3536 215.027 70.3536 214.29C70.3536 213.553 70.5216 212.899 70.8576 212.33C71.1936 211.761 71.6556 211.317 72.2436 211C72.841 210.673 73.5176 210.51 74.2736 210.51C74.9456 210.51 75.543 210.645 76.0656 210.916C76.5976 211.177 77.0083 211.569 77.2976 212.092L76.2756 212.75C76.033 212.386 75.7343 212.12 75.3796 211.952C75.0343 211.775 74.661 211.686 74.2596 211.686C73.7743 211.686 73.3403 211.793 72.9576 212.008C72.575 212.223 72.2716 212.526 72.0476 212.918C71.8236 213.301 71.7116 213.758 71.7116 214.29C71.7116 214.822 71.8236 215.284 72.0476 215.676C72.2716 216.068 72.575 216.371 72.9576 216.586C73.3403 216.801 73.7743 216.908 74.2596 216.908C74.661 216.908 75.0343 216.824 75.3796 216.656C75.7343 216.479 76.033 216.208 76.2756 215.844L77.2976 216.488C77.0083 217.001 76.5976 217.398 76.0656 217.678C75.543 217.949 74.9456 218.084 74.2736 218.084ZM78.942 218V210.58H80.286V218H78.942ZM79.614 209.152C79.3526 209.152 79.1333 209.068 78.956 208.9C78.788 208.732 78.704 208.527 78.704 208.284C78.704 208.032 78.788 207.822 78.956 207.654C79.1333 207.486 79.3526 207.402 79.614 207.402C79.8753 207.402 80.09 207.486 80.258 207.654C80.4353 207.813 80.524 208.013 80.524 208.256C80.524 208.508 80.44 208.723 80.272 208.9C80.104 209.068 79.8846 209.152 79.614 209.152ZM85.4001 218.084C84.6535 218.084 84.0748 217.883 83.6641 217.482C83.2535 217.081 83.0481 216.507 83.0481 215.76V208.956H84.3921V215.704C84.3921 216.105 84.4901 216.413 84.6861 216.628C84.8915 216.843 85.1808 216.95 85.5541 216.95C85.9741 216.95 86.3241 216.833 86.6041 216.6L87.0241 217.566C86.8188 217.743 86.5715 217.874 86.2821 217.958C86.0021 218.042 85.7081 218.084 85.4001 218.084ZM81.7881 211.686V210.58H86.5201V211.686H81.7881ZM88.8343 220.8C88.4796 220.8 88.1343 220.739 87.7983 220.618C87.4623 220.506 87.1729 220.338 86.9303 220.114L87.5043 219.106C87.6909 219.283 87.8963 219.419 88.1203 219.512C88.3443 219.605 88.5823 219.652 88.8343 219.652C89.1609 219.652 89.4316 219.568 89.6463 219.4C89.8609 219.232 90.0616 218.933 90.2483 218.504L90.7103 217.482L90.8503 217.314L93.7623 210.58H95.0783L91.4803 218.742C91.2656 219.265 91.0229 219.675 90.7523 219.974C90.4909 220.273 90.2016 220.483 89.8843 220.604C89.5669 220.735 89.2169 220.8 88.8343 220.8ZM90.5983 218.238L87.2103 210.58H88.6103L91.4943 217.188L90.5983 218.238ZM102.22 218.084C101.604 218.084 101.016 218 100.456 217.832C99.9057 217.664 99.4717 217.459 99.1544 217.216L99.7144 216.152C100.032 216.367 100.424 216.549 100.89 216.698C101.357 216.847 101.833 216.922 102.318 216.922C102.944 216.922 103.392 216.833 103.662 216.656C103.942 216.479 104.082 216.231 104.082 215.914C104.082 215.681 103.998 215.499 103.83 215.368C103.662 215.237 103.438 215.139 103.158 215.074C102.888 215.009 102.584 214.953 102.248 214.906C101.912 214.85 101.576 214.785 101.24 214.71C100.904 214.626 100.596 214.514 100.316 214.374C100.036 214.225 99.8124 214.024 99.6444 213.772C99.4764 213.511 99.3924 213.165 99.3924 212.736C99.3924 212.288 99.5184 211.896 99.7704 211.56C100.022 211.224 100.377 210.967 100.834 210.79C101.301 210.603 101.852 210.51 102.486 210.51C102.972 210.51 103.462 210.571 103.956 210.692C104.46 210.804 104.871 210.967 105.188 211.182L104.614 212.246C104.278 212.022 103.928 211.868 103.564 211.784C103.2 211.7 102.836 211.658 102.472 211.658C101.884 211.658 101.446 211.756 101.156 211.952C100.867 212.139 100.722 212.381 100.722 212.68C100.722 212.932 100.806 213.128 100.974 213.268C101.152 213.399 101.376 213.501 101.646 213.576C101.926 213.651 102.234 213.716 102.57 213.772C102.906 213.819 103.242 213.884 103.578 213.968C103.914 214.043 104.218 214.15 104.488 214.29C104.768 214.43 104.992 214.626 105.16 214.878C105.338 215.13 105.426 215.466 105.426 215.886C105.426 216.334 105.296 216.721 105.034 217.048C104.773 217.375 104.404 217.631 103.928 217.818C103.452 217.995 102.883 218.084 102.22 218.084ZM109.654 218.084C108.907 218.084 108.329 217.883 107.918 217.482C107.507 217.081 107.302 216.507 107.302 215.76V208.956H108.646V215.704C108.646 216.105 108.744 216.413 108.94 216.628C109.145 216.843 109.435 216.95 109.808 216.95C110.228 216.95 110.578 216.833 110.858 216.6L111.278 217.566C111.073 217.743 110.825 217.874 110.536 217.958C110.256 218.042 109.962 218.084 109.654 218.084ZM106.042 211.686V210.58H110.774V211.686H106.042ZM112.903 218V210.58H114.191V212.596L114.065 212.092C114.27 211.579 114.616 211.187 115.101 210.916C115.586 210.645 116.184 210.51 116.893 210.51V211.812C116.837 211.803 116.781 211.798 116.725 211.798C116.678 211.798 116.632 211.798 116.585 211.798C115.866 211.798 115.297 212.013 114.877 212.442C114.457 212.871 114.247 213.492 114.247 214.304V218H112.903ZM121.659 218.084C120.912 218.084 120.25 217.921 119.671 217.594C119.092 217.267 118.635 216.819 118.299 216.25C117.963 215.671 117.795 215.018 117.795 214.29C117.795 213.553 117.963 212.899 118.299 212.33C118.635 211.761 119.092 211.317 119.671 211C120.25 210.673 120.912 210.51 121.659 210.51C122.396 210.51 123.054 210.673 123.633 211C124.221 211.317 124.678 211.761 125.005 212.33C125.341 212.89 125.509 213.543 125.509 214.29C125.509 215.027 125.341 215.681 125.005 216.25C124.678 216.819 124.221 217.267 123.633 217.594C123.054 217.921 122.396 218.084 121.659 218.084ZM121.659 216.908C122.135 216.908 122.56 216.801 122.933 216.586C123.316 216.371 123.614 216.068 123.829 215.676C124.044 215.275 124.151 214.813 124.151 214.29C124.151 213.758 124.044 213.301 123.829 212.918C123.614 212.526 123.316 212.223 122.933 212.008C122.56 211.793 122.135 211.686 121.659 211.686C121.183 211.686 120.758 211.793 120.385 212.008C120.012 212.223 119.713 212.526 119.489 212.918C119.265 213.301 119.153 213.758 119.153 214.29C119.153 214.813 119.265 215.275 119.489 215.676C119.713 216.068 120.012 216.371 120.385 216.586C120.758 216.801 121.183 216.908 121.659 216.908ZM127.368 218V207.612H128.712V218H127.368ZM131.278 218V207.612H132.622V218H131.278ZM142.126 218.084C141.379 218.084 140.716 217.921 140.138 217.594C139.559 217.267 139.102 216.819 138.766 216.25C138.43 215.671 138.262 215.018 138.262 214.29C138.262 213.553 138.43 212.899 138.766 212.33C139.102 211.761 139.559 211.317 140.138 211C140.716 210.673 141.379 210.51 142.126 210.51C142.863 210.51 143.521 210.673 144.1 211C144.688 211.317 145.145 211.761 145.472 212.33C145.808 212.89 145.976 213.543 145.976 214.29C145.976 215.027 145.808 215.681 145.472 216.25C145.145 216.819 144.688 217.267 144.1 217.594C143.521 217.921 142.863 218.084 142.126 218.084ZM142.126 216.908C142.602 216.908 143.026 216.801 143.4 216.586C143.782 216.371 144.081 216.068 144.296 215.676C144.51 215.275 144.618 214.813 144.618 214.29C144.618 213.758 144.51 213.301 144.296 212.918C144.081 212.526 143.782 212.223 143.4 212.008C143.026 211.793 142.602 211.686 142.126 211.686C141.65 211.686 141.225 211.793 140.852 212.008C140.478 212.223 140.18 212.526 139.956 212.918C139.732 213.301 139.62 213.758 139.62 214.29C139.62 214.813 139.732 215.275 139.956 215.676C140.18 216.068 140.478 216.371 140.852 216.586C141.225 216.801 141.65 216.908 142.126 216.908ZM147.835 218V210.58H149.123V212.596L148.997 212.092C149.202 211.579 149.547 211.187 150.033 210.916C150.518 210.645 151.115 210.51 151.825 210.51V211.812C151.769 211.803 151.713 211.798 151.657 211.798C151.61 211.798 151.563 211.798 151.517 211.798C150.798 211.798 150.229 212.013 149.809 212.442C149.389 212.871 149.179 213.492 149.179 214.304V218H147.835ZM161.943 218V216.432L161.873 216.138V213.464C161.873 212.895 161.705 212.456 161.369 212.148C161.042 211.831 160.547 211.672 159.885 211.672C159.446 211.672 159.017 211.747 158.597 211.896C158.177 212.036 157.822 212.227 157.533 212.47L156.973 211.462C157.355 211.154 157.813 210.921 158.345 210.762C158.886 210.594 159.451 210.51 160.039 210.51C161.056 210.51 161.84 210.757 162.391 211.252C162.941 211.747 163.217 212.503 163.217 213.52V218H161.943ZM159.507 218.084C158.956 218.084 158.471 217.991 158.051 217.804C157.64 217.617 157.323 217.361 157.099 217.034C156.875 216.698 156.763 216.32 156.763 215.9C156.763 215.499 156.856 215.135 157.043 214.808C157.239 214.481 157.551 214.22 157.981 214.024C158.419 213.828 159.007 213.73 159.745 213.73H162.097V214.696H159.801C159.129 214.696 158.676 214.808 158.443 215.032C158.209 215.256 158.093 215.527 158.093 215.844C158.093 216.208 158.237 216.502 158.527 216.726C158.816 216.941 159.217 217.048 159.731 217.048C160.235 217.048 160.673 216.936 161.047 216.712C161.429 216.488 161.705 216.161 161.873 215.732L162.139 216.656C161.961 217.095 161.649 217.445 161.201 217.706C160.753 217.958 160.188 218.084 159.507 218.084ZM169.666 210.51C170.272 210.51 170.804 210.627 171.262 210.86C171.728 211.093 172.092 211.448 172.354 211.924C172.615 212.4 172.746 213.002 172.746 213.73V218H171.402V213.884C171.402 213.165 171.224 212.624 170.87 212.26C170.524 211.896 170.034 211.714 169.4 211.714C168.924 211.714 168.508 211.807 168.154 211.994C167.799 212.181 167.524 212.456 167.328 212.82C167.141 213.184 167.048 213.637 167.048 214.178V218H165.704V210.58H166.992V212.582L166.782 212.05C167.024 211.565 167.398 211.187 167.902 210.916C168.406 210.645 168.994 210.51 169.666 210.51ZM178.993 218V210.58H180.337V218H178.993ZM179.665 209.152C179.403 209.152 179.184 209.068 179.007 208.9C178.839 208.732 178.755 208.527 178.755 208.284C178.755 208.032 178.839 207.822 179.007 207.654C179.184 207.486 179.403 207.402 179.665 207.402C179.926 207.402 180.141 207.486 180.309 207.654C180.486 207.813 180.575 208.013 180.575 208.256C180.575 208.508 180.491 208.723 180.323 208.9C180.155 209.068 179.935 209.152 179.665 209.152ZM192.185 210.51C192.782 210.51 193.31 210.627 193.767 210.86C194.224 211.093 194.579 211.448 194.831 211.924C195.092 212.4 195.223 213.002 195.223 213.73V218H193.879V213.884C193.879 213.165 193.711 212.624 193.375 212.26C193.039 211.896 192.568 211.714 191.961 211.714C191.513 211.714 191.121 211.807 190.785 211.994C190.449 212.181 190.188 212.456 190.001 212.82C189.824 213.184 189.735 213.637 189.735 214.178V218H188.391V213.884C188.391 213.165 188.223 212.624 187.887 212.26C187.56 211.896 187.089 211.714 186.473 211.714C186.034 211.714 185.647 211.807 185.311 211.994C184.975 212.181 184.714 212.456 184.527 212.82C184.34 213.184 184.247 213.637 184.247 214.178V218H182.903V210.58H184.191V212.554L183.981 212.05C184.214 211.565 184.574 211.187 185.059 210.916C185.544 210.645 186.109 210.51 186.753 210.51C187.462 210.51 188.074 210.687 188.587 211.042C189.1 211.387 189.436 211.915 189.595 212.624L189.049 212.4C189.273 211.831 189.665 211.373 190.225 211.028C190.785 210.683 191.438 210.51 192.185 210.51ZM206.978 210.51C207.575 210.51 208.103 210.627 208.56 210.86C209.017 211.093 209.372 211.448 209.624 211.924C209.885 212.4 210.016 213.002 210.016 213.73V218H208.672V213.884C208.672 213.165 208.504 212.624 208.168 212.26C207.832 211.896 207.361 211.714 206.754 211.714C206.306 211.714 205.914 211.807 205.578 211.994C205.242 212.181 204.981 212.456 204.794 212.82C204.617 213.184 204.528 213.637 204.528 214.178V218H203.184V213.884C203.184 213.165 203.016 212.624 202.68 212.26C202.353 211.896 201.882 211.714 201.266 211.714C200.827 211.714 200.44 211.807 200.104 211.994C199.768 212.181 199.507 212.456 199.32 212.82C199.133 213.184 199.04 213.637 199.04 214.178V218H197.696V210.58H198.984V212.554L198.774 212.05C199.007 211.565 199.367 211.187 199.852 210.916C200.337 210.645 200.902 210.51 201.546 210.51C202.255 210.51 202.867 210.687 203.38 211.042C203.893 211.387 204.229 211.915 204.388 212.624L203.842 212.4C204.066 211.831 204.458 211.373 205.018 211.028C205.578 210.683 206.231 210.51 206.978 210.51ZM215.793 218.084C215 218.084 214.3 217.921 213.693 217.594C213.096 217.267 212.629 216.819 212.293 216.25C211.966 215.681 211.803 215.027 211.803 214.29C211.803 213.553 211.962 212.899 212.279 212.33C212.606 211.761 213.049 211.317 213.609 211C214.178 210.673 214.818 210.51 215.527 210.51C216.246 210.51 216.88 210.669 217.431 210.986C217.982 211.303 218.411 211.751 218.719 212.33C219.036 212.899 219.195 213.567 219.195 214.332C219.195 214.388 219.19 214.453 219.181 214.528C219.181 214.603 219.176 214.673 219.167 214.738H212.853V213.772H218.467L217.921 214.108C217.93 213.632 217.832 213.207 217.627 212.834C217.422 212.461 217.137 212.171 216.773 211.966C216.418 211.751 216.003 211.644 215.527 211.644C215.06 211.644 214.645 211.751 214.281 211.966C213.917 212.171 213.632 212.465 213.427 212.848C213.222 213.221 213.119 213.651 213.119 214.136V214.36C213.119 214.855 213.231 215.298 213.455 215.69C213.688 216.073 214.01 216.371 214.421 216.586C214.832 216.801 215.303 216.908 215.835 216.908C216.274 216.908 216.67 216.833 217.025 216.684C217.389 216.535 217.706 216.311 217.977 216.012L218.719 216.88C218.383 217.272 217.963 217.571 217.459 217.776C216.964 217.981 216.409 218.084 215.793 218.084ZM221.061 218V210.58H222.349V212.596L222.223 212.092C222.428 211.579 222.774 211.187 223.259 210.916C223.744 210.645 224.342 210.51 225.051 210.51V211.812C224.995 211.803 224.939 211.798 224.883 211.798C224.836 211.798 224.79 211.798 224.743 211.798C224.024 211.798 223.455 212.013 223.035 212.442C222.615 212.871 222.405 213.492 222.405 214.304V218H221.061ZM228.918 218.084C228.302 218.084 227.714 218 227.154 217.832C226.603 217.664 226.169 217.459 225.852 217.216L226.412 216.152C226.729 216.367 227.121 216.549 227.588 216.698C228.054 216.847 228.53 216.922 229.016 216.922C229.641 216.922 230.089 216.833 230.36 216.656C230.64 216.479 230.78 216.231 230.78 215.914C230.78 215.681 230.696 215.499 230.528 215.368C230.36 215.237 230.136 215.139 229.856 215.074C229.585 215.009 229.282 214.953 228.946 214.906C228.61 214.85 228.274 214.785 227.938 214.71C227.602 214.626 227.294 214.514 227.014 214.374C226.734 214.225 226.51 214.024 226.342 213.772C226.174 213.511 226.09 213.165 226.09 212.736C226.09 212.288 226.216 211.896 226.468 211.56C226.72 211.224 227.074 210.967 227.532 210.79C227.998 210.603 228.549 210.51 229.184 210.51C229.669 210.51 230.159 210.571 230.654 210.692C231.158 210.804 231.568 210.967 231.886 211.182L231.312 212.246C230.976 212.022 230.626 211.868 230.262 211.784C229.898 211.7 229.534 211.658 229.17 211.658C228.582 211.658 228.143 211.756 227.854 211.952C227.564 212.139 227.42 212.381 227.42 212.68C227.42 212.932 227.504 213.128 227.672 213.268C227.849 213.399 228.073 213.501 228.344 213.576C228.624 213.651 228.932 213.716 229.268 213.772C229.604 213.819 229.94 213.884 230.276 213.968C230.612 214.043 230.915 214.15 231.186 214.29C231.466 214.43 231.69 214.626 231.858 214.878C232.035 215.13 232.124 215.466 232.124 215.886C232.124 216.334 231.993 216.721 231.732 217.048C231.47 217.375 231.102 217.631 230.626 217.818C230.15 217.995 229.58 218.084 228.918 218.084ZM233.803 218V210.58H235.147V218H233.803ZM234.475 209.152C234.214 209.152 233.995 209.068 233.817 208.9C233.649 208.732 233.565 208.527 233.565 208.284C233.565 208.032 233.649 207.822 233.817 207.654C233.995 207.486 234.214 207.402 234.475 207.402C234.737 207.402 234.951 207.486 235.119 207.654C235.297 207.813 235.385 208.013 235.385 208.256C235.385 208.508 235.301 208.723 235.133 208.9C234.965 209.068 234.746 209.152 234.475 209.152ZM239.659 218L236.411 210.58H237.811L240.695 217.3H240.023L242.963 210.58H244.279L241.031 218H239.659ZM248.633 218.084C247.839 218.084 247.139 217.921 246.533 217.594C245.935 217.267 245.469 216.819 245.133 216.25C244.806 215.681 244.643 215.027 244.643 214.29C244.643 213.553 244.801 212.899 245.119 212.33C245.445 211.761 245.889 211.317 246.449 211C247.018 210.673 247.657 210.51 248.367 210.51C249.085 210.51 249.72 210.669 250.271 210.986C250.821 211.303 251.251 211.751 251.559 212.33C251.876 212.899 252.035 213.567 252.035 214.332C252.035 214.388 252.03 214.453 252.021 214.528C252.021 214.603 252.016 214.673 252.007 214.738H245.693V213.772H251.307L250.761 214.108C250.77 213.632 250.672 213.207 250.467 212.834C250.261 212.461 249.977 212.171 249.613 211.966C249.258 211.751 248.843 211.644 248.367 211.644C247.9 211.644 247.485 211.751 247.121 211.966C246.757 212.171 246.472 212.465 246.267 212.848C246.061 213.221 245.959 213.651 245.959 214.136V214.36C245.959 214.855 246.071 215.298 246.295 215.69C246.528 216.073 246.85 216.371 247.261 216.586C247.671 216.801 248.143 216.908 248.675 216.908C249.113 216.908 249.51 216.833 249.865 216.684C250.229 216.535 250.546 216.311 250.817 216.012L251.559 216.88C251.223 217.272 250.803 217.571 250.299 217.776C249.804 217.981 249.249 218.084 248.633 218.084ZM37.2142 227.51C37.8115 227.51 38.3389 227.627 38.7962 227.86C39.2535 228.093 39.6082 228.448 39.8602 228.924C40.1215 229.4 40.2522 230.002 40.2522 230.73V235H38.9082V230.884C38.9082 230.165 38.7402 229.624 38.4042 229.26C38.0682 228.896 37.5969 228.714 36.9902 228.714C36.5422 228.714 36.1502 228.807 35.8142 228.994C35.4782 229.181 35.2169 229.456 35.0302 229.82C34.8529 230.184 34.7642 230.637 34.7642 231.178V235H33.4202V230.884C33.4202 230.165 33.2522 229.624 32.9162 229.26C32.5895 228.896 32.1182 228.714 31.5022 228.714C31.0635 228.714 30.6762 228.807 30.3402 228.994C30.0042 229.181 29.7429 229.456 29.5562 229.82C29.3695 230.184 29.2762 230.637 29.2762 231.178V235H27.9322V227.58H29.2202V229.554L29.0102 229.05C29.2435 228.565 29.6029 228.187 30.0882 227.916C30.5735 227.645 31.1382 227.51 31.7822 227.51C32.4915 227.51 33.1029 227.687 33.6162 228.042C34.1295 228.387 34.4655 228.915 34.6242 229.624L34.0782 229.4C34.3022 228.831 34.6942 228.373 35.2542 228.028C35.8142 227.683 36.4675 227.51 37.2142 227.51ZM45.8472 235.084C45.2125 235.084 44.6525 234.967 44.1672 234.734C43.6912 234.501 43.3178 234.146 43.0472 233.67C42.7858 233.185 42.6552 232.578 42.6552 231.85V227.58H43.9992V231.696C43.9992 232.424 44.1718 232.97 44.5172 233.334C44.8718 233.698 45.3665 233.88 46.0012 233.88C46.4678 233.88 46.8738 233.787 47.2192 233.6C47.5645 233.404 47.8305 233.124 48.0172 232.76C48.2038 232.387 48.2972 231.939 48.2972 231.416V227.58H49.6412V235H48.3672V232.998L48.5772 233.53C48.3345 234.025 47.9705 234.407 47.4852 234.678C46.9998 234.949 46.4538 235.084 45.8472 235.084ZM52.1998 235V224.612H53.5438V235H52.1998ZM58.8493 235.084C58.1027 235.084 57.524 234.883 57.1133 234.482C56.7027 234.081 56.4973 233.507 56.4973 232.76V225.956H57.8413V232.704C57.8413 233.105 57.9393 233.413 58.1353 233.628C58.3407 233.843 58.63 233.95 59.0033 233.95C59.4233 233.95 59.7733 233.833 60.0533 233.6L60.4733 234.566C60.268 234.743 60.0207 234.874 59.7313 234.958C59.4513 235.042 59.1573 235.084 58.8493 235.084ZM55.2373 228.686V227.58H59.9693V228.686H55.2373ZM62.0982 235V227.58H63.4422V235H62.0982ZM62.7702 226.152C62.5089 226.152 62.2896 226.068 62.1122 225.9C61.9442 225.732 61.8602 225.527 61.8602 225.284C61.8602 225.032 61.9442 224.822 62.1122 224.654C62.2896 224.486 62.5089 224.402 62.7702 224.402C63.0316 224.402 63.2462 224.486 63.4142 224.654C63.5916 224.813 63.6802 225.013 63.6802 225.256C63.6802 225.508 63.5962 225.723 63.4282 225.9C63.2602 226.068 63.0409 226.152 62.7702 226.152ZM65.5324 231.738V230.576H69.2984V231.738H65.5324ZM74.5705 235.084C73.8518 235.084 73.2078 234.925 72.6385 234.608C72.0785 234.291 71.6351 233.847 71.3085 233.278C70.9818 232.709 70.8185 232.046 70.8185 231.29C70.8185 230.534 70.9818 229.876 71.3085 229.316C71.6351 228.747 72.0785 228.303 72.6385 227.986C73.2078 227.669 73.8518 227.51 74.5705 227.51C75.1958 227.51 75.7605 227.65 76.2645 227.93C76.7685 228.21 77.1698 228.63 77.4685 229.19C77.7765 229.75 77.9305 230.45 77.9305 231.29C77.9305 232.13 77.7811 232.83 77.4825 233.39C77.1931 233.95 76.7965 234.375 76.2925 234.664C75.7885 234.944 75.2145 235.084 74.5705 235.084ZM74.6825 233.908C75.1491 233.908 75.5691 233.801 75.9425 233.586C76.3251 233.371 76.6238 233.068 76.8385 232.676C77.0625 232.275 77.1745 231.813 77.1745 231.29C77.1745 230.758 77.0625 230.301 76.8385 229.918C76.6238 229.526 76.3251 229.223 75.9425 229.008C75.5691 228.793 75.1491 228.686 74.6825 228.686C74.2065 228.686 73.7818 228.793 73.4085 229.008C73.0351 229.223 72.7365 229.526 72.5125 229.918C72.2885 230.301 72.1765 230.758 72.1765 231.29C72.1765 231.813 72.2885 232.275 72.5125 232.676C72.7365 233.068 73.0351 233.371 73.4085 233.586C73.7818 233.801 74.2065 233.908 74.6825 233.908ZM77.2165 235V232.998L77.3005 231.276L77.1605 229.554V224.612H78.5045V235H77.2165ZM85.6534 235V233.432L85.5834 233.138V230.464C85.5834 229.895 85.4154 229.456 85.0794 229.148C84.7528 228.831 84.2581 228.672 83.5954 228.672C83.1568 228.672 82.7274 228.747 82.3074 228.896C81.8874 229.036 81.5328 229.227 81.2434 229.47L80.6834 228.462C81.0661 228.154 81.5234 227.921 82.0554 227.762C82.5968 227.594 83.1614 227.51 83.7494 227.51C84.7668 227.51 85.5508 227.757 86.1014 228.252C86.6521 228.747 86.9274 229.503 86.9274 230.52V235H85.6534ZM83.2174 235.084C82.6668 235.084 82.1814 234.991 81.7614 234.804C81.3508 234.617 81.0334 234.361 80.8094 234.034C80.5854 233.698 80.4734 233.32 80.4734 232.9C80.4734 232.499 80.5668 232.135 80.7534 231.808C80.9494 231.481 81.2621 231.22 81.6914 231.024C82.1301 230.828 82.7181 230.73 83.4554 230.73H85.8074V231.696H83.5114C82.8394 231.696 82.3868 231.808 82.1534 232.032C81.9201 232.256 81.8034 232.527 81.8034 232.844C81.8034 233.208 81.9481 233.502 82.2374 233.726C82.5268 233.941 82.9281 234.048 83.4414 234.048C83.9454 234.048 84.3841 233.936 84.7574 233.712C85.1401 233.488 85.4154 233.161 85.5834 232.732L85.8494 233.656C85.6721 234.095 85.3594 234.445 84.9114 234.706C84.4634 234.958 83.8988 235.084 83.2174 235.084ZM89.5999 237.8C89.2452 237.8 88.8999 237.739 88.5639 237.618C88.2279 237.506 87.9386 237.338 87.6959 237.114L88.2699 236.106C88.4566 236.283 88.6619 236.419 88.8859 236.512C89.1099 236.605 89.3479 236.652 89.5999 236.652C89.9266 236.652 90.1972 236.568 90.4119 236.4C90.6266 236.232 90.8272 235.933 91.0139 235.504L91.4759 234.482L91.6159 234.314L94.5279 227.58H95.8439L92.2459 235.742C92.0312 236.265 91.7886 236.675 91.5179 236.974C91.2566 237.273 90.9672 237.483 90.6499 237.604C90.3326 237.735 89.9826 237.8 89.5999 237.8ZM91.3639 235.238L87.9759 227.58H89.3759L92.2599 234.188L91.3639 235.238ZM104.092 235.084C103.336 235.084 102.659 234.921 102.062 234.594C101.474 234.267 101.012 233.819 100.676 233.25C100.34 232.681 100.172 232.027 100.172 231.29C100.172 230.553 100.34 229.899 100.676 229.33C101.012 228.761 101.474 228.317 102.062 228C102.659 227.673 103.336 227.51 104.092 227.51C104.764 227.51 105.361 227.645 105.884 227.916C106.416 228.177 106.827 228.569 107.116 229.092L106.094 229.75C105.851 229.386 105.553 229.12 105.198 228.952C104.853 228.775 104.479 228.686 104.078 228.686C103.593 228.686 103.159 228.793 102.776 229.008C102.393 229.223 102.09 229.526 101.866 229.918C101.642 230.301 101.53 230.758 101.53 231.29C101.53 231.822 101.642 232.284 101.866 232.676C102.09 233.068 102.393 233.371 102.776 233.586C103.159 233.801 103.593 233.908 104.078 233.908C104.479 233.908 104.853 233.824 105.198 233.656C105.553 233.479 105.851 233.208 106.094 232.844L107.116 233.488C106.827 234.001 106.416 234.398 105.884 234.678C105.361 234.949 104.764 235.084 104.092 235.084ZM111.978 235.084C111.343 235.084 110.783 234.967 110.298 234.734C109.822 234.501 109.449 234.146 109.178 233.67C108.917 233.185 108.786 232.578 108.786 231.85V227.58H110.13V231.696C110.13 232.424 110.303 232.97 110.648 233.334C111.003 233.698 111.497 233.88 112.132 233.88C112.599 233.88 113.005 233.787 113.35 233.6C113.695 233.404 113.961 233.124 114.148 232.76C114.335 232.387 114.428 231.939 114.428 231.416V227.58H115.772V235H114.498V232.998L114.708 233.53C114.465 234.025 114.101 234.407 113.616 234.678C113.131 234.949 112.585 235.084 111.978 235.084ZM118.331 235V224.612H119.675V235H118.331ZM124.98 235.084C124.234 235.084 123.655 234.883 123.244 234.482C122.834 234.081 122.628 233.507 122.628 232.76V225.956H123.972V232.704C123.972 233.105 124.07 233.413 124.266 233.628C124.472 233.843 124.761 233.95 125.134 233.95C125.554 233.95 125.904 233.833 126.184 233.6L126.604 234.566C126.399 234.743 126.152 234.874 125.862 234.958C125.582 235.042 125.288 235.084 124.98 235.084ZM121.368 228.686V227.58H126.1V228.686H121.368ZM131.351 235.084C130.716 235.084 130.156 234.967 129.671 234.734C129.195 234.501 128.822 234.146 128.551 233.67C128.29 233.185 128.159 232.578 128.159 231.85V227.58H129.503V231.696C129.503 232.424 129.676 232.97 130.021 233.334C130.376 233.698 130.87 233.88 131.505 233.88C131.972 233.88 132.378 233.787 132.723 233.6C133.068 233.404 133.334 233.124 133.521 232.76C133.708 232.387 133.801 231.939 133.801 231.416V227.58H135.145V235H133.871V232.998L134.081 233.53C133.838 234.025 133.474 234.407 132.989 234.678C132.504 234.949 131.958 235.084 131.351 235.084ZM137.704 235V227.58H138.992V229.596L138.866 229.092C139.071 228.579 139.416 228.187 139.902 227.916C140.387 227.645 140.984 227.51 141.694 227.51V228.812C141.638 228.803 141.582 228.798 141.526 228.798C141.479 228.798 141.432 228.798 141.386 228.798C140.667 228.798 140.098 229.013 139.678 229.442C139.258 229.871 139.048 230.492 139.048 231.304V235H137.704ZM147.409 235V233.432L147.339 233.138V230.464C147.339 229.895 147.171 229.456 146.835 229.148C146.509 228.831 146.014 228.672 145.351 228.672C144.913 228.672 144.483 228.747 144.063 228.896C143.643 229.036 143.289 229.227 142.999 229.47L142.439 228.462C142.822 228.154 143.279 227.921 143.811 227.762C144.353 227.594 144.917 227.51 145.505 227.51C146.523 227.51 147.307 227.757 147.857 228.252C148.408 228.747 148.683 229.503 148.683 230.52V235H147.409ZM144.973 235.084C144.423 235.084 143.937 234.991 143.517 234.804C143.107 234.617 142.789 234.361 142.565 234.034C142.341 233.698 142.229 233.32 142.229 232.9C142.229 232.499 142.323 232.135 142.509 231.808C142.705 231.481 143.018 231.22 143.447 231.024C143.886 230.828 144.474 230.73 145.211 230.73H147.563V231.696H145.267C144.595 231.696 144.143 231.808 143.909 232.032C143.676 232.256 143.559 232.527 143.559 232.844C143.559 233.208 143.704 233.502 143.993 233.726C144.283 233.941 144.684 234.048 145.197 234.048C145.701 234.048 146.14 233.936 146.513 233.712C146.896 233.488 147.171 233.161 147.339 232.732L147.605 233.656C147.428 234.095 147.115 234.445 146.667 234.706C146.219 234.958 145.655 235.084 144.973 235.084ZM151.17 235V224.612H152.514V235H151.17ZM157.888 237.8C157.58 237.8 157.286 237.763 157.006 237.688C156.717 237.613 156.474 237.501 156.278 237.352L156.712 236.316C156.992 236.549 157.356 236.666 157.804 236.666C158.159 236.666 158.43 236.554 158.616 236.33C158.812 236.115 158.91 235.793 158.91 235.364V227.58H160.254V235.336C160.254 236.092 160.049 236.689 159.638 237.128C159.237 237.576 158.654 237.8 157.888 237.8ZM159.582 226.152C159.321 226.152 159.102 226.068 158.924 225.9C158.756 225.732 158.672 225.527 158.672 225.284C158.672 225.032 158.756 224.822 158.924 224.654C159.102 224.486 159.321 224.402 159.582 224.402C159.844 224.402 160.058 224.486 160.226 224.654C160.404 224.813 160.492 225.013 160.492 225.256C160.492 225.508 160.408 225.723 160.24 225.9C160.072 226.068 159.853 226.152 159.582 226.152ZM165.997 235.084C165.25 235.084 164.588 234.921 164.009 234.594C163.43 234.267 162.973 233.819 162.637 233.25C162.301 232.671 162.133 232.018 162.133 231.29C162.133 230.553 162.301 229.899 162.637 229.33C162.973 228.761 163.43 228.317 164.009 228C164.588 227.673 165.25 227.51 165.997 227.51C166.734 227.51 167.392 227.673 167.971 228C168.559 228.317 169.016 228.761 169.343 229.33C169.679 229.89 169.847 230.543 169.847 231.29C169.847 232.027 169.679 232.681 169.343 233.25C169.016 233.819 168.559 234.267 167.971 234.594C167.392 234.921 166.734 235.084 165.997 235.084ZM165.997 233.908C166.473 233.908 166.898 233.801 167.271 233.586C167.654 233.371 167.952 233.068 168.167 232.676C168.382 232.275 168.489 231.813 168.489 231.29C168.489 230.758 168.382 230.301 168.167 229.918C167.952 229.526 167.654 229.223 167.271 229.008C166.898 228.793 166.473 228.686 165.997 228.686C165.521 228.686 165.096 228.793 164.723 229.008C164.35 229.223 164.051 229.526 163.827 229.918C163.603 230.301 163.491 230.758 163.491 231.29C163.491 231.813 163.603 232.275 163.827 232.676C164.051 233.068 164.35 233.371 164.723 233.586C165.096 233.801 165.521 233.908 165.997 233.908ZM174.828 235.084C174.193 235.084 173.633 234.967 173.148 234.734C172.672 234.501 172.298 234.146 172.028 233.67C171.766 233.185 171.636 232.578 171.636 231.85V227.58H172.98V231.696C172.98 232.424 173.152 232.97 173.498 233.334C173.852 233.698 174.347 233.88 174.982 233.88C175.448 233.88 175.854 233.787 176.2 233.6C176.545 233.404 176.811 233.124 176.998 232.76C177.184 232.387 177.278 231.939 177.278 231.416V227.58H178.622V235H177.348V232.998L177.558 233.53C177.315 234.025 176.951 234.407 176.466 234.678C175.98 234.949 175.434 235.084 174.828 235.084ZM181.18 235V227.58H182.468V229.596L182.342 229.092C182.548 228.579 182.893 228.187 183.378 227.916C183.864 227.645 184.461 227.51 185.17 227.51V228.812C185.114 228.803 185.058 228.798 185.002 228.798C184.956 228.798 184.909 228.798 184.862 228.798C184.144 228.798 183.574 229.013 183.154 229.442C182.734 229.871 182.524 230.492 182.524 231.304V235H181.18ZM190.789 227.51C191.395 227.51 191.927 227.627 192.385 227.86C192.851 228.093 193.215 228.448 193.477 228.924C193.738 229.4 193.869 230.002 193.869 230.73V235H192.525V230.884C192.525 230.165 192.347 229.624 191.993 229.26C191.647 228.896 191.157 228.714 190.523 228.714C190.047 228.714 189.631 228.807 189.277 228.994C188.922 229.181 188.647 229.456 188.451 229.82C188.264 230.184 188.171 230.637 188.171 231.178V235H186.827V227.58H188.115V229.582L187.905 229.05C188.147 228.565 188.521 228.187 189.025 227.916C189.529 227.645 190.117 227.51 190.789 227.51ZM199.66 235.084C198.867 235.084 198.167 234.921 197.56 234.594C196.963 234.267 196.496 233.819 196.16 233.25C195.833 232.681 195.67 232.027 195.67 231.29C195.67 230.553 195.829 229.899 196.146 229.33C196.473 228.761 196.916 228.317 197.476 228C198.045 227.673 198.685 227.51 199.394 227.51C200.113 227.51 200.747 227.669 201.298 227.986C201.849 228.303 202.278 228.751 202.586 229.33C202.903 229.899 203.062 230.567 203.062 231.332C203.062 231.388 203.057 231.453 203.048 231.528C203.048 231.603 203.043 231.673 203.034 231.738H196.72V230.772H202.334L201.788 231.108C201.797 230.632 201.699 230.207 201.494 229.834C201.289 229.461 201.004 229.171 200.64 228.966C200.285 228.751 199.87 228.644 199.394 228.644C198.927 228.644 198.512 228.751 198.148 228.966C197.784 229.171 197.499 229.465 197.294 229.848C197.089 230.221 196.986 230.651 196.986 231.136V231.36C196.986 231.855 197.098 232.298 197.322 232.69C197.555 233.073 197.877 233.371 198.288 233.586C198.699 233.801 199.17 233.908 199.702 233.908C200.141 233.908 200.537 233.833 200.892 233.684C201.256 233.535 201.573 233.311 201.844 233.012L202.586 233.88C202.25 234.272 201.83 234.571 201.326 234.776C200.831 234.981 200.276 235.084 199.66 235.084ZM205.114 237.8C204.759 237.8 204.414 237.739 204.078 237.618C203.742 237.506 203.452 237.338 203.21 237.114L203.784 236.106C203.97 236.283 204.176 236.419 204.4 236.512C204.624 236.605 204.862 236.652 205.114 236.652C205.44 236.652 205.711 236.568 205.926 236.4C206.14 236.232 206.341 235.933 206.528 235.504L206.99 234.482L207.13 234.314L210.042 227.58H211.358L207.76 235.742C207.545 236.265 207.302 236.675 207.032 236.974C206.77 237.273 206.481 237.483 206.164 237.604C205.846 237.735 205.496 237.8 205.114 237.8ZM206.878 235.238L203.49 227.58H204.89L207.774 234.188L206.878 235.238ZM211.615 237.072L212.315 234.244L212.497 235.056C212.226 235.056 211.998 234.972 211.811 234.804C211.634 234.636 211.545 234.407 211.545 234.118C211.545 233.838 211.634 233.609 211.811 233.432C211.998 233.255 212.222 233.166 212.483 233.166C212.754 233.166 212.973 233.259 213.141 233.446C213.309 233.623 213.393 233.847 213.393 234.118C213.393 234.211 213.384 234.305 213.365 234.398C213.356 234.482 213.332 234.585 213.295 234.706C213.267 234.818 213.22 234.958 213.155 235.126L212.497 237.072H211.615ZM220.647 235L217.889 227.58H219.163L221.613 234.3H221.011L223.559 227.58H224.693L227.185 234.3H226.597L229.103 227.58H230.307L227.535 235H226.247L223.909 228.868H224.301L221.935 235H220.647ZM234.769 235.084C233.976 235.084 233.276 234.921 232.669 234.594C232.072 234.267 231.605 233.819 231.269 233.25C230.943 232.681 230.779 232.027 230.779 231.29C230.779 230.553 230.938 229.899 231.255 229.33C231.582 228.761 232.025 228.317 232.585 228C233.155 227.673 233.794 227.51 234.503 227.51C235.222 227.51 235.857 227.669 236.407 227.986C236.958 228.303 237.387 228.751 237.695 229.33C238.013 229.899 238.171 230.567 238.171 231.332C238.171 231.388 238.167 231.453 238.157 231.528C238.157 231.603 238.153 231.673 238.143 231.738H231.829V230.772H237.443L236.897 231.108C236.907 230.632 236.809 230.207 236.603 229.834C236.398 229.461 236.113 229.171 235.749 228.966C235.395 228.751 234.979 228.644 234.503 228.644C234.037 228.644 233.621 228.751 233.257 228.966C232.893 229.171 232.609 229.465 232.403 229.848C232.198 230.221 232.095 230.651 232.095 231.136V231.36C232.095 231.855 232.207 232.298 232.431 232.69C232.665 233.073 232.987 233.371 233.397 233.586C233.808 233.801 234.279 233.908 234.811 233.908C235.25 233.908 235.647 233.833 236.001 233.684C236.365 233.535 236.683 233.311 236.953 233.012L237.695 233.88C237.359 234.272 236.939 234.571 236.435 234.776C235.941 234.981 235.385 235.084 234.769 235.084ZM239.492 228.434L240.192 225.592L240.374 226.404C240.103 226.404 239.875 226.32 239.688 226.152C239.511 225.984 239.422 225.76 239.422 225.48C239.422 225.191 239.511 224.962 239.688 224.794C239.875 224.617 240.099 224.528 240.36 224.528C240.631 224.528 240.85 224.621 241.018 224.808C241.186 224.985 241.27 225.209 241.27 225.48C241.27 225.564 241.265 225.653 241.256 225.746C241.247 225.83 241.223 225.928 241.186 226.04C241.158 226.152 241.111 226.297 241.046 226.474L240.374 228.434H239.492ZM245.374 235L242.126 227.58H243.526L246.41 234.3H245.738L248.678 227.58H249.994L246.746 235H245.374ZM254.348 235.084C253.554 235.084 252.854 234.921 252.248 234.594C251.65 234.267 251.184 233.819 250.848 233.25C250.521 232.681 250.358 232.027 250.358 231.29C250.358 230.553 250.516 229.899 250.834 229.33C251.16 228.761 251.604 228.317 252.164 228C252.733 227.673 253.372 227.51 254.082 227.51C254.8 227.51 255.435 227.669 255.986 227.986C256.536 228.303 256.966 228.751 257.274 229.33C257.591 229.899 257.75 230.567 257.75 231.332C257.75 231.388 257.745 231.453 257.736 231.528C257.736 231.603 257.731 231.673 257.722 231.738H251.408V230.772H257.022L256.476 231.108C256.485 230.632 256.387 230.207 256.182 229.834C255.976 229.461 255.692 229.171 255.328 228.966C254.973 228.751 254.558 228.644 254.082 228.644C253.615 228.644 253.2 228.751 252.836 228.966C252.472 229.171 252.187 229.465 251.982 229.848C251.776 230.221 251.674 230.651 251.674 231.136V231.36C251.674 231.855 251.786 232.298 252.01 232.69C252.243 233.073 252.565 233.371 252.976 233.586C253.386 233.801 253.858 233.908 254.39 233.908C254.828 233.908 255.225 233.833 255.58 233.684C255.944 233.535 256.261 233.311 256.532 233.012L257.274 233.88C256.938 234.272 256.518 234.571 256.014 234.776C255.519 234.981 254.964 235.084 254.348 235.084ZM39.6704 254.8C38.9891 254.8 38.3264 254.702 37.6824 254.506C37.0478 254.319 36.5298 254.049 36.1284 253.694L36.7724 252.658C37.1178 252.957 37.5424 253.19 38.0464 253.358C38.5504 253.535 39.0778 253.624 39.6284 253.624C40.5058 253.624 41.1498 253.419 41.5604 253.008C41.9711 252.597 42.1764 251.972 42.1764 251.132V249.564L42.3164 248.094L42.2464 246.61V244.58H43.5204V250.992C43.5204 252.299 43.1938 253.26 42.5404 253.876C41.8871 254.492 40.9304 254.8 39.6704 254.8ZM39.5024 251.692C38.7838 251.692 38.1398 251.543 37.5704 251.244C37.0104 250.936 36.5624 250.511 36.2264 249.97C35.8998 249.429 35.7364 248.803 35.7364 248.094C35.7364 247.375 35.8998 246.75 36.2264 246.218C36.5624 245.677 37.0104 245.257 37.5704 244.958C38.1398 244.659 38.7838 244.51 39.5024 244.51C40.1371 244.51 40.7158 244.641 41.2384 244.902C41.7611 245.154 42.1764 245.546 42.4844 246.078C42.8018 246.61 42.9604 247.282 42.9604 248.094C42.9604 248.897 42.8018 249.564 42.4844 250.096C42.1764 250.628 41.7611 251.029 41.2384 251.3C40.7158 251.561 40.1371 251.692 39.5024 251.692ZM39.6564 250.516C40.1511 250.516 40.5898 250.413 40.9724 250.208C41.3551 250.003 41.6538 249.718 41.8684 249.354C42.0924 248.99 42.2044 248.57 42.2044 248.094C42.2044 247.618 42.0924 247.198 41.8684 246.834C41.6538 246.47 41.3551 246.19 40.9724 245.994C40.5898 245.789 40.1511 245.686 39.6564 245.686C39.1618 245.686 38.7184 245.789 38.3264 245.994C37.9438 246.19 37.6404 246.47 37.4164 246.834C37.2018 247.198 37.0944 247.618 37.0944 248.094C37.0944 248.57 37.2018 248.99 37.4164 249.354C37.6404 249.718 37.9438 250.003 38.3264 250.208C38.7184 250.413 39.1618 250.516 39.6564 250.516ZM49.2665 252.084C48.5198 252.084 47.8571 251.921 47.2785 251.594C46.6998 251.267 46.2425 250.819 45.9065 250.25C45.5705 249.671 45.4025 249.018 45.4025 248.29C45.4025 247.553 45.5705 246.899 45.9065 246.33C46.2425 245.761 46.6998 245.317 47.2785 245C47.8571 244.673 48.5198 244.51 49.2665 244.51C50.0038 244.51 50.6618 244.673 51.2405 245C51.8285 245.317 52.2858 245.761 52.6125 246.33C52.9485 246.89 53.1165 247.543 53.1165 248.29C53.1165 249.027 52.9485 249.681 52.6125 250.25C52.2858 250.819 51.8285 251.267 51.2405 251.594C50.6618 251.921 50.0038 252.084 49.2665 252.084ZM49.2665 250.908C49.7425 250.908 50.1671 250.801 50.5405 250.586C50.9231 250.371 51.2218 250.068 51.4365 249.676C51.6511 249.275 51.7585 248.813 51.7585 248.29C51.7585 247.758 51.6511 247.301 51.4365 246.918C51.2218 246.526 50.9231 246.223 50.5405 246.008C50.1671 245.793 49.7425 245.686 49.2665 245.686C48.7905 245.686 48.3658 245.793 47.9925 246.008C47.6191 246.223 47.3205 246.526 47.0965 246.918C46.8725 247.301 46.7605 247.758 46.7605 248.29C46.7605 248.813 46.8725 249.275 47.0965 249.676C47.3205 250.068 47.6191 250.371 47.9925 250.586C48.3658 250.801 48.7905 250.908 49.2665 250.908ZM57.5232 252.084C56.7765 252.084 56.1978 251.883 55.7872 251.482C55.3765 251.081 55.1712 250.507 55.1712 249.76V242.956H56.5152V249.704C56.5152 250.105 56.6132 250.413 56.8092 250.628C57.0145 250.843 57.3038 250.95 57.6772 250.95C58.0972 250.95 58.4472 250.833 58.7272 250.6L59.1472 251.566C58.9418 251.743 58.6945 251.874 58.4052 251.958C58.1252 252.042 57.8312 252.084 57.5232 252.084ZM53.9112 245.686V244.58H58.6432V245.686H53.9112ZM69.1378 252V250.432L69.0678 250.138V247.464C69.0678 246.895 68.8998 246.456 68.5638 246.148C68.2371 245.831 67.7425 245.672 67.0798 245.672C66.6411 245.672 66.2118 245.747 65.7918 245.896C65.3718 246.036 65.0171 246.227 64.7278 246.47L64.1678 245.462C64.5505 245.154 65.0078 244.921 65.5398 244.762C66.0811 244.594 66.6458 244.51 67.2338 244.51C68.2511 244.51 69.0351 244.757 69.5858 245.252C70.1365 245.747 70.4118 246.503 70.4118 247.52V252H69.1378ZM66.7018 252.084C66.1511 252.084 65.6658 251.991 65.2458 251.804C64.8351 251.617 64.5178 251.361 64.2938 251.034C64.0698 250.698 63.9578 250.32 63.9578 249.9C63.9578 249.499 64.0511 249.135 64.2378 248.808C64.4338 248.481 64.7465 248.22 65.1758 248.024C65.6145 247.828 66.2025 247.73 66.9398 247.73H69.2918V248.696H66.9958C66.3238 248.696 65.8711 248.808 65.6378 249.032C65.4045 249.256 65.2878 249.527 65.2878 249.844C65.2878 250.208 65.4325 250.502 65.7218 250.726C66.0111 250.941 66.4125 251.048 66.9258 251.048C67.4298 251.048 67.8685 250.936 68.2418 250.712C68.6245 250.488 68.8998 250.161 69.0678 249.732L69.3338 250.656C69.1565 251.095 68.8438 251.445 68.3958 251.706C67.9478 251.958 67.3831 252.084 66.7018 252.084ZM79.9068 254.8C79.2254 254.8 78.5628 254.702 77.9188 254.506C77.2841 254.319 76.7661 254.049 76.3648 253.694L77.0088 252.658C77.3541 252.957 77.7788 253.19 78.2828 253.358C78.7868 253.535 79.3141 253.624 79.8648 253.624C80.7421 253.624 81.3861 253.419 81.7968 253.008C82.2074 252.597 82.4128 251.972 82.4128 251.132V249.564L82.5528 248.094L82.4828 246.61V244.58H83.7568V250.992C83.7568 252.299 83.4301 253.26 82.7768 253.876C82.1234 254.492 81.1668 254.8 79.9068 254.8ZM79.7388 251.692C79.0201 251.692 78.3761 251.543 77.8068 251.244C77.2468 250.936 76.7988 250.511 76.4628 249.97C76.1361 249.429 75.9728 248.803 75.9728 248.094C75.9728 247.375 76.1361 246.75 76.4628 246.218C76.7988 245.677 77.2468 245.257 77.8068 244.958C78.3761 244.659 79.0201 244.51 79.7388 244.51C80.3734 244.51 80.9521 244.641 81.4748 244.902C81.9974 245.154 82.4128 245.546 82.7208 246.078C83.0381 246.61 83.1968 247.282 83.1968 248.094C83.1968 248.897 83.0381 249.564 82.7208 250.096C82.4128 250.628 81.9974 251.029 81.4748 251.3C80.9521 251.561 80.3734 251.692 79.7388 251.692ZM79.8928 250.516C80.3874 250.516 80.8261 250.413 81.2088 250.208C81.5914 250.003 81.8901 249.718 82.1048 249.354C82.3288 248.99 82.4408 248.57 82.4408 248.094C82.4408 247.618 82.3288 247.198 82.1048 246.834C81.8901 246.47 81.5914 246.19 81.2088 245.994C80.8261 245.789 80.3874 245.686 79.8928 245.686C79.3981 245.686 78.9548 245.789 78.5628 245.994C78.1801 246.19 77.8768 246.47 77.6528 246.834C77.4381 247.198 77.3308 247.618 77.3308 248.094C77.3308 248.57 77.4381 248.99 77.6528 249.354C77.8768 249.718 78.1801 250.003 78.5628 250.208C78.9548 250.413 79.3981 250.516 79.8928 250.516ZM89.4468 252.084C88.8121 252.084 88.2521 251.967 87.7668 251.734C87.2908 251.501 86.9174 251.146 86.6468 250.67C86.3854 250.185 86.2548 249.578 86.2548 248.85V244.58H87.5988V248.696C87.5988 249.424 87.7714 249.97 88.1168 250.334C88.4714 250.698 88.9661 250.88 89.6008 250.88C90.0674 250.88 90.4734 250.787 90.8188 250.6C91.1641 250.404 91.4301 250.124 91.6168 249.76C91.8034 249.387 91.8968 248.939 91.8968 248.416V244.58H93.2408V252H91.9668V249.998L92.1768 250.53C91.9341 251.025 91.5701 251.407 91.0848 251.678C90.5994 251.949 90.0534 252.084 89.4468 252.084ZM95.7994 252V244.58H97.1434V252H95.7994ZM96.4714 243.152C96.2101 243.152 95.9907 243.068 95.8134 242.9C95.6454 242.732 95.5614 242.527 95.5614 242.284C95.5614 242.032 95.6454 241.822 95.8134 241.654C95.9907 241.486 96.2101 241.402 96.4714 241.402C96.7327 241.402 96.9474 241.486 97.1154 241.654C97.2927 241.813 97.3814 242.013 97.3814 242.256C97.3814 242.508 97.2974 242.723 97.1294 242.9C96.9614 243.068 96.7421 243.152 96.4714 243.152ZM102.776 252.084C102.057 252.084 101.413 251.925 100.844 251.608C100.284 251.291 99.8402 250.847 99.5135 250.278C99.1869 249.709 99.0235 249.046 99.0235 248.29C99.0235 247.534 99.1869 246.876 99.5135 246.316C99.8402 245.747 100.284 245.303 100.844 244.986C101.413 244.669 102.057 244.51 102.776 244.51C103.401 244.51 103.966 244.65 104.47 244.93C104.974 245.21 105.375 245.63 105.674 246.19C105.982 246.75 106.136 247.45 106.136 248.29C106.136 249.13 105.986 249.83 105.688 250.39C105.398 250.95 105.002 251.375 104.498 251.664C103.994 251.944 103.42 252.084 102.776 252.084ZM102.888 250.908C103.354 250.908 103.774 250.801 104.148 250.586C104.53 250.371 104.829 250.068 105.044 249.676C105.268 249.275 105.38 248.813 105.38 248.29C105.38 247.758 105.268 247.301 105.044 246.918C104.829 246.526 104.53 246.223 104.148 246.008C103.774 245.793 103.354 245.686 102.888 245.686C102.412 245.686 101.987 245.793 101.614 246.008C101.24 246.223 100.942 246.526 100.718 246.918C100.494 247.301 100.382 247.758 100.382 248.29C100.382 248.813 100.494 249.275 100.718 249.676C100.942 250.068 101.24 250.371 101.614 250.586C101.987 250.801 102.412 250.908 102.888 250.908ZM105.422 252V249.998L105.506 248.276L105.366 246.554V241.612H106.71V252H105.422ZM112.557 252.084C111.763 252.084 111.063 251.921 110.457 251.594C109.859 251.267 109.393 250.819 109.057 250.25C108.73 249.681 108.567 249.027 108.567 248.29C108.567 247.553 108.725 246.899 109.043 246.33C109.369 245.761 109.813 245.317 110.373 245C110.942 244.673 111.581 244.51 112.291 244.51C113.009 244.51 113.644 244.669 114.195 244.986C114.745 245.303 115.175 245.751 115.483 246.33C115.8 246.899 115.959 247.567 115.959 248.332C115.959 248.388 115.954 248.453 115.945 248.528C115.945 248.603 115.94 248.673 115.931 248.738H109.617V247.772H115.231L114.685 248.108C114.694 247.632 114.596 247.207 114.391 246.834C114.185 246.461 113.901 246.171 113.537 245.966C113.182 245.751 112.767 245.644 112.291 245.644C111.824 245.644 111.409 245.751 111.045 245.966C110.681 246.171 110.396 246.465 110.191 246.848C109.985 247.221 109.883 247.651 109.883 248.136V248.36C109.883 248.855 109.995 249.298 110.219 249.69C110.452 250.073 110.774 250.371 111.185 250.586C111.595 250.801 112.067 250.908 112.599 250.908C113.037 250.908 113.434 250.833 113.789 250.684C114.153 250.535 114.47 250.311 114.741 250.012L115.483 250.88C115.147 251.272 114.727 251.571 114.223 251.776C113.728 251.981 113.173 252.084 112.557 252.084ZM121.781 252V243.922C121.781 243.194 121.991 242.615 122.411 242.186C122.84 241.747 123.447 241.528 124.231 241.528C124.52 241.528 124.795 241.565 125.057 241.64C125.327 241.705 125.556 241.813 125.743 241.962L125.337 242.984C125.197 242.872 125.038 242.788 124.861 242.732C124.683 242.667 124.497 242.634 124.301 242.634C123.909 242.634 123.61 242.746 123.405 242.97C123.199 243.185 123.097 243.507 123.097 243.936V244.93L123.125 245.546V252H121.781ZM120.521 245.686V244.58H125.253V245.686H120.521ZM129.589 252.084C128.842 252.084 128.179 251.921 127.601 251.594C127.022 251.267 126.565 250.819 126.229 250.25C125.893 249.671 125.725 249.018 125.725 248.29C125.725 247.553 125.893 246.899 126.229 246.33C126.565 245.761 127.022 245.317 127.601 245C128.179 244.673 128.842 244.51 129.589 244.51C130.326 244.51 130.984 244.673 131.563 245C132.151 245.317 132.608 245.761 132.935 246.33C133.271 246.89 133.439 247.543 133.439 248.29C133.439 249.027 133.271 249.681 132.935 250.25C132.608 250.819 132.151 251.267 131.563 251.594C130.984 251.921 130.326 252.084 129.589 252.084ZM129.589 250.908C130.065 250.908 130.489 250.801 130.863 250.586C131.245 250.371 131.544 250.068 131.759 249.676C131.973 249.275 132.081 248.813 132.081 248.29C132.081 247.758 131.973 247.301 131.759 246.918C131.544 246.526 131.245 246.223 130.863 246.008C130.489 245.793 130.065 245.686 129.589 245.686C129.113 245.686 128.688 245.793 128.315 246.008C127.941 246.223 127.643 246.526 127.419 246.918C127.195 247.301 127.083 247.758 127.083 248.29C127.083 248.813 127.195 249.275 127.419 249.676C127.643 250.068 127.941 250.371 128.315 250.586C128.688 250.801 129.113 250.908 129.589 250.908ZM135.297 252V244.58H136.585V246.596L136.459 246.092C136.665 245.579 137.01 245.187 137.495 244.916C137.981 244.645 138.578 244.51 139.287 244.51V245.812C139.231 245.803 139.175 245.798 139.119 245.798C139.073 245.798 139.026 245.798 138.979 245.798C138.261 245.798 137.691 246.013 137.271 246.442C136.851 246.871 136.641 247.492 136.641 248.304V252H135.297ZM148.103 252.084C147.31 252.084 146.61 251.921 146.003 251.594C145.406 251.267 144.939 250.819 144.603 250.25C144.277 249.681 144.113 249.027 144.113 248.29C144.113 247.553 144.272 246.899 144.589 246.33C144.916 245.761 145.359 245.317 145.919 245C146.489 244.673 147.128 244.51 147.837 244.51C148.556 244.51 149.191 244.669 149.741 244.986C150.292 245.303 150.721 245.751 151.029 246.33C151.347 246.899 151.505 247.567 151.505 248.332C151.505 248.388 151.501 248.453 151.491 248.528C151.491 248.603 151.487 248.673 151.477 248.738H145.163V247.772H150.777L150.231 248.108C150.241 247.632 150.143 247.207 149.937 246.834C149.732 246.461 149.447 246.171 149.083 245.966C148.729 245.751 148.313 245.644 147.837 245.644C147.371 245.644 146.955 245.751 146.591 245.966C146.227 246.171 145.943 246.465 145.737 246.848C145.532 247.221 145.429 247.651 145.429 248.136V248.36C145.429 248.855 145.541 249.298 145.765 249.69C145.999 250.073 146.321 250.371 146.731 250.586C147.142 250.801 147.613 250.908 148.145 250.908C148.584 250.908 148.981 250.833 149.335 250.684C149.699 250.535 150.017 250.311 150.287 250.012L151.029 250.88C150.693 251.272 150.273 251.571 149.769 251.776C149.275 251.981 148.719 252.084 148.103 252.084ZM155.181 252L151.933 244.58H153.333L156.217 251.3H155.545L158.485 244.58H159.801L156.553 252H155.181ZM164.154 252.084C163.361 252.084 162.661 251.921 162.054 251.594C161.457 251.267 160.99 250.819 160.654 250.25C160.328 249.681 160.164 249.027 160.164 248.29C160.164 247.553 160.323 246.899 160.64 246.33C160.967 245.761 161.41 245.317 161.97 245C162.54 244.673 163.179 244.51 163.888 244.51C164.607 244.51 165.242 244.669 165.792 244.986C166.343 245.303 166.772 245.751 167.08 246.33C167.398 246.899 167.556 247.567 167.556 248.332C167.556 248.388 167.552 248.453 167.542 248.528C167.542 248.603 167.538 248.673 167.528 248.738H161.214V247.772H166.828L166.282 248.108C166.292 247.632 166.194 247.207 165.988 246.834C165.783 246.461 165.498 246.171 165.134 245.966C164.78 245.751 164.364 245.644 163.888 245.644C163.422 245.644 163.006 245.751 162.642 245.966C162.278 246.171 161.994 246.465 161.788 246.848C161.583 247.221 161.48 247.651 161.48 248.136V248.36C161.48 248.855 161.592 249.298 161.816 249.69C162.05 250.073 162.372 250.371 162.782 250.586C163.193 250.801 163.664 250.908 164.196 250.908C164.635 250.908 165.032 250.833 165.386 250.684C165.75 250.535 166.068 250.311 166.338 250.012L167.08 250.88C166.744 251.272 166.324 251.571 165.82 251.776C165.326 251.981 164.77 252.084 164.154 252.084ZM169.422 252V244.58H170.71V246.596L170.584 246.092C170.79 245.579 171.135 245.187 171.62 244.916C172.106 244.645 172.703 244.51 173.412 244.51V245.812C173.356 245.803 173.3 245.798 173.244 245.798C173.198 245.798 173.151 245.798 173.104 245.798C172.386 245.798 171.816 246.013 171.396 246.442C170.976 246.871 170.766 247.492 170.766 248.304V252H169.422ZM175.692 254.8C175.337 254.8 174.992 254.739 174.656 254.618C174.32 254.506 174.03 254.338 173.788 254.114L174.362 253.106C174.548 253.283 174.754 253.419 174.978 253.512C175.202 253.605 175.44 253.652 175.692 253.652C176.018 253.652 176.289 253.568 176.504 253.4C176.718 253.232 176.919 252.933 177.106 252.504L177.568 251.482L177.708 251.314L180.62 244.58H181.936L178.338 252.742C178.123 253.265 177.88 253.675 177.61 253.974C177.348 254.273 177.059 254.483 176.742 254.604C176.424 254.735 176.074 254.8 175.692 254.8ZM177.456 252.238L174.068 244.58H175.468L178.352 251.188L177.456 252.238ZM189.078 252.084C188.462 252.084 187.874 252 187.314 251.832C186.763 251.664 186.329 251.459 186.012 251.216L186.572 250.152C186.889 250.367 187.281 250.549 187.748 250.698C188.214 250.847 188.69 250.922 189.176 250.922C189.801 250.922 190.249 250.833 190.52 250.656C190.8 250.479 190.94 250.231 190.94 249.914C190.94 249.681 190.856 249.499 190.688 249.368C190.52 249.237 190.296 249.139 190.016 249.074C189.745 249.009 189.442 248.953 189.106 248.906C188.77 248.85 188.434 248.785 188.098 248.71C187.762 248.626 187.454 248.514 187.174 248.374C186.894 248.225 186.67 248.024 186.502 247.772C186.334 247.511 186.25 247.165 186.25 246.736C186.25 246.288 186.376 245.896 186.628 245.56C186.88 245.224 187.234 244.967 187.692 244.79C188.158 244.603 188.709 244.51 189.344 244.51C189.829 244.51 190.319 244.571 190.814 244.692C191.318 244.804 191.728 244.967 192.046 245.182L191.472 246.246C191.136 246.022 190.786 245.868 190.422 245.784C190.058 245.7 189.694 245.658 189.33 245.658C188.742 245.658 188.303 245.756 188.014 245.952C187.724 246.139 187.58 246.381 187.58 246.68C187.58 246.932 187.664 247.128 187.832 247.268C188.009 247.399 188.233 247.501 188.504 247.576C188.784 247.651 189.092 247.716 189.428 247.772C189.764 247.819 190.1 247.884 190.436 247.968C190.772 248.043 191.075 248.15 191.346 248.29C191.626 248.43 191.85 248.626 192.018 248.878C192.195 249.13 192.284 249.466 192.284 249.886C192.284 250.334 192.153 250.721 191.892 251.048C191.63 251.375 191.262 251.631 190.786 251.818C190.31 251.995 189.74 252.084 189.078 252.084ZM196.511 252.084C195.765 252.084 195.186 251.883 194.775 251.482C194.365 251.081 194.159 250.507 194.159 249.76V242.956H195.503V249.704C195.503 250.105 195.601 250.413 195.797 250.628C196.003 250.843 196.292 250.95 196.665 250.95C197.085 250.95 197.435 250.833 197.715 250.6L198.135 251.566C197.93 251.743 197.683 251.874 197.393 251.958C197.113 252.042 196.819 252.084 196.511 252.084ZM192.899 245.686V244.58H197.631V245.686H192.899ZM199.946 254.8C199.591 254.8 199.246 254.739 198.91 254.618C198.574 254.506 198.284 254.338 198.042 254.114L198.616 253.106C198.802 253.283 199.008 253.419 199.232 253.512C199.456 253.605 199.694 253.652 199.946 253.652C200.272 253.652 200.543 253.568 200.758 253.4C200.972 253.232 201.173 252.933 201.36 252.504L201.822 251.482L201.962 251.314L204.874 244.58H206.19L202.592 252.742C202.377 253.265 202.134 253.675 201.864 253.974C201.602 254.273 201.313 254.483 200.996 254.604C200.678 254.735 200.328 254.8 199.946 254.8ZM201.71 252.238L198.322 244.58H199.722L202.606 251.188L201.71 252.238ZM207.444 252V241.612H208.788V252H207.444ZM214.658 252.084C213.865 252.084 213.165 251.921 212.558 251.594C211.961 251.267 211.494 250.819 211.158 250.25C210.831 249.681 210.668 249.027 210.668 248.29C210.668 247.553 210.827 246.899 211.144 246.33C211.471 245.761 211.914 245.317 212.474 245C213.043 244.673 213.683 244.51 214.392 244.51C215.111 244.51 215.745 244.669 216.296 244.986C216.847 245.303 217.276 245.751 217.584 246.33C217.901 246.899 218.06 247.567 218.06 248.332C218.06 248.388 218.055 248.453 218.046 248.528C218.046 248.603 218.041 248.673 218.032 248.738H211.718V247.772H217.332L216.786 248.108C216.795 247.632 216.697 247.207 216.492 246.834C216.287 246.461 216.002 246.171 215.638 245.966C215.283 245.751 214.868 245.644 214.392 245.644C213.925 245.644 213.51 245.751 213.146 245.966C212.782 246.171 212.497 246.465 212.292 246.848C212.087 247.221 211.984 247.651 211.984 248.136V248.36C211.984 248.855 212.096 249.298 212.32 249.69C212.553 250.073 212.875 250.371 213.286 250.586C213.697 250.801 214.168 250.908 214.7 250.908C215.139 250.908 215.535 250.833 215.89 250.684C216.254 250.535 216.571 250.311 216.842 250.012L217.584 250.88C217.248 251.272 216.828 251.571 216.324 251.776C215.829 251.981 215.274 252.084 214.658 252.084ZM228.292 252V250.432L228.222 250.138V247.464C228.222 246.895 228.054 246.456 227.718 246.148C227.391 245.831 226.897 245.672 226.234 245.672C225.795 245.672 225.366 245.747 224.946 245.896C224.526 246.036 224.171 246.227 223.882 246.47L223.322 245.462C223.705 245.154 224.162 244.921 224.694 244.762C225.235 244.594 225.8 244.51 226.388 244.51C227.405 244.51 228.189 244.757 228.74 245.252C229.291 245.747 229.566 246.503 229.566 247.52V252H228.292ZM225.856 252.084C225.305 252.084 224.82 251.991 224.4 251.804C223.989 251.617 223.672 251.361 223.448 251.034C223.224 250.698 223.112 250.32 223.112 249.9C223.112 249.499 223.205 249.135 223.392 248.808C223.588 248.481 223.901 248.22 224.33 248.024C224.769 247.828 225.357 247.73 226.094 247.73H228.446V248.696H226.15C225.478 248.696 225.025 248.808 224.792 249.032C224.559 249.256 224.442 249.527 224.442 249.844C224.442 250.208 224.587 250.502 224.876 250.726C225.165 250.941 225.567 251.048 226.08 251.048C226.584 251.048 227.023 250.936 227.396 250.712C227.779 250.488 228.054 250.161 228.222 249.732L228.488 250.656C228.311 251.095 227.998 251.445 227.55 251.706C227.102 251.958 226.537 252.084 225.856 252.084ZM236.015 244.51C236.622 244.51 237.154 244.627 237.611 244.86C238.078 245.093 238.442 245.448 238.703 245.924C238.965 246.4 239.095 247.002 239.095 247.73V252H237.751V247.884C237.751 247.165 237.574 246.624 237.219 246.26C236.874 245.896 236.384 245.714 235.749 245.714C235.273 245.714 234.858 245.807 234.503 245.994C234.149 246.181 233.873 246.456 233.677 246.82C233.491 247.184 233.397 247.637 233.397 248.178V252H232.053V244.58H233.341V246.582L233.131 246.05C233.374 245.565 233.747 245.187 234.251 244.916C234.755 244.645 235.343 244.51 236.015 244.51ZM244.649 252.084C243.93 252.084 243.286 251.925 242.717 251.608C242.157 251.291 241.713 250.847 241.387 250.278C241.06 249.709 240.897 249.046 240.897 248.29C240.897 247.534 241.06 246.876 241.387 246.316C241.713 245.747 242.157 245.303 242.717 244.986C243.286 244.669 243.93 244.51 244.649 244.51C245.274 244.51 245.839 244.65 246.343 244.93C246.847 245.21 247.248 245.63 247.547 246.19C247.855 246.75 248.009 247.45 248.009 248.29C248.009 249.13 247.859 249.83 247.561 250.39C247.271 250.95 246.875 251.375 246.371 251.664C245.867 251.944 245.293 252.084 244.649 252.084ZM244.761 250.908C245.227 250.908 245.647 250.801 246.021 250.586C246.403 250.371 246.702 250.068 246.917 249.676C247.141 249.275 247.253 248.813 247.253 248.29C247.253 247.758 247.141 247.301 246.917 246.918C246.702 246.526 246.403 246.223 246.021 246.008C245.647 245.793 245.227 245.686 244.761 245.686C244.285 245.686 243.86 245.793 243.487 246.008C243.113 246.223 242.815 246.526 242.591 246.918C242.367 247.301 242.255 247.758 242.255 248.29C242.255 248.813 242.367 249.275 242.591 249.676C242.815 250.068 243.113 250.371 243.487 250.586C243.86 250.801 244.285 250.908 244.761 250.908ZM247.295 252V249.998L247.379 248.276L247.239 246.554V241.612H248.583V252H247.295ZM112.057 269.084C111.441 269.084 110.853 269 110.293 268.832C109.743 268.664 109.309 268.459 108.991 268.216L109.551 267.152C109.869 267.367 110.261 267.549 110.727 267.698C111.194 267.847 111.67 267.922 112.155 267.922C112.781 267.922 113.229 267.833 113.499 267.656C113.779 267.479 113.919 267.231 113.919 266.914C113.919 266.681 113.835 266.499 113.667 266.368C113.499 266.237 113.275 266.139 112.995 266.074C112.725 266.009 112.421 265.953 112.085 265.906C111.749 265.85 111.413 265.785 111.077 265.71C110.741 265.626 110.433 265.514 110.153 265.374C109.873 265.225 109.649 265.024 109.481 264.772C109.313 264.511 109.229 264.165 109.229 263.736C109.229 263.288 109.355 262.896 109.607 262.56C109.859 262.224 110.214 261.967 110.671 261.79C111.138 261.603 111.689 261.51 112.323 261.51C112.809 261.51 113.299 261.571 113.793 261.692C114.297 261.804 114.708 261.967 115.025 262.182L114.451 263.246C114.115 263.022 113.765 262.868 113.401 262.784C113.037 262.7 112.673 262.658 112.309 262.658C111.721 262.658 111.283 262.756 110.993 262.952C110.704 263.139 110.559 263.381 110.559 263.68C110.559 263.932 110.643 264.128 110.811 264.268C110.989 264.399 111.213 264.501 111.483 264.576C111.763 264.651 112.071 264.716 112.407 264.772C112.743 264.819 113.079 264.884 113.415 264.968C113.751 265.043 114.055 265.15 114.325 265.29C114.605 265.43 114.829 265.626 114.997 265.878C115.175 266.13 115.263 266.466 115.263 266.886C115.263 267.334 115.133 267.721 114.871 268.048C114.61 268.375 114.241 268.631 113.765 268.818C113.289 268.995 112.72 269.084 112.057 269.084ZM120.177 269.084C119.421 269.084 118.744 268.921 118.147 268.594C117.559 268.267 117.097 267.819 116.761 267.25C116.425 266.681 116.257 266.027 116.257 265.29C116.257 264.553 116.425 263.899 116.761 263.33C117.097 262.761 117.559 262.317 118.147 262C118.744 261.673 119.421 261.51 120.177 261.51C120.849 261.51 121.446 261.645 121.969 261.916C122.501 262.177 122.912 262.569 123.201 263.092L122.179 263.75C121.936 263.386 121.638 263.12 121.283 262.952C120.938 262.775 120.564 262.686 120.163 262.686C119.678 262.686 119.244 262.793 118.861 263.008C118.478 263.223 118.175 263.526 117.951 263.918C117.727 264.301 117.615 264.758 117.615 265.29C117.615 265.822 117.727 266.284 117.951 266.676C118.175 267.068 118.478 267.371 118.861 267.586C119.244 267.801 119.678 267.908 120.163 267.908C120.564 267.908 120.938 267.824 121.283 267.656C121.638 267.479 121.936 267.208 122.179 266.844L123.201 267.488C122.912 268.001 122.501 268.398 121.969 268.678C121.446 268.949 120.849 269.084 120.177 269.084ZM128.807 261.51C129.414 261.51 129.946 261.627 130.403 261.86C130.87 262.093 131.234 262.448 131.495 262.924C131.757 263.4 131.887 264.002 131.887 264.73V269H130.543V264.884C130.543 264.165 130.366 263.624 130.011 263.26C129.666 262.896 129.176 262.714 128.541 262.714C128.065 262.714 127.65 262.807 127.295 262.994C126.941 263.181 126.665 263.456 126.469 263.82C126.283 264.184 126.189 264.637 126.189 265.178V269H124.845V258.612H126.189V263.582L125.923 263.05C126.166 262.565 126.539 262.187 127.043 261.916C127.547 261.645 128.135 261.51 128.807 261.51ZM137.679 269.084C136.885 269.084 136.185 268.921 135.579 268.594C134.981 268.267 134.515 267.819 134.179 267.25C133.852 266.681 133.689 266.027 133.689 265.29C133.689 264.553 133.847 263.899 134.165 263.33C134.491 262.761 134.935 262.317 135.495 262C136.064 261.673 136.703 261.51 137.413 261.51C138.131 261.51 138.766 261.669 139.317 261.986C139.867 262.303 140.297 262.751 140.605 263.33C140.922 263.899 141.081 264.567 141.081 265.332C141.081 265.388 141.076 265.453 141.067 265.528C141.067 265.603 141.062 265.673 141.053 265.738H134.739V264.772H140.353L139.807 265.108C139.816 264.632 139.718 264.207 139.513 263.834C139.307 263.461 139.023 263.171 138.659 262.966C138.304 262.751 137.889 262.644 137.413 262.644C136.946 262.644 136.531 262.751 136.167 262.966C135.803 263.171 135.518 263.465 135.313 263.848C135.107 264.221 135.005 264.651 135.005 265.136V265.36C135.005 265.855 135.117 266.298 135.341 266.69C135.574 267.073 135.896 267.371 136.307 267.586C136.717 267.801 137.189 267.908 137.721 267.908C138.159 267.908 138.556 267.833 138.911 267.684C139.275 267.535 139.592 267.311 139.863 267.012L140.605 267.88C140.269 268.272 139.849 268.571 139.345 268.776C138.85 268.981 138.295 269.084 137.679 269.084ZM146.013 269.084C145.294 269.084 144.65 268.925 144.081 268.608C143.521 268.291 143.078 267.847 142.751 267.278C142.424 266.709 142.261 266.046 142.261 265.29C142.261 264.534 142.424 263.876 142.751 263.316C143.078 262.747 143.521 262.303 144.081 261.986C144.65 261.669 145.294 261.51 146.013 261.51C146.638 261.51 147.203 261.65 147.707 261.93C148.211 262.21 148.612 262.63 148.911 263.19C149.219 263.75 149.373 264.45 149.373 265.29C149.373 266.13 149.224 266.83 148.925 267.39C148.636 267.95 148.239 268.375 147.735 268.664C147.231 268.944 146.657 269.084 146.013 269.084ZM146.125 267.908C146.592 267.908 147.012 267.801 147.385 267.586C147.768 267.371 148.066 267.068 148.281 266.676C148.505 266.275 148.617 265.813 148.617 265.29C148.617 264.758 148.505 264.301 148.281 263.918C148.066 263.526 147.768 263.223 147.385 263.008C147.012 262.793 146.592 262.686 146.125 262.686C145.649 262.686 145.224 262.793 144.851 263.008C144.478 263.223 144.179 263.526 143.955 263.918C143.731 264.301 143.619 264.758 143.619 265.29C143.619 265.813 143.731 266.275 143.955 266.676C144.179 267.068 144.478 267.371 144.851 267.586C145.224 267.801 145.649 267.908 146.125 267.908ZM148.659 269V266.998L148.743 265.276L148.603 263.554V258.612H149.947V269H148.659ZM155.612 269.084C154.977 269.084 154.417 268.967 153.932 268.734C153.456 268.501 153.082 268.146 152.812 267.67C152.55 267.185 152.42 266.578 152.42 265.85V261.58H153.764V265.696C153.764 266.424 153.936 266.97 154.282 267.334C154.636 267.698 155.131 267.88 155.766 267.88C156.232 267.88 156.638 267.787 156.984 267.6C157.329 267.404 157.595 267.124 157.782 266.76C157.968 266.387 158.062 265.939 158.062 265.416V261.58H159.406V269H158.132V266.998L158.342 267.53C158.099 268.025 157.735 268.407 157.25 268.678C156.764 268.949 156.218 269.084 155.612 269.084ZM161.964 269V258.612H163.308V269H161.964ZM169.179 269.084C168.385 269.084 167.685 268.921 167.079 268.594C166.481 268.267 166.015 267.819 165.679 267.25C165.352 266.681 165.189 266.027 165.189 265.29C165.189 264.553 165.347 263.899 165.665 263.33C165.991 262.761 166.435 262.317 166.995 262C167.564 261.673 168.203 261.51 168.913 261.51C169.631 261.51 170.266 261.669 170.817 261.986C171.367 262.303 171.797 262.751 172.105 263.33C172.422 263.899 172.581 264.567 172.581 265.332C172.581 265.388 172.576 265.453 172.567 265.528C172.567 265.603 172.562 265.673 172.553 265.738H166.239V264.772H171.853L171.307 265.108C171.316 264.632 171.218 264.207 171.013 263.834C170.807 263.461 170.523 263.171 170.159 262.966C169.804 262.751 169.389 262.644 168.913 262.644C168.446 262.644 168.031 262.751 167.667 262.966C167.303 263.171 167.018 263.465 166.813 263.848C166.607 264.221 166.505 264.651 166.505 265.136V265.36C166.505 265.855 166.617 266.298 166.841 266.69C167.074 267.073 167.396 267.371 167.807 267.586C168.217 267.801 168.689 267.908 169.221 267.908C169.659 267.908 170.056 267.833 170.411 267.684C170.775 267.535 171.092 267.311 171.363 267.012L172.105 267.88C171.769 268.272 171.349 268.571 170.845 268.776C170.35 268.981 169.795 269.084 169.179 269.084ZM174.769 269.084C174.508 269.084 174.284 268.995 174.097 268.818C173.91 268.631 173.817 268.398 173.817 268.118C173.817 267.838 173.91 267.609 174.097 267.432C174.284 267.255 174.508 267.166 174.769 267.166C175.021 267.166 175.236 267.255 175.413 267.432C175.6 267.609 175.693 267.838 175.693 268.118C175.693 268.398 175.6 268.631 175.413 268.818C175.236 268.995 175.021 269.084 174.769 269.084Z" fill="black"/>
</g>
<defs>
<filter id="filter0_d_418_3819" x="0.5" y="0" width="284" height="371" filterUnits="userSpaceOnUse" color-interpolation-filters="sRGB">
<feFlood flood-opacity="0" result="BackgroundImageFix"/>
<feColorMatrix in="SourceAlpha" type="matrix" values="0 0 0 0 0 0 0 0 0 0 0 0 0 0 0 0 0 0 127 0" result="hardAlpha"/>
<feOffset dy="4"/>
<feGaussianBlur stdDeviation="2"/>
<feComposite in2="hardAlpha" operator="out"/>
<feColorMatrix type="matrix" values="0 0 0 0 0 0 0 0 0 0 0 0 0 0 0 0 0 0 0.25 0"/>
<feBlend mode="normal" in2="BackgroundImageFix" result="effect1_dropShadow_418_3819"/>
<feBlend mode="normal" in="SourceGraphic" in2="effect1_dropShadow_418_3819" result="shape"/>
</filter>
</defs>
</svg>
