<svg width="26" height="26" viewBox="0 0 26 26" fill="none" xmlns="http://www.w3.org/2000/svg">
<path d="M12.3723 9.89774C10.4213 9.89774 8.82917 11.4899 8.82917 13.4409C8.82917 15.3919 10.4213 16.9841 12.3723 16.9841C14.3233 16.9841 15.9155 15.3919 15.9155 13.4409C15.9155 11.4899 14.3233 9.89774 12.3723 9.89774ZM22.9992 13.4409C22.9992 11.9737 23.0125 10.5197 22.9301 9.05514C22.8477 7.35399 22.4596 5.84422 21.2157 4.60026C19.969 3.35363 18.4619 2.96822 16.7608 2.88582C15.2935 2.80342 13.8396 2.81671 12.375 2.81671C10.9078 2.81671 9.45381 2.80342 7.98922 2.88582C6.28808 2.96822 4.77831 3.35629 3.53434 4.60026C2.28772 5.84688 1.9023 7.35399 1.8199 9.05514C1.7375 10.5224 1.75079 11.9763 1.75079 13.4409C1.75079 14.9055 1.7375 16.3621 1.8199 17.8267C1.9023 19.5278 2.29037 21.0376 3.53434 22.2816C4.78096 23.5282 6.28808 23.9136 7.98922 23.996C9.45647 24.0784 10.9104 24.0651 12.375 24.0651C13.8422 24.0651 15.2962 24.0784 16.7608 23.996C18.4619 23.9136 19.9717 23.5255 21.2157 22.2816C22.4623 21.035 22.8477 19.5278 22.9301 17.8267C23.0152 16.3621 22.9992 14.9082 22.9992 13.4409ZM12.3723 18.8926C9.35546 18.8926 6.92069 16.4578 6.92069 13.4409C6.92069 10.424 9.35546 7.98927 12.3723 7.98927C15.3892 7.98927 17.824 10.424 17.824 13.4409C17.824 16.4578 15.3892 18.8926 12.3723 18.8926ZM18.0473 9.03919C17.3429 9.03919 16.7741 8.47037 16.7741 7.76599C16.7741 7.06161 17.3429 6.49279 18.0473 6.49279C18.7517 6.49279 19.3205 7.06161 19.3205 7.76599C19.3207 7.93325 19.2879 8.09891 19.224 8.25347C19.1601 8.40804 19.0663 8.54848 18.948 8.66675C18.8298 8.78502 18.6893 8.87879 18.5348 8.9427C18.3802 9.00661 18.2145 9.0394 18.0473 9.03919Z" fill="#112211"/>
</svg>
