<svg width="50" height="36" viewBox="0 0 50 36" fill="none" xmlns="http://www.w3.org/2000/svg">
<path d="M7.5 35.5H5L3.375 30.5H0V17.9375C0 16.5625 0.489583 15.3958 1.46875 14.4375C2.44792 13.4792 3.625 13 5 13V5.5C5 4.125 5.48958 2.94792 6.46875 1.96875C7.44792 0.989583 8.625 0.5 10 0.5H40C41.375 0.5 42.5521 0.989583 43.5312 1.96875C44.5104 2.94792 45 4.125 45 5.5V13C46.375 13 47.5521 13.4896 48.5312 14.4688C49.5104 15.4479 50 16.625 50 18V30.5H46.625L45 35.5H42.5L40.875 30.5H9.125L7.5 35.5ZM27.5 13H40V5.5H27.5V13ZM10 13H22.5V5.5H10V13ZM5 25.5H45V18H5V25.5Z" fill="#1C1B1F"/>
</svg>
