<svg width="38" height="38" viewBox="0 0 38 38" fill="none" xmlns="http://www.w3.org/2000/svg">
<path d="M6.5 33.5833V35.6667C6.5 36.2569 6.30035 36.7517 5.90104 37.151C5.50174 37.5503 5.00694 37.75 4.41667 37.75H2.33333C1.74306 37.75 1.24826 37.5503 0.848958 37.151C0.449653 36.7517 0.25 36.2569 0.25 35.6667V19L4.625 6.5C4.83333 5.875 5.2066 5.37153 5.74479 4.98958C6.28299 4.60764 6.88194 4.41667 7.54167 4.41667H12.75V0.25H25.25V4.41667H30.4583C31.1181 4.41667 31.717 4.60764 32.2552 4.98958C32.7934 5.37153 33.1667 5.875 33.375 6.5L37.75 19V35.6667C37.75 36.2569 37.5503 36.7517 37.151 37.151C36.7517 37.5503 36.2569 37.75 35.6667 37.75H33.5833C32.9931 37.75 32.4983 37.5503 32.099 37.151C31.6997 36.7517 31.5 36.2569 31.5 35.6667V33.5833H6.5ZM6.08333 14.8333H31.9167L29.7292 8.58333H8.27083L6.08333 14.8333ZM9.625 27.3333C10.4931 27.3333 11.2309 27.0295 11.8385 26.4219C12.4462 25.8142 12.75 25.0764 12.75 24.2083C12.75 23.3403 12.4462 22.6024 11.8385 21.9948C11.2309 21.3872 10.4931 21.0833 9.625 21.0833C8.75694 21.0833 8.0191 21.3872 7.41146 21.9948C6.80382 22.6024 6.5 23.3403 6.5 24.2083C6.5 25.0764 6.80382 25.8142 7.41146 26.4219C8.0191 27.0295 8.75694 27.3333 9.625 27.3333ZM28.375 27.3333C29.2431 27.3333 29.9809 27.0295 30.5885 26.4219C31.1962 25.8142 31.5 25.0764 31.5 24.2083C31.5 23.3403 31.1962 22.6024 30.5885 21.9948C29.9809 21.3872 29.2431 21.0833 28.375 21.0833C27.5069 21.0833 26.7691 21.3872 26.1615 21.9948C25.5538 22.6024 25.25 23.3403 25.25 24.2083C25.25 25.0764 25.5538 25.8142 26.1615 26.4219C26.7691 27.0295 27.5069 27.3333 28.375 27.3333ZM4.41667 29.4167H33.5833V19H4.41667V29.4167Z" fill="#1C1B1F"/>
</svg>
