<svg width="269" height="66" viewBox="0 0 269 66" fill="none" xmlns="http://www.w3.org/2000/svg">
<path d="M21.096 47.304C18.6893 47.304 16.8147 46.696 15.472 45.48C14.1293 44.2387 13.458 42.402 13.458 39.97V22.034H19.386V39.894C19.386 40.7553 19.614 41.4267 20.07 41.908C20.526 42.364 21.1467 42.592 21.932 42.592C22.8693 42.592 23.6673 42.3387 24.326 41.832L25.922 46.012C25.314 46.4427 24.5793 46.772 23.718 47C22.882 47.2027 22.008 47.304 21.096 47.304ZM10.304 31.572V27.012H24.478V31.572H10.304ZM29.2497 47V26.556H34.9117V32.332L34.1137 30.66C34.7217 29.216 35.697 28.1267 37.0397 27.392C38.3823 26.632 40.0163 26.252 41.9417 26.252V31.724C41.6883 31.6987 41.4603 31.686 41.2577 31.686C41.055 31.6607 40.8397 31.648 40.6117 31.648C38.9903 31.648 37.673 32.1167 36.6597 33.054C35.6717 33.966 35.1777 35.3973 35.1777 37.348V47H29.2497ZM56.6705 47V43.01L56.2905 42.136V34.992C56.2905 33.7253 55.8979 32.7373 55.1125 32.028C54.3525 31.3187 53.1745 30.964 51.5785 30.964C50.4892 30.964 49.4125 31.1413 48.3485 31.496C47.3099 31.8253 46.4232 32.2813 45.6885 32.864L43.5605 28.722C44.6752 27.9367 46.0179 27.3287 47.5885 26.898C49.1592 26.4673 50.7552 26.252 52.3765 26.252C55.4925 26.252 57.9119 26.9867 59.6345 28.456C61.3572 29.9253 62.2185 32.218 62.2185 35.334V47H56.6705ZM50.4385 47.304C48.8425 47.304 47.4745 47.038 46.3345 46.506C45.1945 45.9487 44.3205 45.2013 43.7125 44.264C43.1045 43.3267 42.8005 42.2753 42.8005 41.11C42.8005 39.894 43.0919 38.83 43.6745 37.918C44.2825 37.006 45.2325 36.2967 46.5245 35.79C47.8165 35.258 49.5012 34.992 51.5785 34.992H57.0125V38.45H52.2245C50.8312 38.45 49.8685 38.678 49.3365 39.134C48.8299 39.59 48.5765 40.16 48.5765 40.844C48.5765 41.604 48.8679 42.212 49.4505 42.668C50.0585 43.0987 50.8819 43.314 51.9205 43.314C52.9085 43.314 53.7952 43.086 54.5805 42.63C55.3659 42.1487 55.9359 41.452 56.2905 40.54L57.2025 43.276C56.7719 44.5933 55.9865 45.594 54.8465 46.278C53.7065 46.962 52.2372 47.304 50.4385 47.304ZM72.7606 47L64.1726 26.556H70.2906L77.4346 44.15H74.3946L81.8046 26.556H87.5046L78.8786 47H72.7606ZM99.5129 47.304C97.1822 47.304 95.1302 46.848 93.3569 45.936C91.6089 45.024 90.2535 43.7827 89.2909 42.212C88.3282 40.616 87.8469 38.8047 87.8469 36.778C87.8469 34.726 88.3155 32.9147 89.2529 31.344C90.2155 29.748 91.5202 28.5067 93.1669 27.62C94.8135 26.708 96.6755 26.252 98.7529 26.252C100.754 26.252 102.553 26.6827 104.149 27.544C105.77 28.38 107.05 29.596 107.987 31.192C108.924 32.7627 109.393 34.65 109.393 36.854C109.393 37.082 109.38 37.348 109.355 37.652C109.33 37.9307 109.304 38.1967 109.279 38.45H92.6729V34.992H106.163L103.883 36.018C103.883 34.954 103.668 34.0293 103.237 33.244C102.806 32.4587 102.211 31.8507 101.451 31.42C100.691 30.964 99.8042 30.736 98.7909 30.736C97.7775 30.736 96.8782 30.964 96.0929 31.42C95.3329 31.8507 94.7375 32.4713 94.3069 33.282C93.8762 34.0673 93.6609 35.0047 93.6609 36.094V37.006C93.6609 38.1207 93.9015 39.1087 94.3829 39.97C94.8895 40.806 95.5862 41.452 96.4729 41.908C97.3849 42.3387 98.4489 42.554 99.6649 42.554C100.754 42.554 101.704 42.3893 102.515 42.06C103.351 41.7307 104.111 41.2367 104.795 40.578L107.949 43.998C107.012 45.062 105.834 45.8853 104.415 46.468C102.996 47.0253 101.362 47.304 99.5129 47.304ZM113.34 47V18.804H119.268V47H113.34Z" fill="black"/>
<path d="M137.917 47.456C135.865 47.456 133.953 47.1267 132.179 46.468C130.431 45.784 128.911 44.8213 127.619 43.58C126.327 42.3387 125.314 40.882 124.579 39.21C123.87 37.538 123.515 35.7013 123.515 33.7C123.515 31.6987 123.87 29.862 124.579 28.19C125.314 26.518 126.327 25.0613 127.619 23.82C128.937 22.5787 130.469 21.6287 132.217 20.97C133.965 20.286 135.878 19.944 137.955 19.944C140.261 19.944 142.338 20.3493 144.187 21.16C146.062 21.9453 147.633 23.1107 148.899 24.656L144.947 28.304C144.035 27.2653 143.022 26.4927 141.907 25.986C140.793 25.454 139.577 25.188 138.259 25.188C137.018 25.188 135.878 25.3907 134.839 25.796C133.801 26.2013 132.901 26.784 132.141 27.544C131.381 28.304 130.786 29.2033 130.355 30.242C129.95 31.2807 129.747 32.4333 129.747 33.7C129.747 34.9667 129.95 36.1193 130.355 37.158C130.786 38.1967 131.381 39.096 132.141 39.856C132.901 40.616 133.801 41.1987 134.839 41.604C135.878 42.0093 137.018 42.212 138.259 42.212C139.577 42.212 140.793 41.9587 141.907 41.452C143.022 40.92 144.035 40.122 144.947 39.058L148.899 42.706C147.633 44.2513 146.062 45.4293 144.187 46.24C142.338 47.0507 140.248 47.456 137.917 47.456ZM162.079 47.304C159.749 47.304 157.697 46.848 155.923 45.936C154.175 45.024 152.82 43.7827 151.857 42.212C150.895 40.616 150.413 38.8047 150.413 36.778C150.413 34.726 150.882 32.9147 151.819 31.344C152.782 29.748 154.087 28.5067 155.733 27.62C157.38 26.708 159.242 26.252 161.319 26.252C163.321 26.252 165.119 26.6827 166.715 27.544C168.337 28.38 169.616 29.596 170.553 31.192C171.491 32.7627 171.959 34.65 171.959 36.854C171.959 37.082 171.947 37.348 171.921 37.652C171.896 37.9307 171.871 38.1967 171.845 38.45H155.239V34.992H168.729L166.449 36.018C166.449 34.954 166.234 34.0293 165.803 33.244C165.373 32.4587 164.777 31.8507 164.017 31.42C163.257 30.964 162.371 30.736 161.357 30.736C160.344 30.736 159.445 30.964 158.659 31.42C157.899 31.8507 157.304 32.4713 156.873 33.282C156.443 34.0673 156.227 35.0047 156.227 36.094V37.006C156.227 38.1207 156.468 39.1087 156.949 39.97C157.456 40.806 158.153 41.452 159.039 41.908C159.951 42.3387 161.015 42.554 162.231 42.554C163.321 42.554 164.271 42.3893 165.081 42.06C165.917 41.7307 166.677 41.2367 167.361 40.578L170.515 43.998C169.578 45.062 168.4 45.8853 166.981 46.468C165.563 47.0253 163.929 47.304 162.079 47.304ZM178.119 54.676C177.055 54.676 176.003 54.5113 174.965 54.182C173.926 53.8527 173.077 53.3967 172.419 52.814L174.585 48.596C175.041 49.0013 175.56 49.318 176.143 49.546C176.751 49.774 177.346 49.888 177.929 49.888C178.765 49.888 179.423 49.6853 179.905 49.28C180.411 48.9 180.867 48.254 181.273 47.342L182.337 44.834L182.793 44.188L190.127 26.556H195.827L186.593 48.254C185.934 49.9007 185.174 51.1927 184.313 52.13C183.477 53.0673 182.539 53.726 181.501 54.106C180.487 54.486 179.36 54.676 178.119 54.676ZM181.615 47.798L172.495 26.556H178.613L185.681 43.656L181.615 47.798ZM198.246 47V18.804H204.174V47H198.246ZM219.403 47.304C217.225 47.304 215.287 46.848 213.589 45.936C211.917 45.024 210.587 43.7827 209.599 42.212C208.637 40.616 208.155 38.8047 208.155 36.778C208.155 34.726 208.637 32.9147 209.599 31.344C210.587 29.748 211.917 28.5067 213.589 27.62C215.287 26.708 217.225 26.252 219.403 26.252C221.557 26.252 223.482 26.708 225.179 27.62C226.877 28.5067 228.207 29.7353 229.169 31.306C230.132 32.8767 230.613 34.7007 230.613 36.778C230.613 38.8047 230.132 40.616 229.169 42.212C228.207 43.7827 226.877 45.024 225.179 45.936C223.482 46.848 221.557 47.304 219.403 47.304ZM219.403 42.44C220.391 42.44 221.278 42.212 222.063 41.756C222.849 41.3 223.469 40.654 223.925 39.818C224.381 38.9567 224.609 37.9433 224.609 36.778C224.609 35.5873 224.381 34.574 223.925 33.738C223.469 32.902 222.849 32.256 222.063 31.8C221.278 31.344 220.391 31.116 219.403 31.116C218.415 31.116 217.529 31.344 216.743 31.8C215.958 32.256 215.325 32.902 214.843 33.738C214.387 34.574 214.159 35.5873 214.159 36.778C214.159 37.9433 214.387 38.9567 214.843 39.818C215.325 40.654 215.958 41.3 216.743 41.756C217.529 42.212 218.415 42.44 219.403 42.44ZM247.002 26.252C248.623 26.252 250.067 26.5813 251.334 27.24C252.626 27.8733 253.639 28.8613 254.374 30.204C255.109 31.5213 255.476 33.2187 255.476 35.296V47H249.548V36.208C249.548 34.5613 249.181 33.3453 248.446 32.56C247.737 31.7747 246.723 31.382 245.406 31.382C244.469 31.382 243.62 31.5847 242.86 31.99C242.125 32.37 241.543 32.9653 241.112 33.776C240.707 34.5867 240.504 35.6253 240.504 36.892V47H234.576V26.556H240.238V32.218L239.174 30.508C239.909 29.14 240.96 28.0887 242.328 27.354C243.696 26.6193 245.254 26.252 247.002 26.252Z" fill="white"/>
</svg>
