<svg width="60" height="60" viewBox="0 0 60 60" fill="none" xmlns="http://www.w3.org/2000/svg">
<mask id="mask0_354_3099" style="mask-type:alpha" maskUnits="userSpaceOnUse" x="0" y="0" width="60" height="60">
<rect width="60" height="60" fill="#D9D9D9"/>
</mask>
<g mask="url(#mask0_354_3099)">
<path d="M5 49.9997V42.9997C5 41.6248 5.35417 40.3331 6.0625 39.1248C6.77083 37.9164 7.75 36.9998 9 36.3748C11.125 35.2914 13.5208 34.3748 16.1875 33.6248C18.8542 32.8748 21.7917 32.4998 25 32.4998C26.25 32.4998 27.4688 32.5623 28.6563 32.6873C29.8438 32.8123 31 32.9998 32.125 33.2498L27.75 37.6248C27.2917 37.5414 26.8438 37.4998 26.4063 37.4998H25C22.0417 37.4998 19.3854 37.8539 17.0313 38.5623C14.6771 39.2706 12.75 40.0414 11.25 40.8748C10.875 41.0831 10.5729 41.3748 10.3438 41.7498C10.1146 42.1247 10 42.5414 10 42.9997V44.9998H25.625L30.625 49.9997H5ZM38.875 50.9998L30.25 42.3747L33.75 38.8748L38.875 43.9998L51.5 31.3748L55 34.8748L38.875 50.9998ZM25 29.9998C22.25 29.9998 19.8958 29.0206 17.9375 27.0623C15.9792 25.1039 15 22.7498 15 19.9998C15 17.2498 15.9792 14.8956 17.9375 12.9373C19.8958 10.9789 22.25 9.99976 25 9.99976C27.75 9.99976 30.1042 10.9789 32.0625 12.9373C34.0208 14.8956 35 17.2498 35 19.9998C35 22.7498 34.0208 25.1039 32.0625 27.0623C30.1042 29.0206 27.75 29.9998 25 29.9998ZM25 24.9998C26.375 24.9998 27.5521 24.5102 28.5313 23.531C29.5104 22.5518 30 21.3748 30 19.9998C30 18.6248 29.5104 17.4477 28.5313 16.4685C27.5521 15.4893 26.375 14.9998 25 14.9998C23.625 14.9998 22.4479 15.4893 21.4688 16.4685C20.4896 17.4477 20 18.6248 20 19.9998C20 21.3748 20.4896 22.5518 21.4688 23.531C22.4479 24.5102 23.625 24.9998 25 24.9998Z" fill="black"/>
</g>
</svg>
