<svg width="61" height="60" viewBox="0 0 61 60" fill="none" xmlns="http://www.w3.org/2000/svg">
<mask id="mask0_354_3107" style="mask-type:alpha" maskUnits="userSpaceOnUse" x="0" y="0" width="61" height="60">
<rect x="0.5" width="60" height="60" fill="#D9D9D9"/>
</mask>
<g mask="url(#mask0_354_3107)">
<path d="M3 50V40C3 38.5833 3.48958 37.3958 4.46875 36.4375C5.44792 35.4792 6.625 35 8 35H16.1875C17.0208 35 17.8125 35.2083 18.5625 35.625C19.3125 36.0417 19.9167 36.6042 20.375 37.3125C21.5833 38.9375 23.0729 40.2083 24.8437 41.125C26.6146 42.0417 28.5 42.5 30.5 42.5C32.5417 42.5 34.4479 42.0417 36.2187 41.125C37.9896 40.2083 39.4583 38.9375 40.625 37.3125C41.1667 36.6042 41.8021 36.0417 42.5312 35.625C43.2604 35.2083 44.0208 35 44.8125 35H53C54.4167 35 55.6042 35.4792 56.5625 36.4375C57.5208 37.3958 58 38.5833 58 40V50H40.5V44.3125C39.0417 45.3542 37.4687 46.1458 35.7812 46.6875C34.0937 47.2292 32.3333 47.5 30.5 47.5C28.7083 47.5 26.9583 47.2188 25.25 46.6562C23.5417 46.0938 21.9583 45.2917 20.5 44.25V50H3ZM30.5 40C28.9167 40 27.4167 39.6354 26 38.9062C24.5833 38.1771 23.3958 37.1667 22.4375 35.875C21.7292 34.8333 20.8437 34.0104 19.7812 33.4062C18.7187 32.8021 17.5625 32.5 16.3125 32.5C17.2292 30.9583 19.1667 29.7396 22.125 28.8438C25.0833 27.9479 27.875 27.5 30.5 27.5C33.125 27.5 35.9167 27.9479 38.875 28.8438C41.8333 29.7396 43.7708 30.9583 44.6875 32.5C43.4792 32.5 42.3333 32.8021 41.25 33.4062C40.1667 34.0104 39.2708 34.8333 38.5625 35.875C37.6458 37.2083 36.4792 38.2292 35.0625 38.9375C33.6458 39.6458 32.125 40 30.5 40ZM10.5 32.5C8.41667 32.5 6.64583 31.7708 5.1875 30.3125C3.72917 28.8542 3 27.0833 3 25C3 22.875 3.72917 21.0938 5.1875 19.6562C6.64583 18.2188 8.41667 17.5 10.5 17.5C12.625 17.5 14.4062 18.2188 15.8437 19.6562C17.2812 21.0938 18 22.875 18 25C18 27.0833 17.2812 28.8542 15.8437 30.3125C14.4062 31.7708 12.625 32.5 10.5 32.5ZM50.5 32.5C48.4167 32.5 46.6458 31.7708 45.1875 30.3125C43.7292 28.8542 43 27.0833 43 25C43 22.875 43.7292 21.0938 45.1875 19.6562C46.6458 18.2188 48.4167 17.5 50.5 17.5C52.625 17.5 54.4062 18.2188 55.8437 19.6562C57.2812 21.0938 58 22.875 58 25C58 27.0833 57.2812 28.8542 55.8437 30.3125C54.4062 31.7708 52.625 32.5 50.5 32.5ZM30.5 25C28.4167 25 26.6458 24.2708 25.1875 22.8125C23.7292 21.3542 23 19.5833 23 17.5C23 15.375 23.7292 13.5938 25.1875 12.1562C26.6458 10.7188 28.4167 10 30.5 10C32.625 10 34.4062 10.7188 35.8437 12.1562C37.2812 13.5938 38 15.375 38 17.5C38 19.5833 37.2812 21.3542 35.8437 22.8125C34.4062 24.2708 32.625 25 30.5 25Z" fill="black"/>
</g>
</svg>
