<svg width="60" height="60" viewBox="0 0 60 60" fill="none" xmlns="http://www.w3.org/2000/svg">
<mask id="mask0_354_3111" style="mask-type:alpha" maskUnits="userSpaceOnUse" x="0" y="0" width="60" height="60">
<rect width="60" height="60" fill="#D9D9D9"/>
</mask>
<g mask="url(#mask0_354_3111)">
<path d="M27.5 42.5H32.5V40H35C35.7083 40 36.3021 39.7604 36.7813 39.2813C37.2604 38.8021 37.5 38.2083 37.5 37.5V30C37.5 29.2917 37.2604 28.6979 36.7813 28.2188C36.3021 27.7396 35.7083 27.5 35 27.5H27.5V25H37.5V20H32.5V17.5H27.5V20H25C24.2917 20 23.6979 20.2396 23.2188 20.7188C22.7396 21.1979 22.5 21.7917 22.5 22.5V30C22.5 30.7083 22.7396 31.3021 23.2188 31.7813C23.6979 32.2604 24.2917 32.5 25 32.5H32.5V35H22.5V40H27.5V42.5ZM10 50C8.625 50 7.44792 49.5104 6.46875 48.5312C5.48958 47.5521 5 46.375 5 45V15C5 13.625 5.48958 12.4479 6.46875 11.4688C7.44792 10.4896 8.625 10 10 10H50C51.375 10 52.5521 10.4896 53.5312 11.4688C54.5104 12.4479 55 13.625 55 15V45C55 46.375 54.5104 47.5521 53.5312 48.5312C52.5521 49.5104 51.375 50 50 50H10ZM10 45H50V15H10V45Z" fill="black"/>
</g>
</svg>
