<svg width="121" height="16" viewBox="0 0 121 16" fill="none" xmlns="http://www.w3.org/2000/svg">
<path d="M1 7C0.447715 7 4.82823e-08 7.44772 0 8C-4.82823e-08 8.55228 0.447715 9 1 9L1 7ZM120.707 8.70712C121.098 8.31659 121.098 7.68343 120.707 7.2929L114.343 0.928942C113.953 0.538418 113.319 0.538418 112.929 0.928942C112.538 1.31947 112.538 1.95263 112.929 2.34316L118.586 8.00001L112.929 13.6569C112.538 14.0474 112.538 14.6806 112.929 15.0711C113.319 15.4616 113.953 15.4616 114.343 15.0711L120.707 8.70712ZM1 9L2.98333 9L2.98333 7L1 7L1 9ZM6.95 9L10.9167 9L10.9167 7L6.95 7L6.95 9ZM14.8833 9L18.85 9L18.85 7L14.8833 7L14.8833 9ZM22.8167 9L26.7833 9L26.7833 7L22.8167 7L22.8167 9ZM30.75 9L34.7167 9L34.7167 7L30.75 7L30.75 9ZM38.6833 9L42.65 9L42.65 7L38.6833 7L38.6833 9ZM46.6167 9L50.5833 9L50.5833 7L46.6167 7L46.6167 9ZM54.55 9L58.5167 9.00001L58.5167 7.00001L54.55 7L54.55 9ZM62.4833 9.00001L66.45 9.00001L66.45 7.00001L62.4833 7.00001L62.4833 9.00001ZM70.4167 9.00001L74.3833 9.00001L74.3833 7.00001L70.4167 7.00001L70.4167 9.00001ZM78.35 9.00001L82.3167 9.00001L82.3167 7.00001L78.35 7.00001L78.35 9.00001ZM86.2833 9.00001L90.25 9.00001L90.25 7.00001L86.2833 7.00001L86.2833 9.00001ZM94.2167 9.00001L98.1833 9.00001L98.1833 7.00001L94.2167 7.00001L94.2167 9.00001ZM102.15 9.00001L106.117 9.00001L106.117 7.00001L102.15 7.00001L102.15 9.00001ZM110.083 9.00001L114.05 9.00001L114.05 7.00001L110.083 7.00001L110.083 9.00001ZM118.017 9.00001L120 9.00001L120 7.00001L118.017 7.00001L118.017 9.00001ZM1 7C0.447715 7 4.82823e-08 7.44772 0 8C-4.82823e-08 8.55228 0.447715 9 1 9L1 7ZM120.707 8.70712C121.098 8.31659 121.098 7.68343 120.707 7.2929L114.343 0.928942C113.953 0.538418 113.319 0.538418 112.929 0.928942C112.538 1.31947 112.538 1.95263 112.929 2.34316L118.586 8.00001L112.929 13.6569C112.538 14.0474 112.538 14.6806 112.929 15.0711C113.319 15.4616 113.953 15.4616 114.343 15.0711L120.707 8.70712ZM1 9L2.98333 9L2.98333 7L1 7L1 9ZM6.95 9L10.9167 9L10.9167 7L6.95 7L6.95 9ZM14.8833 9L18.85 9L18.85 7L14.8833 7L14.8833 9ZM22.8167 9L26.7833 9L26.7833 7L22.8167 7L22.8167 9ZM30.75 9L34.7167 9L34.7167 7L30.75 7L30.75 9ZM38.6833 9L42.65 9L42.65 7L38.6833 7L38.6833 9ZM46.6167 9L50.5833 9L50.5833 7L46.6167 7L46.6167 9ZM54.55 9L58.5167 9.00001L58.5167 7.00001L54.55 7L54.55 9ZM62.4833 9.00001L66.45 9.00001L66.45 7.00001L62.4833 7.00001L62.4833 9.00001ZM70.4167 9.00001L74.3833 9.00001L74.3833 7.00001L70.4167 7.00001L70.4167 9.00001ZM78.35 9.00001L82.3167 9.00001L82.3167 7.00001L78.35 7.00001L78.35 9.00001ZM86.2833 9.00001L90.25 9.00001L90.25 7.00001L86.2833 7.00001L86.2833 9.00001ZM94.2167 9.00001L98.1833 9.00001L98.1833 7.00001L94.2167 7.00001L94.2167 9.00001ZM102.15 9.00001L106.117 9.00001L106.117 7.00001L102.15 7.00001L102.15 9.00001ZM110.083 9.00001L114.05 9.00001L114.05 7.00001L110.083 7.00001L110.083 9.00001ZM118.017 9.00001L120 9.00001L120 7.00001L118.017 7.00001L118.017 9.00001Z" fill="black"/>
</svg>
