<svg width="20" height="20" viewBox="0 0 20 20" fill="none" xmlns="http://www.w3.org/2000/svg">
<path d="M10.95 19.9V17.9C11.65 17.8 12.3292 17.6083 12.9875 17.325C13.6458 17.0417 14.2667 16.6833 14.85 16.25L16.3 17.7C15.5167 18.3167 14.675 18.8125 13.775 19.1875C12.875 19.5625 11.9333 19.8 10.95 19.9ZM17.7 16.25L16.3 14.85C16.7333 14.3 17.0833 13.6958 17.35 13.0375C17.6167 12.3792 17.8 11.6833 17.9 10.95H19.95C19.8167 11.9833 19.5625 12.9458 19.1875 13.8375C18.8125 14.7292 18.3167 15.5333 17.7 16.25ZM17.9 8.95C17.8 8.2 17.6167 7.49583 17.35 6.8375C17.0833 6.17917 16.7333 5.58333 16.3 5.05L17.7 3.65C18.3333 4.38333 18.8458 5.2 19.2375 6.1C19.6292 7 19.8667 7.95 19.95 8.95H17.9ZM8.95 19.9C6.4 19.6 4.27083 18.5083 2.5625 16.625C0.854167 14.7417 0 12.5167 0 9.95C0 7.36667 0.854167 5.13333 2.5625 3.25C4.27083 1.36667 6.4 0.283333 8.95 0V2C6.95 2.28333 5.29167 3.175 3.975 4.675C2.65833 6.175 2 7.93333 2 9.95C2 11.9667 2.65833 13.7208 3.975 15.2125C5.29167 16.7042 6.95 17.6 8.95 17.9V19.9ZM14.9 3.65C14.3 3.2 13.6667 2.83333 13 2.55C12.3333 2.26667 11.65 2.08333 10.95 2V0C11.9333 0.0833333 12.875 0.3125 13.775 0.6875C14.675 1.0625 15.5167 1.56667 16.3 2.2L14.9 3.65ZM9.975 14.95C9.00833 14.1333 8.1 13.2583 7.25 12.325C6.4 11.3917 5.975 10.3 5.975 9.05C5.975 7.91667 6.3625 6.95 7.1375 6.15C7.9125 5.35 8.85833 4.95 9.975 4.95C11.0917 4.95 12.0375 5.35 12.8125 6.15C13.5875 6.95 13.975 7.91667 13.975 9.05C13.975 10.3 13.55 11.3917 12.7 12.325C11.85 13.2583 10.9417 14.1333 9.975 14.95ZM9.975 9.95C10.275 9.95 10.5292 9.84583 10.7375 9.6375C10.9458 9.42917 11.05 9.175 11.05 8.875C11.05 8.59167 10.9458 8.34167 10.7375 8.125C10.5292 7.90833 10.275 7.8 9.975 7.8C9.675 7.8 9.42083 7.90833 9.2125 8.125C9.00417 8.34167 8.9 8.59167 8.9 8.875C8.9 9.175 9.00417 9.42917 9.2125 9.6375C9.42083 9.84583 9.675 9.95 9.975 9.95Z" fill="white"/>
</svg>
