<svg width="40" height="50" viewBox="0 0 40 50" fill="none" xmlns="http://www.w3.org/2000/svg">
<path d="M16.25 32.5H23.75L22.3125 24.4375C23.1458 24.0208 23.8021 23.4167 24.2813 22.625C24.7604 21.8333 25 20.9583 25 20C25 18.625 24.5104 17.4479 23.5312 16.4688C22.5521 15.4896 21.375 15 20 15C18.625 15 17.4479 15.4896 16.4688 16.4688C15.4896 17.4479 15 18.625 15 20C15 20.9583 15.2396 21.8333 15.7188 22.625C16.1979 23.4167 16.8542 24.0208 17.6875 24.4375L16.25 32.5ZM20 50C14.2083 48.5417 9.42708 45.2188 5.65625 40.0312C1.88542 34.8438 0 29.0833 0 22.75V7.5L20 0L40 7.5V22.75C40 29.0833 38.1146 34.8438 34.3438 40.0312C30.5729 45.2188 25.7917 48.5417 20 50ZM20 44.75C24.3333 43.375 27.9167 40.625 30.75 36.5C33.5833 32.375 35 27.7917 35 22.75V10.9375L20 5.3125L5 10.9375V22.75C5 27.7917 6.41667 32.375 9.25 36.5C12.0833 40.625 15.6667 43.375 20 44.75Z" fill="#1C1B1F"/>
</svg>
