<svg width="50" height="50" viewBox="0 0 50 50" fill="none" xmlns="http://www.w3.org/2000/svg">
<path d="M12.5 17.5C11.125 17.5 9.94792 17.0104 8.96875 16.0312C7.98958 15.0521 7.5 13.875 7.5 12.5C7.5 11.125 7.98958 9.94792 8.96875 8.96875C9.94792 7.98958 11.125 7.5 12.5 7.5C13.875 7.5 15.0521 7.98958 16.0312 8.96875C17.0104 9.94792 17.5 11.125 17.5 12.5C17.5 13.875 17.0104 15.0521 16.0312 16.0312C15.0521 17.0104 13.875 17.5 12.5 17.5ZM7.5 50C6.79167 50 6.19792 49.7604 5.71875 49.2812C5.23958 48.8021 5 48.2083 5 47.5C3.625 47.5 2.44792 47.0104 1.46875 46.0312C0.489583 45.0521 0 43.875 0 42.5V27.5H7.5V25.625C7.5 24.0417 8.04167 22.7083 9.125 21.625C10.2083 20.5417 11.5417 20 13.125 20C13.9583 20 14.7292 20.1667 15.4375 20.5C16.1458 20.8333 16.7917 21.2917 17.375 21.875L20.875 25.75C21.2083 26.0833 21.5312 26.3958 21.8438 26.6875C22.1562 26.9792 22.5 27.25 22.875 27.5H40V7.125C40 6.54167 39.7917 6.04167 39.375 5.625C38.9583 5.20833 38.4583 5 37.875 5C37.625 5 37.3854 5.05208 37.1562 5.15625C36.9271 5.26042 36.7083 5.41667 36.5 5.625L33.375 8.75C33.5833 9.45833 33.625 10.1562 33.5 10.8438C33.375 11.5312 33.125 12.1667 32.75 12.75L25.875 5.75C26.4583 5.375 27.0833 5.13542 27.75 5.03125C28.4167 4.92708 29.0833 5 29.75 5.25L32.875 2.125C33.5417 1.45833 34.3021 0.9375 35.1562 0.5625C36.0104 0.1875 36.9167 0 37.875 0C39.875 0 41.5625 0.6875 42.9375 2.0625C44.3125 3.4375 45 5.125 45 7.125V27.5H50V42.5C50 43.875 49.5104 45.0521 48.5312 46.0312C47.5521 47.0104 46.375 47.5 45 47.5C45 48.2083 44.7604 48.8021 44.2812 49.2812C43.8021 49.7604 43.2083 50 42.5 50H7.5ZM5 42.5H45V32.5H5V42.5Z" fill="#1C1B1F"/>
</svg>
