<svg width="46" height="46" viewBox="0 0 46 46" fill="none" xmlns="http://www.w3.org/2000/svg">
<path d="M23 45.5C19.875 45.5 16.9479 44.9062 14.2188 43.7188C11.4896 42.5312 9.11458 40.9271 7.09375 38.9062C5.07292 36.8854 3.46875 34.5104 2.28125 31.7812C1.09375 29.0521 0.5 26.125 0.5 23C0.5 19.875 1.09375 16.9479 2.28125 14.2188C3.46875 11.4896 5.07292 9.11458 7.09375 7.09375C9.11458 5.07292 11.4896 3.46875 14.2188 2.28125C16.9479 1.09375 19.875 0.5 23 0.5C26.4167 0.5 29.6562 1.22917 32.7188 2.6875C35.7812 4.14583 38.375 6.20833 40.5 8.875V3H45.5V18H30.5V13H37.375C35.6667 10.6667 33.5625 8.83333 31.0625 7.5C28.5625 6.16667 25.875 5.5 23 5.5C18.125 5.5 13.9896 7.19792 10.5938 10.5938C7.19792 13.9896 5.5 18.125 5.5 23C5.5 27.875 7.19792 32.0104 10.5938 35.4062C13.9896 38.8021 18.125 40.5 23 40.5C27.375 40.5 31.1979 39.0833 34.4688 36.25C37.7396 33.4167 39.6667 29.8333 40.25 25.5H45.375C44.75 31.2083 42.3021 35.9688 38.0312 39.7812C33.7604 43.5938 28.75 45.5 23 45.5ZM30 33.5L20.5 24V10.5H25.5V22L33.5 30L30 33.5Z" fill="#1C1B1F"/>
</svg>
