<svg width="70" height="70" viewBox="0 0 70 70" fill="none" xmlns="http://www.w3.org/2000/svg">
<g opacity="0.8">
<mask id="mask0_1064_2318" style="mask-type:alpha" maskUnits="userSpaceOnUse" x="0" y="0" width="70" height="70">
<rect width="70" height="70" fill="#D9D9D9"/>
</mask>
<g mask="url(#mask0_1064_2318)">
<path d="M17.5 55.4167V58.3333C17.5 59.1597 17.2205 59.8524 16.6615 60.4115C16.1024 60.9705 15.4097 61.25 14.5833 61.25H11.6667C10.8403 61.25 10.1476 60.9705 9.58854 60.4115C9.02951 59.8524 8.75 59.1597 8.75 58.3333V35L14.875 17.5C15.1667 16.625 15.6892 15.9201 16.4427 15.3854C17.1962 14.8507 18.0347 14.5833 18.9583 14.5833H26.25V8.75H43.75V14.5833H51.0417C51.9653 14.5833 52.8038 14.8507 53.5573 15.3854C54.3108 15.9201 54.8333 16.625 55.125 17.5L61.25 35V58.3333C61.25 59.1597 60.9705 59.8524 60.4115 60.4115C59.8524 60.9705 59.1597 61.25 58.3333 61.25H55.4167C54.5903 61.25 53.8976 60.9705 53.3385 60.4115C52.7795 59.8524 52.5 59.1597 52.5 58.3333V55.4167H17.5ZM16.9167 29.1667H53.0833L50.0208 20.4167H19.9792L16.9167 29.1667ZM21.875 46.6667C23.0903 46.6667 24.1233 46.2413 24.974 45.3906C25.8247 44.5399 26.25 43.5069 26.25 42.2917C26.25 41.0764 25.8247 40.0434 24.974 39.1927C24.1233 38.342 23.0903 37.9167 21.875 37.9167C20.6597 37.9167 19.6267 38.342 18.776 39.1927C17.9253 40.0434 17.5 41.0764 17.5 42.2917C17.5 43.5069 17.9253 44.5399 18.776 45.3906C19.6267 46.2413 20.6597 46.6667 21.875 46.6667ZM48.125 46.6667C49.3403 46.6667 50.3733 46.2413 51.224 45.3906C52.0747 44.5399 52.5 43.5069 52.5 42.2917C52.5 41.0764 52.0747 40.0434 51.224 39.1927C50.3733 38.342 49.3403 37.9167 48.125 37.9167C46.9097 37.9167 45.8767 38.342 45.026 39.1927C44.1753 40.0434 43.75 41.0764 43.75 42.2917C43.75 43.5069 44.1753 44.5399 45.026 45.3906C45.8767 46.2413 46.9097 46.6667 48.125 46.6667ZM14.5833 49.5833H55.4167V35H14.5833V49.5833Z" fill="#1C1B1F"/>
</g>
</g>
</svg>
