<svg width="23" height="22" viewBox="0 0 23 22" fill="none" xmlns="http://www.w3.org/2000/svg">
<path d="M0.67134 21.8332L2.13601 16.4512C1.17091 14.7968 0.663861 12.9152 0.667007 10.9998C0.667007 5.01659 5.51709 0.166504 11.5003 0.166504C17.4836 0.166504 22.3337 5.01659 22.3337 10.9998C22.3337 16.9831 17.4836 21.8332 11.5003 21.8332C9.58585 21.8363 7.70505 21.3296 6.05117 20.3653L0.67134 21.8332ZM7.59059 5.91684C7.45069 5.92552 7.31399 5.96237 7.18867 6.02517C7.07116 6.09172 6.96388 6.17491 6.87017 6.27217C6.74017 6.39459 6.66651 6.50075 6.58742 6.60367C6.18704 7.12475 5.97167 7.76437 5.97534 8.4215C5.97751 8.95234 6.11617 9.46909 6.33284 9.95225C6.77592 10.9294 7.50501 11.964 8.46809 12.9228C8.69992 13.1535 8.92634 13.3853 9.17009 13.6009C10.3654 14.6533 11.7899 15.4123 13.3301 15.8174L13.9465 15.9117C14.1469 15.9225 14.3473 15.9073 14.5488 15.8976C14.8643 15.8813 15.1724 15.7959 15.4513 15.6473C15.6311 15.552 15.7156 15.5043 15.8662 15.409C15.8662 15.409 15.9128 15.3787 16.0016 15.3115C16.1478 15.2032 16.2378 15.1263 16.3591 14.9995C16.449 14.9063 16.527 14.7969 16.5866 14.6723C16.6711 14.4958 16.7556 14.1588 16.7903 13.8783C16.8163 13.6638 16.8087 13.5468 16.8054 13.4742C16.8011 13.3583 16.7047 13.238 16.5996 13.1871L15.9691 12.9043C15.9691 12.9043 15.0266 12.4938 14.4513 12.2316C14.3907 12.2051 14.3257 12.1901 14.2596 12.1872C14.1855 12.1796 14.1106 12.1879 14.0399 12.2116C13.9693 12.2354 13.9046 12.2739 13.8501 12.3248V12.3226C13.8447 12.3226 13.7721 12.3843 12.9888 13.3333C12.9439 13.3937 12.882 13.4394 12.811 13.4645C12.74 13.4896 12.6631 13.4929 12.5902 13.4742C12.5196 13.4553 12.4504 13.4314 12.3833 13.4027C12.2489 13.3463 12.2023 13.3247 12.1103 13.2846L12.1048 13.2824C11.4851 13.0118 10.9113 12.6463 10.404 12.1991C10.2675 12.0799 10.1408 11.9499 10.0108 11.8243C9.58455 11.4161 9.21311 10.9544 8.90576 10.4506L8.84184 10.3477C8.79593 10.2785 8.75881 10.2039 8.73134 10.1256C8.69017 9.96634 8.79742 9.8385 8.79742 9.8385C8.79742 9.8385 9.06067 9.55034 9.18309 9.39434C9.28502 9.26469 9.38012 9.12981 9.46801 8.99025C9.59584 8.78442 9.63592 8.57317 9.56876 8.40959C9.26542 7.66859 8.95126 6.93084 8.62842 6.1985C8.56451 6.05334 8.37492 5.94934 8.20267 5.92875C8.14417 5.92225 8.08567 5.91575 8.02717 5.91142C7.88169 5.90419 7.7359 5.90672 7.59059 5.91684Z" fill="black"/>
</svg>
